  0
SECTION
  2
HEADER
  9
$ACADVER
  1
AC1015
  9
$ACADMAINTVER
 70
     6
  9
$DWGCODEPAGE
  3
ANSI_1252
  9
$INSBASE
 10
0.0
 20
0.0
 30
0.0
  9
$EXTMIN
 10
-2.9846990313
 20
-1.85
 30
0.0
  9
$EXTMAX
 10
5.1
 20
1.75
 30
0.0
  9
$LIMMIN
 10
0.0
 20
0.0
  9
$LIMMAX
 10
12.0
 20
9.0
  9
$ORTHOMODE
 70
     0
  9
$REGENMODE
 70
     1
  9
$FILLMODE
 70
     1
  9
$QTEXTMODE
 70
     0
  9
$MIRRTEXT
 70
     1
  9
$LTSCALE
 40
1.0
  9
$ATTMODE
 70
     1
  9
$TEXTSIZE
 40
0.1377952756
  9
$TRACEWID
 40
0.05
  9
$TEXTSTYLE
  7
Standard
  9
$CLAYER
  8
0
  9
$CELTYPE
  6
ByLayer
  9
$CECOLOR
 62
   256
  9
$CELTSCALE
 40
1.0
  9
$DISPSILH
 70
     0
  9
$DIMSCALE
 40
1.0
  9
$DIMASZ
 40
0.13
  9
$DIMEXO
 40
0.05
  9
$DIMDLI
 40
0.38
  9
$DIMRND
 40
0.0
  9
$DIMDLE
 40
0.0
  9
$DIMEXE
 40
0.125
  9
$DIMTP
 40
0.0
  9
$DIMTM
 40
0.0
  9
$DIMTXT
 40
0.1377952756
  9
$DIMCEN
 40
0.09
  9
$DIMTSZ
 40
0.0
  9
$DIMTOL
 70
     0
  9
$DIMLIM
 70
     0
  9
$DIMTIH
 70
     1
  9
$DIMTOH
 70
     1
  9
$DIMSE1
 70
     0
  9
$DIMSE2
 70
     0
  9
$DIMTAD
 70
     1
  9
$DIMZIN
 70
     0
  9
$DIMBLK
  1

  9
$DIMASO
 70
     1
  9
$DIMSHO
 70
     1
  9
$DIMPOST
  1

  9
$DIMAPOST
  1

  9
$DIMALT
 70
     0
  9
$DIMALTD
 70
     2
  9
$DIMALTF
 40
25.4
  9
$DIMLFAC
 40
1.0
  9
$DIMTOFL
 70
     0
  9
$DIMTVP
 40
0.0
  9
$DIMTIX
 70
     0
  9
$DIMSOXD
 70
     0
  9
$DIMSAH
 70
     0
  9
$DIMBLK1
  1

  9
$DIMBLK2
  1

  9
$DIMSTYLE
  2
Standard
  9
$DIMCLRD
 70
     0
  9
$DIMCLRE
 70
     0
  9
$DIMCLRT
 70
     0
  9
$DIMTFAC
 40
1.0
  9
$DIMGAP
 40
0.06
  9
$DIMJUST
 70
     0
  9
$DIMSD1
 70
     0
  9
$DIMSD2
 70
     0
  9
$DIMTOLJ
 70
     1
  9
$DIMTZIN
 70
     0
  9
$DIMALTZ
 70
     0
  9
$DIMALTTZ
 70
     0
  9
$DIMUPT
 70
     0
  9
$DIMDEC
 70
     2
  9
$DIMTDEC
 70
     2
  9
$DIMALTU
 70
     2
  9
$DIMALTTD
 70
     2
  9
$DIMTXSTY
  7
Standard
  9
$DIMAUNIT
 70
     0
  9
$DIMADEC
 70
     2
  9
$DIMALTRND
 40
0.0
  9
$DIMAZIN
 70
     0
  9
$DIMDSEP
 70
    46
  9
$DIMATFIT
 70
     3
  9
$DIMFRAC
 70
     0
  9
$DIMLDRBLK
  1

  9
$DIMLUNIT
 70
     2
  9
$DIMLWD
 70
    -2
  9
$DIMLWE
 70
    -2
  9
$DIMTMOVE
 70
     0
  9
$LUNITS
 70
     2
  9
$LUPREC
 70
     2
  9
$SKETCHINC
 40
0.1
  9
$FILLETRAD
 40
0.5
  9
$AUNITS
 70
     0
  9
$AUPREC
 70
     2
  9
$MENU
  1
.
  9
$ELEVATION
 40
0.0
  9
$PELEVATION
 40
0.0
  9
$THICKNESS
 40
0.0
  9
$LIMCHECK
 70
     0
  9
$CHAMFERA
 40
0.0
  9
$CHAMFERB
 40
0.0
  9
$CHAMFERC
 40
0.0
  9
$CHAMFERD
 40
0.0
  9
$SKPOLY
 70
     0
  9
$TDCREATE
 40
2458626.694163056
  9
$TDUCREATE
 40
2458626.902496389
  9
$TDUPDATE
 40
2458626.69418206
  9
$TDUUPDATE
 40
2458626.902515394
  9
$TDINDWG
 40
0.0000000116
  9
$TDUSRTIMER
 40
0.0000000116
  9
$USRTIMER
 70
     1
  9
$ANGBASE
 50
0.0
  9
$ANGDIR
 70
     0
  9
$PDMODE
 70
     0
  9
$PDSIZE
 40
-1.0
  9
$PLINEWID
 40
0.0
  9
$SPLFRAME
 70
     0
  9
$SPLINETYPE
 70
     6
  9
$SPLINESEGS
 70
     8
  9
$HANDSEED
  5
13A
  9
$SURFTAB1
 70
     6
  9
$SURFTAB2
 70
     6
  9
$SURFTYPE
 70
     6
  9
$SURFU
 70
     6
  9
$SURFV
 70
     6
  9
$UCSBASE
  2

  9
$UCSNAME
  2

  9
$UCSORG
 10
0.0
 20
0.0
 30
0.0
  9
$UCSXDIR
 10
1.0
 20
0.0
 30
0.0
  9
$UCSYDIR
 10
0.0
 20
1.0
 30
0.0
  9
$UCSORTHOREF
  2

  9
$UCSORTHOVIEW
 70
     0
  9
$UCSORGTOP
 10
0.0
 20
0.0
 30
0.0
  9
$UCSORGBOTTOM
 10
0.0
 20
0.0
 30
0.0
  9
$UCSORGLEFT
 10
0.0
 20
0.0
 30
0.0
  9
$UCSORGRIGHT
 10
0.0
 20
0.0
 30
0.0
  9
$UCSORGFRONT
 10
0.0
 20
0.0
 30
0.0
  9
$UCSORGBACK
 10
0.0
 20
0.0
 30
0.0
  9
$PUCSBASE
  2

  9
$PUCSNAME
  2

  9
$PUCSORG
 10
0.0
 20
0.0
 30
0.0
  9
$PUCSXDIR
 10
1.0
 20
0.0
 30
0.0
  9
$PUCSYDIR
 10
0.0
 20
1.0
 30
0.0
  9
$PUCSORTHOREF
  2

  9
$PUCSORTHOVIEW
 70
     0
  9
$PUCSORGTOP
 10
0.0
 20
0.0
 30
0.0
  9
$PUCSORGBOTTOM
 10
0.0
 20
0.0
 30
0.0
  9
$PUCSORGLEFT
 10
0.0
 20
0.0
 30
0.0
  9
$PUCSORGRIGHT
 10
0.0
 20
0.0
 30
0.0
  9
$PUCSORGFRONT
 10
0.0
 20
0.0
 30
0.0
  9
$PUCSORGBACK
 10
0.0
 20
0.0
 30
0.0
  9
$USERI1
 70
     0
  9
$USERI2
 70
     0
  9
$USERI3
 70
     0
  9
$USERI4
 70
     0
  9
$USERI5
 70
     0
  9
$USERR1
 40
0.0
  9
$USERR2
 40
0.0
  9
$USERR3
 40
0.0
  9
$USERR4
 40
0.0
  9
$USERR5
 40
0.0
  9
$WORLDVIEW
 70
     1
  9
$SHADEDGE
 70
     3
  9
$SHADEDIF
 70
    70
  9
$TILEMODE
 70
     1
  9
$MAXACTVP
 70
    64
  9
$PINSBASE
 10
0.0
 20
0.0
 30
0.0
  9
$PLIMCHECK
 70
     0
  9
$PEXTMIN
 10
1.0000000000E+20
 20
1.0000000000E+20
 30
1.0000000000E+20
  9
$PEXTMAX
 10
-1.0000000000E+20
 20
-1.0000000000E+20
 30
-1.0000000000E+20
  9
$PLIMMIN
 10
0.0
 20
0.0
  9
$PLIMMAX
 10
12.0
 20
9.0
  9
$UNITMODE
 70
     0
  9
$VISRETAIN
 70
     1
  9
$PLINEGEN
 70
     0
  9
$PSLTSCALE
 70
     1
  9
$TREEDEPTH
 70
  3020
  9
$CMLSTYLE
  2
Standard
  9
$CMLJUST
 70
     0
  9
$CMLSCALE
 40
1.0
  9
$PROXYGRAPHICS
 70
     1
  9
$MEASUREMENT
 70
     0
  9
$CELWEIGHT
370
    -1
  9
$ENDCAPS
280
     0
  9
$JOINSTYLE
280
     0
  9
$LWDISPLAY
290
     1
  9
$INSUNITS
 70
     1
  9
$HYPERLINKBASE
  1

  9
$STYLESHEET
  1

  9
$XEDIT
290
     1
  9
$CEPSNTYPE
380
     0
  9
$PSTYLEMODE
290
     1
  9
$FINGERPRINTGUID
  2
{A6E0AB51-A63E-4E6B-BE5C-DC4598044808}
  9
$VERSIONGUID
  2
{FAEB1C32-E019-11D5-929B-00C0DF256EC4}
  9
$EXTNAMES
290
     1
  9
$PSVPSCALE
 40
0.0
  9
$OLESTARTUP
290
     0
  0
ENDSEC
  0
SECTION
  2
CLASSES
  0
CLASS
  1
ACDBDICTIONARYWDFLT
  2
AcDbDictionaryWithDefault
  3
ObjectDBX Classes
 90
        0
280
     0
281
     0
  0
CLASS
  1
VISUALSTYLE
  2
AcDbVisualStyle
  3
ObjectDBX Classes
 90
     4095
280
     0
281
     0
  0
CLASS
  1
MATERIAL
  2
AcDbMaterial
  3
ObjectDBX Classes
 90
     1153
280
     0
281
     0
  0
CLASS
  1
SCALE
  2
AcDbScale
  3
ObjectDBX Classes
 90
     1153
280
     0
281
     0
  0
CLASS
  1
TABLESTYLE
  2
AcDbTableStyle
  3
ObjectDBX Classes
 90
     4095
280
     0
281
     0
  0
CLASS
  1
MLEADERSTYLE
  2
AcDbMLeaderStyle
  3
ACDB_MLEADERSTYLE_CLASS
 90
     4095
280
     0
281
     0
  0
CLASS
  1
SUN
  2
AcDbSun
  3
SCENEOE
 90
     1153
280
     0
281
     0
  0
CLASS
  1
ACDBPLACEHOLDER
  2
AcDbPlaceHolder
  3
ObjectDBX Classes
 90
        0
280
     0
281
     0
  0
CLASS
  1
LAYOUT
  2
AcDbLayout
  3
ObjectDBX Classes
 90
        0
280
     0
281
     0
  0
ENDSEC
  0
SECTION
  2
TABLES
  0
TABLE
  2
VPORT
  5
8
330
0
100
AcDbSymbolTable
 70
     1
  0
VPORT
  5
29
330
8
100
AcDbSymbolTableRecord
100
AcDbViewportTableRecord
  2
*Active
 70
     0
 10
0.0
 20
0.0
 11
1.0
 21
1.0
 12
1.0576504844
 22
-0.05
 13
0.0
 23
0.0
 14
0.5
 24
0.5
 15
0.5
 25
0.5
 16
0.0
 26
0.0
 36
1.0
 17
0.0
 27
0.0
 37
0.0
 40
3.672
 41
2.2457497309
 42
50.0
 43
0.0
 44
0.0
 50
0.0
 51
0.0
 71
     0
 72
   100
 73
     1
 74
     3
 75
     0
 76
     0
 77
     0
 78
     0
281
     0
 65
     1
110
0.0
120
0.0
130
0.0
111
1.0
121
0.0
131
0.0
112
0.0
122
1.0
132
0.0
 79
     0
146
0.0
  0
ENDTAB
  0
TABLE
  2
LTYPE
  5
5
330
0
100
AcDbSymbolTable
 70
     6
  0
LTYPE
  5
14
330
5
100
AcDbSymbolTableRecord
100
AcDbLinetypeTableRecord
  2
ByBlock
 70
     0
  3

 72
    65
 73
     0
 40
0.0
  0
LTYPE
  5
15
330
5
100
AcDbSymbolTableRecord
100
AcDbLinetypeTableRecord
  2
ByLayer
 70
     0
  3

 72
    65
 73
     0
 40
0.0
  0
LTYPE
  5
16
330
5
100
AcDbSymbolTableRecord
100
AcDbLinetypeTableRecord
  2
Continuous
 70
     0
  3
Solid line
 72
    65
 73
     0
 40
0.0
  0
LTYPE
  5
6E
330
5
100
AcDbSymbolTableRecord
100
AcDbLinetypeTableRecord
  2
HIDDEN
 70
     0
  3
Hidden __ __ __ __ __ __ __ __ __ __ __ __ __ __
 72
    65
 73
     2
 40
0.075
 49
0.05
 74
     0
 49
-0.025
 74
     0
  0
LTYPE
  5
6F
330
5
100
AcDbSymbolTableRecord
100
AcDbLinetypeTableRecord
  2
PHANTOM
 70
     0
  3
Phantom ______  __  __  ______  __  __  ______
 72
    65
 73
     6
 40
0.5
 49
0.25
 74
     0
 49
-0.05
 74
     0
 49
0.05
 74
     0
 49
-0.05
 74
     0
 49
0.05
 74
     0
 49
-0.05
 74
     0
  0
LTYPE
  5
70
330
5
100
AcDbSymbolTableRecord
100
AcDbLinetypeTableRecord
  2
CENTER
 70
     0
  3
Center ____ _ ____ _ ____ _ ____ _ ____ _ ____
 72
    65
 73
     4
 40
0.4
 49
0.25
 74
     0
 49
-0.05
 74
     0
 49
0.05
 74
     0
 49
-0.05
 74
     0
  0
LTYPE
  5
71
330
5
100
AcDbSymbolTableRecord
100
AcDbLinetypeTableRecord
  2
CENTERX2
 70
     0
  3
Center (2x) ________  __  ________  __  _____
 72
    65
 73
     4
 40
0.8
 49
0.5
 74
     0
 49
-0.1
 74
     0
 49
0.1
 74
     0
 49
-0.1
 74
     0
  0
LTYPE
  5
72
330
5
100
AcDbSymbolTableRecord
100
AcDbLinetypeTableRecord
  2
DOT2
 70
     0
  3
Dot (.5x) ........................................
 72
    65
 73
     2
 40
0.025
 49
0.0
 74
     0
 49
-0.025
 74
     0
  0
ENDTAB
  0
TABLE
  2
LAYER
  5
2
330
0
100
AcDbSymbolTable
 70
     1
  0
LAYER
  5
10
330
2
100
AcDbSymbolTableRecord
100
AcDbLayerTableRecord
  2
0
 70
     0
 62
     7
  6
Continuous
370
    -3
390
F
  0
ENDTAB
  0
TABLE
  2
STYLE
  5
3
330
0
100
AcDbSymbolTable
 70
     2
  0
STYLE
  5
11
330
3
100
AcDbSymbolTableRecord
100
AcDbTextStyleTableRecord
  2
Standard
 70
     0
 40
0.0
 41
1.0
 50
0.0
 71
     0
 42
0.1377952756
  3
txt
  4

  0
STYLE
  5
137
330
3
100
AcDbSymbolTableRecord
100
AcDbTextStyleTableRecord
  2
SLDTEXTSTYLE0
 70
     0
 40
0.0
 41
0.7
 50
0.0
 71
     0
 42
0.1377952756
  3
TXT
  4

  0
ENDTAB
  0
TABLE
  2
VIEW
  5
6
330
0
100
AcDbSymbolTable
 70
     0
  0
ENDTAB
  0
TABLE
  2
UCS
  5
7
330
0
100
AcDbSymbolTable
 70
     0
  0
ENDTAB
  0
TABLE
  2
APPID
  5
9
330
0
100
AcDbSymbolTable
 70
     1
  0
APPID
  5
12
330
9
100
AcDbSymbolTableRecord
100
AcDbRegAppTableRecord
  2
ACAD
 70
     0
  0
ENDTAB
  0
TABLE
  2
DIMSTYLE
  5
A
330
0
100
AcDbSymbolTable
 70
     1
100
AcDbDimStyleTable
  0
DIMSTYLE
105
27
330
A
100
AcDbSymbolTableRecord
100
AcDbDimStyleTableRecord
  2
Standard
 70
     0
178
     0
340
11
  0
ENDTAB
  0
TABLE
  2
BLOCK_RECORD
  5
1
330
0
100
AcDbSymbolTable
 70
     1
  0
BLOCK_RECORD
  5
1F
330
1
100
AcDbSymbolTableRecord
100
AcDbBlockTableRecord
  2
*Model_Space
340
22
  0
BLOCK_RECORD
  5
1B
330
1
100
AcDbSymbolTableRecord
100
AcDbBlockTableRecord
  2
*Paper_Space
340
1E
  0
BLOCK_RECORD
  5
23
330
1
100
AcDbSymbolTableRecord
100
AcDbBlockTableRecord
  2
*Paper_Space0
340
26
  0
ENDTAB
  0
ENDSEC
  0
SECTION
  2
BLOCKS
  0
BLOCK
  5
20
330
1F
100
AcDbEntity
  8
0
100
AcDbBlockBegin
  2
*Model_Space
 70
     0
 10
0.0
 20
0.0
 30
0.0
  3
*Model_Space
  1

  0
ENDBLK
  5
21
330
1F
100
AcDbEntity
  8
0
100
AcDbBlockEnd
  0
BLOCK
  5
1C
330
1B
100
AcDbEntity
 67
     1
  8
0
100
AcDbBlockBegin
  2
*Paper_Space
 70
     0
 10
0.0
 20
0.0
 30
0.0
  3
*Paper_Space
  1

  0
ENDBLK
  5
1D
330
1B
100
AcDbEntity
 67
     1
  8
0
100
AcDbBlockEnd
  0
BLOCK
  5
24
330
23
100
AcDbEntity
  8
0
100
AcDbBlockBegin
  2
*Paper_Space0
 70
     0
 10
0.0
 20
0.0
 30
0.0
  3
*Paper_Space0
  1

  0
ENDBLK
  5
25
330
23
100
AcDbEntity
  8
0
100
AcDbBlockEnd
  0
ENDSEC
  0
SECTION
  2
ENTITIES
  0
CIRCLE
  5
73
330
1F
100
AcDbEntity
  8
0
  6
Continuous
 62
     7
370
    25
100
AcDbCircle
 10
-1.377
 20
-1.35
 30
0.0
 40
0.0354000000000008
  0
CIRCLE
  5
74
330
1F
100
AcDbEntity
  8
0
  6
Continuous
 62
     7
370
    25
100
AcDbCircle
 10
-1.023
 20
-1.35
 30
0.0
 40
0.0354000000000005
  0
CIRCLE
  5
75
330
1F
100
AcDbEntity
  8
0
  6
Continuous
 62
     7
370
    25
100
AcDbCircle
 10
-1.2
 20
-1.35
 30
0.0
 40
0.0799999999999998
  0
CIRCLE
  5
76
330
1F
100
AcDbEntity
  8
0
  6
Continuous
 62
     7
370
    25
100
AcDbCircle
 10
-2.0
 20
-0.45
 30
0.0
 40
0.0250000000000001
  0
CIRCLE
  5
83
330
1F
100
AcDbEntity
  8
0
  6
Continuous
 62
     7
370
    25
100
AcDbCircle
 10
5.04
 20
-0.875
 30
0.0
 40
0.0570000000000004
  0
CIRCLE
  5
84
330
1F
100
AcDbEntity
  8
0
  6
Continuous
 62
     7
370
    25
100
AcDbCircle
 10
-1.2
 20
-1.79
 30
0.0
 40
0.0570000000000002
  0
CIRCLE
  5
85
330
1F
100
AcDbEntity
  8
0
  6
Continuous
 62
     7
370
    25
100
AcDbCircle
 10
1.2
 20
-1.79
 30
0.0
 40
0.0569999999999999
  0
CIRCLE
  5
86
330
1F
100
AcDbEntity
  8
0
  6
Continuous
 62
     7
370
    25
100
AcDbCircle
 10
3.75
 20
-1.79
 30
0.0
 40
0.0569999999999999
  0
SPLINE
  5
BC
330
1F
100
AcDbEntity
  8
0
  6
Continuous
 62
     7
370
    25
100
AcDbSpline
210
0.0
220
0.0
230
1.0
 70
     8
 71
     3
 72
    19
 73
    15
 74
     0
 42
0.000000001
 43
0.00000001
 40
0.0
 40
0.0
 40
0.0
 40
0.0
 40
0.0978181896147148
 40
0.1997260534018268
 40
0.3052763574779411
 40
0.415811490538291
 40
0.4744722311435587
 40
0.5372738797760956
 40
0.6036574205596561
 40
0.6742988630901264
 40
0.7498344853162274
 40
0.8285984767571
 40
0.912377778157779
 40
1.0
 40
1.0
 40
1.0
 40
1.0
 10
-1.563497167712816
 20
-0.2508531762813043
 30
0.0
 10
-1.56345065412988
 20
-0.2494340982021757
 30
0.0
 10
-1.56335568228072
 20
-0.2465366119030551
 30
0.0
 10
-1.562692556676847
 20
-0.2421482643462234
 30
0.0
 10
-1.561627013575143
 20
-0.2376580642782467
 30
0.0
 10
-1.560433696789613
 20
-0.2338488440579236
 30
0.0
 10
-1.559172846000436
 20
-0.2307283116973098
 30
0.0
 10
-1.558123533418248
 20
-0.2282124262396625
 30
0.0
 10
-1.556817470582007
 20
-0.2256234076083745
 30
0.0
 10
-1.555424817779054
 20
-0.2228724770579668
 30
0.0
 10
-1.55382021664069
 20
-0.2200305308891269
 30
0.0
 10
-1.55207550603485
 20
-0.2170500714615144
 30
0.0
 10
-1.550142448912585
 20
-0.2139784995063198
 30
0.0
 10
-1.548787324395023
 20
-0.2118940823706159
 30
0.0
 10
-1.548094570801852
 20
-0.2108285068890168
 30
0.0
  0
SPLINE
  5
BD
330
1F
100
AcDbEntity
  8
0
  6
Continuous
 62
     7
370
    25
100
AcDbSpline
210
0.0
220
0.0
230
1.0
 70
     8
 71
     3
 72
    19
 73
    15
 74
     0
 42
0.000000001
 43
0.00000001
 40
0.0
 40
0.0
 40
0.0
 40
0.0
 40
0.0843347219926266
 40
0.1670523184160743
 40
0.2495660772409633
 40
0.3327404818018427
 40
0.4159148863627269
 40
0.4978280095399945
 40
0.5803725886080503
 40
0.6646001210565018
 40
0.7494666931126165
 40
0.8325102339401402
 40
0.9156392816681738
 40
1.0
 40
1.0
 40
1.0
 40
1.0
 10
-1.521761098663754
 20
-0.2928100710925298
 30
0.0
 10
-1.523615299476849
 20
-0.2927499055120683
 30
0.0
 10
-1.527288146642498
 20
-0.2926307280313405
 30
0.0
 10
-1.53269101255736
 20
-0.2915690769339242
 30
0.0
 10
-1.537882469933006
 20
-0.289848324856415
 30
0.0
 10
-1.542826146346703
 20
-0.2874776839688992
 30
0.0
 10
-1.547405698036778
 20
-0.2844832791282524
 30
0.0
 10
-1.551502770337273
 20
-0.2808784649891995
 30
0.0
 10
-1.555096934689973
 20
-0.2767402970729622
 30
0.0
 10
-1.55808806149827
 20
-0.2720694172591078
 30
0.0
 10
-1.560460452519813
 20
-0.2670501275935798
 30
0.0
 10
-1.562239583429904
 20
-0.2618163812790306
 30
0.0
 10
-1.563278805604514
 20
-0.2563872481402186
 30
0.0
 10
-1.563424024377963
 20
-0.252706888329727
 30
0.0
 10
-1.563497167712816
 20
-0.2508531762813043
 30
0.0
  0
SPLINE
  5
BE
330
1F
100
AcDbEntity
  8
0
  6
Continuous
 62
     7
370
    25
100
AcDbSpline
210
0.0
220
0.0
230
1.0
 70
     8
 71
     3
 72
    19
 73
    15
 74
     0
 42
0.000000001
 43
0.00000001
 40
0.0
 40
0.0
 40
0.0
 40
0.0
 40
0.0859479431441274
 40
0.1691252118806908
 40
0.2503991071860497
 40
0.3322897361388348
 40
0.4133642879158812
 40
0.4941722833711889
 40
0.5760217353866356
 40
0.6607569692540073
 40
0.7457831259137413
 40
0.8300435929752217
 40
0.91402754582068
 40
0.9999999999999999
 40
0.9999999999999999
 40
0.9999999999999999
 40
0.9999999999999999
 10
-1.478700075041707
 20
-0.2506047472988694
 30
0.0
 10
-1.478756102793054
 20
-0.2525330820999254
 30
0.0
 10
-1.478866352148316
 20
-0.2563275886334746
 30
0.0
 10
-1.479964926794799
 20
-0.2618542306179035
 30
0.0
 10
-1.481671999422962
 20
-0.2671192902845596
 30
0.0
 10
-1.484112059596313
 20
-0.2720387064801654
 30
0.0
 10
-1.487142862075989
 20
-0.2766057367785156
 30
0.0
 10
-1.490838830291255
 20
-0.2806524086455117
 30
0.0
 10
-1.495068888887085
 20
-0.2842614652328142
 30
0.0
 10
-1.499851833697321
 20
-0.2872794423669843
 30
0.0
 10
-1.504999194489304
 20
-0.2897441294147179
 30
0.0
 10
-1.510406753442624
 20
-0.2915144145360911
 30
0.0
 10
-1.516021995424482
 20
-0.2926043149058126
 30
0.0
 10
-1.519833200466
 20
-0.2927409528060988
 30
0.0
 10
-1.521761098663754
 20
-0.2928100710925298
 30
0.0
  0
SPLINE
  5
BF
330
1F
100
AcDbEntity
  8
0
  6
Continuous
 62
     7
370
    25
100
AcDbSpline
210
0.0
220
0.0
230
1.0
 70
     8
 71
     3
 72
    23
 73
    19
 74
     0
 42
0.000000001
 43
0.00000001
 40
0.0
 40
0.0
 40
0.0
 40
0.0
 40
0.0652308037420312
 40
0.1284048960032227
 40
0.1900670715964771
 40
0.2509433657682786
 40
0.3115458328521423
 40
0.3728628021568293
 40
0.4350236738562401
 40
0.4990717247070436
 40
0.5630910750496627
 40
0.6255101063303736
 40
0.6866800359296498
 40
0.7472825030135115
 40
0.8085634952159583
 40
0.8707421035159855
 40
0.9343409515059119
 40
1.0
 40
1.0
 40
1.0
 40
1.0
 10
-1.519580444262381
 20
-0.2097795845187361
 30
0.0
 10
-1.518179952280682
 20
-0.2098172267114831
 30
0.0
 10
-1.515423125491078
 20
-0.2098913242477349
 30
0.0
 10
-1.511375613594464
 20
-0.2104615545899334
 30
0.0
 10
-1.507486285406543
 20
-0.2113601810436192
 30
0.0
 10
-1.503771261302
 20
-0.212670112380163
 30
0.0
 10
-1.500217206898079
 20
-0.2143434334180481
 30
0.0
 10
-1.496803726736327
 20
-0.2163489007519258
 30
0.0
 10
-1.493594986180963
 20
-0.2187900692699082
 30
0.0
 10
-1.490549664164748
 20
-0.2215170360330526
 30
0.0
 10
-1.487784817810693
 20
-0.2245373897533338
 30
0.0
 10
-1.485336941607643
 20
-0.2277421667890054
 30
0.0
 10
-1.483280768704723
 20
-0.2311280282456269
 30
0.0
 10
-1.481612504074228
 20
-0.234693259187884
 30
0.0
 10
-1.480317036412895
 20
-0.2384323638949919
 30
0.0
 10
-1.479372640938737
 20
-0.2423405583630391
 30
0.0
 10
-1.478814389252916
 20
-0.2464205375543824
 30
0.0
 10
-1.478738582531849
 20
-0.2491952688640747
 30
0.0
 10
-1.478700075041707
 20
-0.2506047472988694
 30
0.0
  0
SPLINE
  5
C0
330
1F
100
AcDbEntity
  8
0
  6
Continuous
 62
     7
370
    25
100
AcDbSpline
210
0.0
220
0.0
230
1.0
 70
     8
 71
     3
 72
     9
 73
     5
 74
     0
 42
0.000000001
 43
0.00000001
 40
0.0
 40
0.0
 40
0.0
 40
0.0
 40
0.512659336341778
 40
0.9999999999999999
 40
0.9999999999999999
 40
0.9999999999999999
 40
0.9999999999999999
 10
-1.533851309142252
 20
-0.2111045390917222
 30
0.0
 10
-1.531427282489365
 20
-0.2107181666250453
 30
0.0
 10
-1.526698944427321
 20
-0.2099645034431085
 30
0.0
 10
-1.521912885430298
 20
-0.2098401748821468
 30
0.0
 10
-1.519580444262381
 20
-0.2097795845187361
 30
0.0
  0
SPLINE
  5
C3
330
1F
100
AcDbEntity
  8
0
  6
Continuous
 62
     7
370
    25
100
AcDbSpline
210
0.0
220
0.0
230
1.0
 70
     8
 71
     3
 72
    15
 73
    11
 74
     0
 42
0.000000001
 43
0.00000001
 40
0.0
 40
0.0
 40
0.0
 40
0.0
 40
0.1219040408698849
 40
0.2394126076020058
 40
0.3554101042801786
 40
0.4720907288033021
 40
0.5928589821563587
 40
0.7187034677136864
 40
0.854892382951527
 40
1.0
 40
1.0
 40
1.0
 40
1.0
 10
-1.589996259172537
 20
-0.1836945413630729
 30
0.0
 10
-1.590052737937595
 20
-0.1851896856094023
 30
0.0
 10
-1.590163659022084
 20
-0.1881260639296001
 30
0.0
 10
-1.591096727507411
 20
-0.1924066356019662
 30
0.0
 10
-1.592668117806662
 20
-0.1964153772921685
 30
0.0
 10
-1.594813557294186
 20
-0.200197776983904
 30
0.0
 10
-1.597609836329067
 20
-0.2036852375197199
 30
0.0
 10
-1.601019628968704
 20
-0.2069221064130812
 30
0.0
 10
-1.605015750159859
 20
-0.2099349736702743
 30
0.0
 10
-1.608018147254878
 20
-0.2116352242323532
 30
0.0
 10
-1.609566942344352
 20
-0.2125123033255199
 30
0.0
  0
SPLINE
  5
C4
330
1F
100
AcDbEntity
  8
0
  6
Continuous
 62
     7
370
    25
100
AcDbSpline
210
0.0
220
0.0
230
1.0
 70
     8
 71
     3
 72
    19
 73
    15
 74
     0
 42
0.000000001
 43
0.00000001
 40
0.0
 40
0.0
 40
0.0
 40
0.0
 40
0.0894097111101365
 40
0.1763057644831087
 40
0.2626259021834197
 40
0.3494457264756552
 40
0.4354982637429572
 40
0.518928130103716
 40
0.6013546565787428
 40
0.6842564217184183
 40
0.7658067397968339
 40
0.8448768657103886
 40
0.9222797948488743
 40
1.0
 40
1.0
 40
1.0
 40
1.0
 10
-1.629110022295897
 20
-0.1479483711127196
 30
0.0
 10
-1.627357903595462
 20
-0.1480053137548436
 30
0.0
 10
-1.623902925124893
 20
-0.1481175981580333
 30
0.0
 10
-1.618824396480062
 20
-0.1490540894203152
 30
0.0
 10
-1.613965149336916
 20
-0.1506182437410295
 30
0.0
 10
-1.609341940717606
 20
-0.152740181667375
 30
0.0
 10
-1.605037536486507
 20
-0.1553538407542686
 30
0.0
 10
-1.601234295964707
 20
-0.1585192294972324
 30
0.0
 10
-1.597874745493628
 20
-0.1620681094468705
 30
0.0
 10
-1.595095832333849
 20
-0.1660413221757527
 30
0.0
 10
-1.592805954797687
 20
-0.1702414872795096
 30
0.0
 10
-1.591211431131676
 20
-0.1746360747162389
 30
0.0
 10
-1.590189699872921
 20
-0.1791301321517303
 30
0.0
 10
-1.590060827267783
 20
-0.1821709984472596
 30
0.0
 10
-1.589996259172537
 20
-0.1836945413630729
 30
0.0
  0
SPLINE
  5
C5
330
1F
100
AcDbEntity
  8
0
  6
Continuous
 62
     7
370
    25
100
AcDbSpline
210
0.0
220
0.0
230
1.0
 70
     8
 71
     3
 72
    19
 73
    15
 74
     0
 42
0.000000001
 43
0.00000001
 40
0.0
 40
0.0
 40
0.0
 40
0.0
 40
0.074058426273383
 40
0.1488703523168793
 40
0.2266676683691787
 40
0.3077347594511144
 40
0.3911572038059803
 40
0.4739293555425551
 40
0.5579277515150566
 40
0.6449892900513607
 40
0.7333640555176181
 40
0.821092042184163
 40
0.9092872149973377
 40
0.9999999999999999
 40
0.9999999999999999
 40
0.9999999999999999
 40
0.9999999999999999
 10
-1.669493533551701
 20
-0.1833080962792853
 30
0.0
 10
-1.669429146776198
 20
-0.1818396884689845
 30
0.0
 10
-1.669299718128627
 20
-0.1788879326855523
 30
0.0
 10
-1.668253130704008
 20
-0.1744939908225361
 30
0.0
 10
-1.66654761627436
 20
-0.1701783780263068
 30
0.0
 10
-1.664227891982502
 20
-0.1659620113798307
 30
0.0
 10
-1.6613386315043
 20
-0.1619875934797463
 30
0.0
 10
-1.657872232062138
 20
-0.1584229892952953
 30
0.0
 10
-1.653911472344786
 20
-0.1553004899848592
 30
0.0
 10
-1.64947612325016
 20
-0.1526793808215348
 30
0.0
 10
-1.644703043103166
 20
-0.1505461659086423
 30
0.0
 10
-1.639666990981772
 20
-0.149074574459087
 30
0.0
 10
-1.634455711723568
 20
-0.1481125226202103
 30
0.0
 10
-1.630908557418507
 20
-0.1480035992092347
 30
0.0
 10
-1.629110022295897
 20
-0.1479483711127196
 30
0.0
  0
SPLINE
  5
C6
330
1F
100
AcDbEntity
  8
0
  6
Continuous
 62
     7
370
    25
100
AcDbSpline
210
0.0
220
0.0
230
1.0
 70
     8
 71
     3
 72
    15
 73
    11
 74
     0
 42
0.000000001
 43
0.00000001
 40
0.0
 40
0.0
 40
0.0
 40
0.0
 40
0.1458600603916649
 40
0.282425903075821
 40
0.4108504003575506
 40
0.5350294213479281
 40
0.6547010781259408
 40
0.770133432596504
 40
0.8845558441988611
 40
1.0
 40
1.0
 40
1.0
 40
1.0
 10
-1.649370785974475
 20
-0.2125123033255199
 30
0.0
 10
-1.6509688715915
 20
-0.2116408557420634
 30
0.0
 10
-1.65406321264942
 20
-0.2099534893027512
 30
0.0
 10
-1.658160434741247
 20
-0.2068532213463295
 30
0.0
 10
-1.661679750625274
 20
-0.2034954333614786
 30
0.0
 10
-1.664524424547137
 20
-0.1998092209668536
 30
0.0
 10
-1.666763488644465
 20
-0.1959097377265409
 30
0.0
 10
-1.668299654177802
 20
-0.1918213813336531
 30
0.0
 10
-1.669338885831506
 20
-0.1876199595421029
 30
0.0
 10
-1.669441831781947
 20
-0.1847496368421914
 30
0.0
 10
-1.669493533551701
 20
-0.1833080962792853
 30
0.0
  0
SPLINE
  5
C7
330
1F
100
AcDbEntity
  8
0
  6
Continuous
 62
     7
370
    25
100
AcDbSpline
210
0.0
220
0.0
230
1.0
 70
     8
 71
     3
 72
    23
 73
    19
 74
     0
 42
0.000000001
 43
0.00000001
 40
0.0
 40
0.0
 40
0.0
 40
0.0
 40
0.0588535860286683
 40
0.116315458963352
 40
0.1726748434114564
 40
0.2287803868808992
 40
0.2845803591252751
 40
0.3402565063845449
 40
0.3966298050124583
 40
0.4535072628751912
 40
0.5123181897799952
 40
0.5726484440568302
 40
0.6360219358218023
 40
0.7023629463891908
 40
0.7714830560569322
 40
0.844184477489902
 40
0.9200697939721528
 40
1.0
 40
1.0
 40
1.0
 40
1.0
 10
-1.67655995794096
 20
-0.2502735086556229
 30
0.0
 10
-1.676537206719355
 20
-0.2493066113313388
 30
0.0
 10
-1.676492242275189
 20
-0.2473956809423264
 30
0.0
 10
-1.676181027777908
 20
-0.2445724790413317
 30
0.0
 10
-1.675680694655729
 20
-0.2418245997195077
 30
0.0
 10
-1.675001188482756
 20
-0.2391418932755147
 30
0.0
 10
-1.674080281928887
 20
-0.2365438904203716
 30
0.0
 10
-1.672968386923197
 20
-0.2340182812203945
 30
0.0
 10
-1.671671853361109
 20
-0.2315622143328311
 30
0.0
 10
-1.670172594894495
 20
-0.2291622583852359
 30
0.0
 10
-1.668428420721217
 20
-0.226852041368332
 30
0.0
 10
-1.666453473879213
 20
-0.2245923565411758
 30
0.0
 10
-1.664208282199484
 20
-0.2224182672838037
 30
0.0
 10
-1.661717823187652
 20
-0.2203032111847217
 30
0.0
 10
-1.659010557854364
 20
-0.2182096689083567
 30
0.0
 10
-1.656016166890379
 20
-0.2162507819551588
 30
0.0
 10
-1.652814030363183
 20
-0.2142878699566154
 30
0.0
 10
-1.650538226992815
 20
-0.2131143138370987
 30
0.0
 10
-1.649370785974475
 20
-0.2125123033255199
 30
0.0
  0
SPLINE
  5
C8
330
1F
100
AcDbEntity
  8
0
  6
Continuous
 62
     7
370
    25
100
AcDbSpline
210
0.0
220
0.0
230
1.0
 70
     8
 71
     3
 72
    23
 73
    19
 74
     0
 42
0.000000001
 43
0.00000001
 40
0.0
 40
0.0
 40
0.0
 40
0.0
 40
0.0785564333527019
 40
0.1528628401420926
 40
0.2235596934382898
 40
0.2903749439782113
 40
0.3554030728222046
 40
0.4182911570440954
 40
0.4803885637756458
 40
0.5430726152062808
 40
0.6049239444620957
 40
0.6643983091132991
 40
0.7219425547367035
 40
0.7783748910546741
 40
0.8338299406509401
 40
0.8888612363188847
 40
0.9440889395778864
 40
0.9999999999999999
 40
0.9999999999999999
 40
0.9999999999999999
 40
0.9999999999999999
 10
-1.629938118904013
 20
-0.2928100710925298
 30
0.0
 10
-1.631789039715669
 20
-0.2927646979447094
 30
0.0
 10
-1.635390743612758
 20
-0.2926764064077086
 30
0.0
 10
-1.640633179736411
 20
-0.2920782004400947
 30
0.0
 10
-1.645519914769689
 20
-0.2910298592322899
 30
0.0
 10
-1.650079362340503
 20
-0.2895950320936269
 30
0.0
 10
-1.654284035306621
 20
-0.287728487671729
 30
0.0
 10
-1.65812195267563
 20
-0.2854053219730118
 30
0.0
 10
-1.661648487016333
 20
-0.2827190447225743
 30
0.0
 10
-1.664756615896893
 20
-0.2795925062107192
 30
0.0
 10
-1.667516003450292
 20
-0.2762437710799119
 30
0.0
 10
-1.669939942547437
 20
-0.2727889832940538
 30
0.0
 10
-1.67195467004853
 20
-0.2692278274854298
 30
0.0
 10
-1.673660461203863
 20
-0.2656134035804728
 30
0.0
 10
-1.674966288868581
 20
-0.261895051055625
 30
0.0
 10
-1.675870706598048
 20
-0.2580919009322606
 30
0.0
 10
-1.6764450890407
 20
-0.2542105960955621
 30
0.0
 10
-1.676521511674659
 20
-0.251591239667453
 30
0.0
 10
-1.67655995794096
 20
-0.2502735086556229
 30
0.0
  0
SPLINE
  5
C9
330
1F
100
AcDbEntity
  8
0
  6
Continuous
 62
     7
370
    25
100
AcDbSpline
210
0.0
220
0.0
230
1.0
 70
     8
 71
     3
 72
    15
 73
    11
 74
     0
 42
0.000000001
 43
0.00000001
 40
0.0
 40
0.0
 40
0.0
 40
0.0
 40
0.1192834503733727
 40
0.2370928820686317
 40
0.3547960442151264
 40
0.4745763009408493
 40
0.5974600658149747
 40
0.724926154615616
 40
0.8588831991927665
 40
1.0
 40
1.0
 40
1.0
 40
1.0
 10
-1.593363852045544
 20
-0.2776835063842722
 30
0.0
 10
-1.594459776230752
 20
-0.2788879856831256
 30
0.0
 10
-1.596638081962071
 20
-0.2812820601960883
 30
0.0
 10
-1.600369693285542
 20
-0.2843903598020288
 30
0.0
 10
-1.604465043042075
 20
-0.2870025406718396
 30
0.0
 10
-1.608908284484544
 20
-0.2891313554178561
 30
0.0
 10
-1.613687540445401
 20
-0.290788278997578
 30
0.0
 10
-1.618801792595413
 20
-0.2919789293091269
 30
0.0
 10
-1.624261011214252
 20
-0.2926609147113538
 30
0.0
 10
-1.628013195116445
 20
-0.2927594969829861
 30
0.0
 10
-1.629938118904013
 20
-0.2928100710925298
 30
0.0
  0
SPLINE
  5
CA
330
1F
100
AcDbEntity
  8
0
  6
Continuous
 62
     7
370
    25
100
AcDbSpline
210
0.0
220
0.0
230
1.0
 70
     8
 71
     3
 72
    15
 73
    11
 74
     0
 42
0.000000001
 43
0.00000001
 40
0.0
 40
0.0
 40
0.0
 40
0.0
 40
0.1281581855276746
 40
0.2536731361531697
 40
0.3773253059734887
 40
0.4993845547646085
 40
0.6229183680423453
 40
0.7458393931045757
 40
0.8713952850140323
 40
0.9999999999999999
 40
0.9999999999999999
 40
0.9999999999999999
 40
0.9999999999999999
 10
-1.582929834783278
 20
-0.2491417766245306
 30
0.0
 10
-1.58296020567066
 20
-0.250468459011373
 30
0.0
 10
-1.583020321052432
 20
-0.2530944612473114
 30
0.0
 10
-1.583543942470715
 20
-0.2569702924086314
 30
0.0
 10
-1.584327918001591
 20
-0.2607345357916423
 30
0.0
 10
-1.585472780689731
 20
-0.2643863661386951
 30
0.0
 10
-1.58695755985704
 20
-0.2679056328057032
 30
0.0
 10
-1.588787356549156
 20
-0.271295348295587
 30
0.0
 10
-1.590858663838397
 20
-0.2746110691292021
 30
0.0
 10
-1.59252213782289
 20
-0.2766512030513622
 30
0.0
 10
-1.593363852045543
 20
-0.2776835063842722
 30
0.0
  0
SPLINE
  5
CB
330
1F
100
AcDbEntity
  8
0
  6
Continuous
 62
     7
370
    25
100
AcDbSpline
210
0.0
220
0.0
230
1.0
 70
     8
 71
     3
 72
    23
 73
    19
 74
     0
 42
0.000000001
 43
0.00000001
 40
0.0
 40
0.0
 40
0.0
 40
0.0
 40
0.0795248295850151
 40
0.1550999763495357
 40
0.2272198200732676
 40
0.2959105041914705
 40
0.3620558809471796
 40
0.4255201169126359
 40
0.4858127192253065
 40
0.5444947060018098
 40
0.6014596357222257
 40
0.6578405937966478
 40
0.7139744721931369
 40
0.7694679515974521
 40
0.8261299671813285
 40
0.8828853593090691
 40
0.940700881666202
 40
1.0
 40
1.0
 40
1.0
 40
1.0
 10
-1.609566942344352
 20
-0.2125123033255199
 30
0.0
 10
-1.608439046787269
 20
-0.2131004118278282
 30
0.0
 10
-1.606239273771203
 20
-0.2142474198160876
 30
0.0
 10
-1.603106312818045
 20
-0.2160943027959445
 30
0.0
 10
-1.600243123792426
 20
-0.2180407974757287
 30
0.0
 10
-1.597570267029123
 20
-0.2199949651691368
 30
0.0
 10
-1.595134702036733
 20
-0.2220316443580676
 30
0.0
 10
-1.592963662160381
 20
-0.2241589339725562
 30
0.0
 10
-1.59100351964393
 20
-0.2263237349684022
 30
0.0
 10
-1.589293803738837
 20
-0.2285627050536294
 30
0.0
 10
-1.587789991269581
 20
-0.230869895962848
 30
0.0
 10
-1.586490300907236
 20
-0.2332513634054578
 30
0.0
 10
-1.585379387409885
 20
-0.2357018883570574
 30
0.0
 10
-1.584498956751342
 20
-0.2382482202442846
 30
0.0
 10
-1.583773689361937
 20
-0.2408529549552334
 30
0.0
 10
-1.583274649793362
 20
-0.2435497258942975
 30
0.0
 10
-1.58300626720212
 20
-0.2463207629374286
 30
0.0
 10
-1.582955526515456
 20
-0.2481935307202569
 30
0.0
 10
-1.582929834783278
 20
-0.2491417766245307
 30
0.0
  0
LINE
  5
E0
330
1F
100
AcDbEntity
  8
0
  6
Continuous
 62
     7
370
    25
100
AcDbLine
 10
1.45
 20
-1.55
 30
0.0
 11
1.45
 21
-1.35
 31
0.0
  0
LINE
  5
E1
330
1F
100
AcDbEntity
  8
0
  6
Continuous
 62
     7
370
    25
100
AcDbLine
 10
1.45
 20
-1.35
 30
0.0
 11
1.35
 21
-1.35
 31
0.0
  0
LINE
  5
E2
330
1F
100
AcDbEntity
  8
0
  6
Continuous
 62
     7
370
    25
100
AcDbLine
 10
1.35
 20
-1.35
 30
0.0
 11
1.35
 21
-1.55
 31
0.0
  0
LINE
  5
E3
330
1F
100
AcDbEntity
  8
0
  6
Continuous
 62
     7
370
    25
100
AcDbLine
 10
1.35
 20
-1.55
 30
0.0
 11
1.45
 21
-1.55
 31
0.0
  0
LINE
  5
E4
330
1F
100
AcDbEntity
  8
0
  6
Continuous
 62
     7
370
    25
100
AcDbLine
 10
2.15
 20
-1.35
 30
0.0
 11
2.15
 21
-1.55
 31
0.0
  0
LINE
  5
E5
330
1F
100
AcDbEntity
  8
0
  6
Continuous
 62
     7
370
    25
100
AcDbLine
 10
2.15
 20
-1.55
 30
0.0
 11
2.25
 21
-1.55
 31
0.0
  0
LINE
  5
E6
330
1F
100
AcDbEntity
  8
0
  6
Continuous
 62
     7
370
    25
100
AcDbLine
 10
2.25
 20
-1.55
 30
0.0
 11
2.25
 21
-1.35
 31
0.0
  0
LINE
  5
E7
330
1F
100
AcDbEntity
  8
0
  6
Continuous
 62
     7
370
    25
100
AcDbLine
 10
2.25
 20
-1.35
 30
0.0
 11
2.15
 21
-1.35
 31
0.0
  0
LINE
  5
E8
330
1F
100
AcDbEntity
  8
0
  6
Continuous
 62
     7
370
    25
100
AcDbLine
 10
1.75
 20
-1.35
 30
0.0
 11
1.75
 21
-1.55
 31
0.0
  0
LINE
  5
E9
330
1F
100
AcDbEntity
  8
0
  6
Continuous
 62
     7
370
    25
100
AcDbLine
 10
1.75
 20
-1.55
 30
0.0
 11
1.85
 21
-1.55
 31
0.0
  0
LINE
  5
EA
330
1F
100
AcDbEntity
  8
0
  6
Continuous
 62
     7
370
    25
100
AcDbLine
 10
1.85
 20
-1.55
 30
0.0
 11
1.85
 21
-1.35
 31
0.0
  0
LINE
  5
EB
330
1F
100
AcDbEntity
  8
0
  6
Continuous
 62
     7
370
    25
100
AcDbLine
 10
1.85
 20
-1.35
 30
0.0
 11
1.75
 21
-1.35
 31
0.0
  0
LINE
  5
EC
330
1F
100
AcDbEntity
  8
0
  6
Continuous
 62
     7
370
    25
100
AcDbLine
 10
-2.3826685223
 20
0.35
 30
0.0
 11
-1.1846990313
 21
0.35
 31
0.0
  0
LINE
  5
ED
330
1F
100
AcDbEntity
  8
0
  6
Continuous
 62
     7
370
    25
100
AcDbLine
 10
-1.0857040819
 20
0.4358578644
 30
0.0
 11
-0.942846939
 21
1.4358578644
 31
0.0
  0
LINE
  5
EE
330
1F
100
AcDbEntity
  8
0
  6
Continuous
 62
     7
370
    25
100
AcDbLine
 10
-1.0418418884
 20
1.55
 30
0.0
 11
-2.2398113795
 21
1.55
 31
0.0
  0
LINE
  5
EF
330
1F
100
AcDbEntity
  8
0
  6
Continuous
 62
     7
370
    25
100
AcDbLine
 10
-2.3388063289
 20
1.4641421356
 30
0.0
 11
-2.4816634717
 21
0.4641421356
 31
0.0
  0
LINE
  5
F0
330
1F
100
AcDbEntity
  8
0
  6
Continuous
 62
     7
370
    25
100
AcDbLine
 10
0.7734590803
 20
0.45
 30
0.0
 11
0.7734590803
 21
1.45
 31
0.0
  0
LINE
  5
F1
330
1F
100
AcDbEntity
  8
0
  6
Continuous
 62
     7
370
    25
100
AcDbLine
 10
0.6734590803
 20
1.55
 30
0.0
 11
-0.5265409197
 21
1.55
 31
0.0
  0
LINE
  5
F2
330
1F
100
AcDbEntity
  8
0
  6
Continuous
 62
     7
370
    25
100
AcDbLine
 10
-0.6265409197
 20
1.45
 30
0.0
 11
-0.6265409197
 21
0.45
 31
0.0
  0
LINE
  5
F3
330
1F
100
AcDbEntity
  8
0
  6
Continuous
 62
     7
370
    25
100
AcDbLine
 10
-0.5265409197
 20
0.35
 30
0.0
 11
0.6734590803
 21
0.35
 31
0.0
  0
LINE
  5
F4
330
1F
100
AcDbEntity
  8
0
  6
Continuous
 62
     7
370
    25
100
AcDbLine
 10
1.1734590803
 20
0.35
 30
0.0
 11
2.6539079728
 21
0.35
 31
0.0
  0
LINE
  5
F5
330
1F
100
AcDbEntity
  8
0
  6
Continuous
 62
     7
370
    25
100
AcDbLine
 10
2.7478772349
 20
0.4842020143
 30
0.0
 11
2.3839070006
 21
1.4842020143
 31
0.0
  0
LINE
  5
F6
330
1F
100
AcDbEntity
  8
0
  6
Continuous
 62
     7
370
    25
100
AcDbLine
 10
2.2899377385
 20
1.55
 30
0.0
 11
1.1734590803
 21
1.55
 31
0.0
  0
LINE
  5
F7
330
1F
100
AcDbEntity
  8
0
  6
Continuous
 62
     7
370
    25
100
AcDbLine
 10
1.0734590803
 20
1.45
 30
0.0
 11
1.0734590803
 21
0.45
 31
0.0
  0
LINE
  5
F8
330
1F
100
AcDbEntity
  8
0
  6
Continuous
 62
     7
370
    25
100
AcDbLine
 10
4.05
 20
-1.85
 30
0.0
 11
4.05
 21
-1.75
 31
0.0
  0
LINE
  5
F9
330
1F
100
AcDbEntity
  8
0
  6
Continuous
 62
     7
370
    25
100
AcDbLine
 10
3.45
 20
-1.85
 30
0.0
 11
4.05
 21
-1.85
 31
0.0
  0
LINE
  5
FA
330
1F
100
AcDbEntity
  8
0
  6
Continuous
 62
     7
370
    25
100
AcDbLine
 10
3.45
 20
-1.75
 30
0.0
 11
3.45
 21
-1.85
 31
0.0
  0
LINE
  5
FB
330
1F
100
AcDbEntity
  8
0
  6
Continuous
 62
     7
370
    25
100
AcDbLine
 10
1.5
 20
-1.75
 30
0.0
 11
3.45
 21
-1.75
 31
0.0
  0
LINE
  5
FC
330
1F
100
AcDbEntity
  8
0
  6
Continuous
 62
     7
370
    25
100
AcDbLine
 10
1.5
 20
-1.85
 30
0.0
 11
1.5
 21
-1.75
 31
0.0
  0
LINE
  5
FD
330
1F
100
AcDbEntity
  8
0
  6
Continuous
 62
     7
370
    25
100
AcDbLine
 10
0.9
 20
-1.85
 30
0.0
 11
1.5
 21
-1.85
 31
0.0
  0
LINE
  5
FE
330
1F
100
AcDbEntity
  8
0
  6
Continuous
 62
     7
370
    25
100
AcDbLine
 10
0.9
 20
-1.75
 30
0.0
 11
0.9
 21
-1.85
 31
0.0
  0
LINE
  5
FF
330
1F
100
AcDbEntity
  8
0
  6
Continuous
 62
     7
370
    25
100
AcDbLine
 10
-0.9
 20
-1.75
 30
0.0
 11
0.9
 21
-1.75
 31
0.0
  0
LINE
  5
100
330
1F
100
AcDbEntity
  8
0
  6
Continuous
 62
     7
370
    25
100
AcDbLine
 10
-0.9
 20
-1.85
 30
0.0
 11
-0.9
 21
-1.75
 31
0.0
  0
LINE
  5
101
330
1F
100
AcDbEntity
  8
0
  6
Continuous
 62
     7
370
    25
100
AcDbLine
 10
-1.5
 20
-1.85
 30
0.0
 11
-0.9
 21
-1.85
 31
0.0
  0
LINE
  5
102
330
1F
100
AcDbEntity
  8
0
  6
Continuous
 62
     7
370
    25
100
AcDbLine
 10
-1.5
 20
-1.75
 30
0.0
 11
-1.5
 21
-1.85
 31
0.0
  0
LINE
  5
103
330
1F
100
AcDbEntity
  8
0
  6
Continuous
 62
     7
370
    25
100
AcDbLine
 10
-2.8846990313
 20
-1.75
 30
0.0
 11
-1.5
 21
-1.75
 31
0.0
  0
LINE
  5
104
330
1F
100
AcDbEntity
  8
0
  6
Continuous
 62
     7
370
    25
100
AcDbLine
 10
-2.5122654092
 20
1.6641421356
 30
0.0
 11
-2.9836939806
 21
-1.6358578644
 31
0.0
  0
LINE
  5
105
330
1F
100
AcDbEntity
  8
0
  6
Continuous
 62
     7
370
    25
100
AcDbLine
 10
2.4299792462
 20
1.75
 30
0.0
 11
-2.4132704598
 21
1.75
 31
0.0
  0
LINE
  5
106
330
1F
100
AcDbEntity
  8
0
  6
Continuous
 62
     7
370
    25
100
AcDbLine
 10
3.1129994017
 20
0.0657979857
 30
0.0
 11
2.5239485083
 21
1.6842020143
 31
0.0
  0
LINE
  5
107
330
1F
100
AcDbEntity
  8
0
  6
Continuous
 62
     7
370
    25
100
AcDbLine
 10
4.9
 20
0.0
 30
0.0
 11
3.2069686638
 21
0.0
 31
0.0
  0
LINE
  5
108
330
1F
100
AcDbEntity
  8
0
  6
Continuous
 62
     7
370
    25
100
AcDbLine
 10
5.0
 20
-0.575
 30
0.0
 11
5.0
 21
-0.1
 31
0.0
  0
LINE
  5
109
330
1F
100
AcDbEntity
  8
0
  6
Continuous
 62
     7
370
    25
100
AcDbLine
 10
5.1
 20
-0.575
 30
0.0
 11
5.0
 21
-0.575
 31
0.0
  0
LINE
  5
10A
330
1F
100
AcDbEntity
  8
0
  6
Continuous
 62
     7
370
    25
100
AcDbLine
 10
5.1
 20
-1.175
 30
0.0
 11
5.1
 21
-0.575
 31
0.0
  0
LINE
  5
10B
330
1F
100
AcDbEntity
  8
0
  6
Continuous
 62
     7
370
    25
100
AcDbLine
 10
5.0
 20
-1.175
 30
0.0
 11
5.1
 21
-1.175
 31
0.0
  0
LINE
  5
10C
330
1F
100
AcDbEntity
  8
0
  6
Continuous
 62
     7
370
    25
100
AcDbLine
 10
5.0
 20
-1.65
 30
0.0
 11
5.0
 21
-1.175
 31
0.0
  0
LINE
  5
10D
330
1F
100
AcDbEntity
  8
0
  6
Continuous
 62
     7
370
    25
100
AcDbLine
 10
4.05
 20
-1.75
 30
0.0
 11
4.9
 21
-1.75
 31
0.0
  0
LINE
  5
10E
330
1F
100
AcDbEntity
  8
0
  6
Continuous
 62
     7
370
    25
100
AcDbLine
 10
-1.5480945708
 20
-0.2108285069
 30
0.0
 11
-1.5069657726
 21
-0.1479483711
 31
0.0
  0
LINE
  5
10F
330
1F
100
AcDbEntity
  8
0
  6
Continuous
 62
     7
370
    25
100
AcDbLine
 10
-1.4974426616
 20
-0.1554288438
 30
0.0
 11
-1.5338513091
 21
-0.2111045391
 31
0.0
  0
LINE
  5
110
330
1F
100
AcDbEntity
  8
0
  6
Continuous
 62
     7
370
    25
100
AcDbLine
 10
-1.5069657726
 20
-0.1479483711
 30
0.0
 11
-1.4974426616
 21
-0.1554288438
 31
0.0
  0
LINE
  5
111
330
1F
100
AcDbEntity
  8
0
  6
Continuous
 62
     7
370
    25
100
AcDbLine
 10
-1.8196550518
 20
-0.2892768589
 30
0.0
 11
-1.8196550518
 21
-0.1514815833
 31
0.0
  0
LINE
  5
112
330
1F
100
AcDbEntity
  8
0
  6
Continuous
 62
     7
370
    25
100
AcDbLine
 10
-1.7419243835
 20
-0.2892768589
 30
0.0
 11
-1.8196550518
 21
-0.2892768589
 31
0.0
  0
LINE
  5
113
330
1F
100
AcDbEntity
  8
0
  6
Continuous
 62
     7
370
    25
100
AcDbLine
 10
-1.7419243835
 20
-0.2751440101
 30
0.0
 11
-1.7419243835
 21
-0.2892768589
 31
0.0
  0
LINE
  5
114
330
1F
100
AcDbEntity
  8
0
  6
Continuous
 62
     7
370
    25
100
AcDbLine
 10
-1.8072888091
 20
-0.2751440101
 30
0.0
 11
-1.7419243835
 21
-0.2751440101
 31
0.0
  0
LINE
  5
115
330
1F
100
AcDbEntity
  8
0
  6
Continuous
 62
     7
370
    25
100
AcDbLine
 10
-1.8072888091
 20
-0.2221458272
 30
0.0
 11
-1.8072888091
 21
-0.2751440101
 31
0.0
  0
LINE
  5
116
330
1F
100
AcDbEntity
  8
0
  6
Continuous
 62
     7
370
    25
100
AcDbLine
 10
-1.7419243835
 20
-0.2221458272
 30
0.0
 11
-1.8072888091
 21
-0.2221458272
 31
0.0
  0
LINE
  5
117
330
1F
100
AcDbEntity
  8
0
  6
Continuous
 62
     7
370
    25
100
AcDbLine
 10
-1.7419243835
 20
-0.2080129784
 30
0.0
 11
-1.7419243835
 21
-0.2221458272
 31
0.0
  0
LINE
  5
118
330
1F
100
AcDbEntity
  8
0
  6
Continuous
 62
     7
370
    25
100
AcDbLine
 10
-1.8072888091
 20
-0.2080129784
 30
0.0
 11
-1.7419243835
 21
-0.2080129784
 31
0.0
  0
LINE
  5
119
330
1F
100
AcDbEntity
  8
0
  6
Continuous
 62
     7
370
    25
100
AcDbLine
 10
-1.8072888091
 20
-0.1656144321
 30
0.0
 11
-1.8072888091
 21
-0.2080129784
 31
0.0
  0
LINE
  5
11A
330
1F
100
AcDbEntity
  8
0
  6
Continuous
 62
     7
370
    25
100
AcDbLine
 10
-1.7419243835
 20
-0.1656144321
 30
0.0
 11
-1.8072888091
 21
-0.1656144321
 31
0.0
  0
LINE
  5
11B
330
1F
100
AcDbEntity
  8
0
  6
Continuous
 62
     7
370
    25
100
AcDbLine
 10
-1.7419243835
 20
-0.1514815833
 30
0.0
 11
-1.7419243835
 21
-0.1656144321
 31
0.0
  0
LINE
  5
11C
330
1F
100
AcDbEntity
  8
0
  6
Continuous
 62
     7
370
    25
100
AcDbLine
 10
-1.8196550518
 20
-0.1514815833
 30
0.0
 11
-1.7419243835
 21
-0.1514815833
 31
0.0
  0
LINE
  5
11D
330
1F
100
AcDbEntity
  8
0
  6
Continuous
 62
     7
370
    25
100
AcDbLine
 10
-1.9097519628
 20
-0.1514815833
 30
0.0
 11
-1.9079853567
 21
-0.1514815833
 31
0.0
  0
LINE
  5
11E
330
1F
100
AcDbEntity
  8
0
  6
Continuous
 62
     7
370
    25
100
AcDbLine
 10
-1.9751163884
 20
-0.2892768589
 30
0.0
 11
-1.9097519628
 21
-0.1514815833
 31
0.0
  0
LINE
  5
11F
330
1F
100
AcDbEntity
  8
0
  6
Continuous
 62
     7
370
    25
100
AcDbLine
 10
-1.9616184137
 20
-0.2892768589
 30
0.0
 11
-1.9751163884
 21
-0.2892768589
 31
0.0
  0
LINE
  5
120
330
1F
100
AcDbEntity
  8
0
  6
Continuous
 62
     7
370
    25
100
AcDbLine
 10
-1.9406675695
 20
-0.2451117065
 30
0.0
 11
-1.9616184137
 21
-0.2892768589
 31
0.0
  0
LINE
  5
121
330
1F
100
AcDbEntity
  8
0
  6
Continuous
 62
     7
370
    25
100
AcDbLine
 10
-1.878201482
 20
-0.2451117065
 30
0.0
 11
-1.9406675695
 21
-0.2451117065
 31
0.0
  0
LINE
  5
122
330
1F
100
AcDbEntity
  8
0
  6
Continuous
 62
     7
370
    25
100
AcDbLine
 10
-1.8578303055
 20
-0.2892768589
 30
0.0
 11
-1.878201482
 21
-0.2451117065
 31
0.0
  0
LINE
  5
123
330
1F
100
AcDbEntity
  8
0
  6
Continuous
 62
     7
370
    25
100
AcDbLine
 10
-1.8443875372
 20
-0.2892768589
 30
0.0
 11
-1.8578303055
 21
-0.2892768589
 31
0.0
  0
LINE
  5
124
330
1F
100
AcDbEntity
  8
0
  6
Continuous
 62
     7
370
    25
100
AcDbLine
 10
-1.9079853567
 20
-0.1514815833
 30
0.0
 11
-1.8443875372
 21
-0.2892768589
 31
0.0
  0
ARC
  5
125
330
1F
100
AcDbEntity
  8
0
  6
Continuous
 62
     7
370
    25
100
AcDbCircle
 10
-2.3826685223
 20
0.45
 30
0.0
 40
0.0999999999999989
100
AcDbArc
 50
171.8698976458
 51
270.0
  0
ARC
  5
126
330
1F
100
AcDbEntity
  8
0
  6
Continuous
 62
     7
370
    25
100
AcDbCircle
 10
-1.1846990313
 20
0.45
 30
0.0
 40
0.1
100
AcDbArc
 50
270.0
 51
351.8698976458
  0
ARC
  5
127
330
1F
100
AcDbEntity
  8
0
  6
Continuous
 62
     7
370
    25
100
AcDbCircle
 10
-1.0418418884
 20
1.45
 30
0.0
 40
0.1000000000000001
100
AcDbArc
 50
351.8698976458
 51
90.0
  0
ARC
  5
128
330
1F
100
AcDbEntity
  8
0
  6
Continuous
 62
     7
370
    25
100
AcDbCircle
 10
-2.2398113795
 20
1.45
 30
0.0
 40
0.0999999999999992
100
AcDbArc
 50
90.0
 51
171.8698976458
  0
ARC
  5
129
330
1F
100
AcDbEntity
  8
0
  6
Continuous
 62
     7
370
    25
100
AcDbCircle
 10
0.6734590803
 20
0.45
 30
0.0
 40
0.1000000000000004
100
AcDbArc
 50
270.0
 51
0.0
  0
ARC
  5
12A
330
1F
100
AcDbEntity
  8
0
  6
Continuous
 62
     7
370
    25
100
AcDbCircle
 10
0.6734590803
 20
1.45
 30
0.0
 40
0.1000000000000008
100
AcDbArc
 50
0.0
 51
90.0
  0
ARC
  5
12B
330
1F
100
AcDbEntity
  8
0
  6
Continuous
 62
     7
370
    25
100
AcDbCircle
 10
-0.5265409197
 20
1.45
 30
0.0
 40
0.0999999999999996
100
AcDbArc
 50
90.0
 51
180.0
  0
ARC
  5
12C
330
1F
100
AcDbEntity
  8
0
  6
Continuous
 62
     7
370
    25
100
AcDbCircle
 10
-0.5265409197
 20
0.45
 30
0.0
 40
0.1000000000000003
100
AcDbArc
 50
180.0
 51
270.0
  0
ARC
  5
12D
330
1F
100
AcDbEntity
  8
0
  6
Continuous
 62
     7
370
    25
100
AcDbCircle
 10
1.1734590803
 20
0.45
 30
0.0
 40
0.0999999999999999
100
AcDbArc
 50
180.0
 51
270.0
  0
ARC
  5
12E
330
1F
100
AcDbEntity
  8
0
  6
Continuous
 62
     7
370
    25
100
AcDbCircle
 10
2.6539079728
 20
0.45
 30
0.0
 40
0.1000000000000008
100
AcDbArc
 50
270.0
 51
20.0
  0
ARC
  5
12F
330
1F
100
AcDbEntity
  8
0
  6
Continuous
 62
     7
370
    25
100
AcDbCircle
 10
2.2899377385
 20
1.45
 30
0.0
 40
0.0999999999999986
100
AcDbArc
 50
20.0
 51
90.0
  0
ARC
  5
130
330
1F
100
AcDbEntity
  8
0
  6
Continuous
 62
     7
370
    25
100
AcDbCircle
 10
1.1734590803
 20
1.45
 30
0.0
 40
0.1000000000000003
100
AcDbArc
 50
90.0
 51
180.0
  0
ARC
  5
131
330
1F
100
AcDbEntity
  8
0
  6
Continuous
 62
     7
370
    25
100
AcDbCircle
 10
-2.8846990313
 20
-1.65
 30
0.0
 40
0.0999999999999999
100
AcDbArc
 50
171.8698976458
 51
270.0
  0
ARC
  5
132
330
1F
100
AcDbEntity
  8
0
  6
Continuous
 62
     7
370
    25
100
AcDbCircle
 10
-2.4132704598
 20
1.65
 30
0.0
 40
0.1000000000000001
100
AcDbArc
 50
90.0
 51
171.8698976458
  0
ARC
  5
133
330
1F
100
AcDbEntity
  8
0
  6
Continuous
 62
     7
370
    25
100
AcDbCircle
 10
2.4299792462
 20
1.65
 30
0.0
 40
0.1000000000000003
100
AcDbArc
 50
20.0
 51
90.0
  0
ARC
  5
134
330
1F
100
AcDbEntity
  8
0
  6
Continuous
 62
     7
370
    25
100
AcDbCircle
 10
3.2069686638
 20
0.1
 30
0.0
 40
0.0999999999999997
100
AcDbArc
 50
200.0
 51
270.0
  0
ARC
  5
135
330
1F
100
AcDbEntity
  8
0
  6
Continuous
 62
     7
370
    25
100
AcDbCircle
 10
4.9
 20
-0.1
 30
0.0
 40
0.1000000000000008
100
AcDbArc
 50
0.0
 51
90.0
  0
ARC
  5
136
330
1F
100
AcDbEntity
  8
0
  6
Continuous
 62
     7
370
    25
100
AcDbCircle
 10
4.9
 20
-1.65
 30
0.0
 40
0.1000000000000005
100
AcDbArc
 50
270.0
 51
0.0
  0
MTEXT
  5
138
330
1F
100
AcDbEntity
  8
0
  6
Continuous
 62
     7
100
AcDbMText
 10
-2.9846990313
 20
-1.8901404091
 30
0.0
 40
0.1903
 41
0.0
 71
     1
 72
     1
  1
SOLIDWORKS Educational Product.
  7
SLDTEXTSTYLE0
 73
     1
 44
1.0
  0
MTEXT
  5
139
330
1F
100
AcDbEntity
  8
0
  6
Continuous
 62
     7
100
AcDbMText
 10
-2.9846990313
 20
-2.1755904091
 30
0.0
 40
0.1903
 41
0.0
 71
     1
 72
     1
  1
For Instructional Use Only.
  7
SLDTEXTSTYLE0
 73
     1
 44
1.0
  0
ENDSEC
  0
SECTION
  2
OBJECTS
  0
DICTIONARY
  5
C
330
0
100
AcDbDictionary
281
     1
  3
ACAD_GROUP
350
D
  3
ACAD_LAYOUT
350
1A
  3
ACAD_MLINESTYLE
350
17
  3
ACAD_PLOTSETTINGS
350
19
  3
ACAD_PLOTSTYLENAME
350
E
  3
ACAD_SCALELIST
350
47
  0
DICTIONARY
  5
D
102
{ACAD_REACTORS
330
C
102
}
330
C
100
AcDbDictionary
281
     1
  0
DICTIONARY
  5
1A
102
{ACAD_REACTORS
330
C
102
}
330
C
100
AcDbDictionary
281
     1
  3
Layout1
350
1E
  3
Layout2
350
26
  3
Model
350
22
  0
DICTIONARY
  5
17
102
{ACAD_REACTORS
330
C
102
}
330
C
100
AcDbDictionary
281
     1
  3
Standard
350
18
  0
DICTIONARY
  5
19
102
{ACAD_REACTORS
330
C
102
}
330
C
100
AcDbDictionary
281
     1
  0
ACDBDICTIONARYWDFLT
  5
E
102
{ACAD_REACTORS
330
C
102
}
330
C
100
AcDbDictionary
281
     1
  3
Normal
350
F
100
AcDbDictionaryWithDefault
340
F
  0
DICTIONARY
  5
47
102
{ACAD_REACTORS
330
C
102
}
330
C
100
AcDbDictionary
281
     1
  3
A0
350
48
  3
A1
350
49
  3
A2
350
4A
  3
A3
350
4B
  3
A4
350
4C
  3
A5
350
4D
  3
A6
350
4E
  3
A7
350
4F
  3
A8
350
50
  3
A9
350
51
  3
B0
350
52
  3
B1
350
53
  3
B2
350
54
  3
B3
350
55
  3
B4
350
56
  3
B5
350
57
  3
B6
350
58
  3
B7
350
59
  3
B8
350
5A
  3
B9
350
5B
  3
C0
350
5C
  3
C1
350
5D
  3
C2
350
5E
  3
C3
350
5F
  3
C4
350
60
  3
C5
350
61
  3
C6
350
62
  3
C7
350
63
  3
C8
350
64
  3
C9
350
65
  3
D0
350
66
  3
D1
350
67
  3
D2
350
68
  0
LAYOUT
  5
1E
102
{ACAD_REACTORS
330
1A
102
}
330
1A
100
AcDbPlotSettings
  1

  2
none_device
  4

  6

 40
0.0
 41
0.0
 42
0.0
 43
0.0
 44
0.0
 45
0.0
 46
0.0
 47
0.0
 48
0.0
 49
0.0
140
0.0
141
0.0
142
1.0
143
1.0
 70
   688
 72
     0
 73
     0
 74
     5
  7

 75
    16
147
1.0
148
0.0
149
0.0
100
AcDbLayout
  1
Layout1
 70
     1
 71
     1
 10
0.0
 20
0.0
 11
12.0
 21
9.0
 12
0.0
 22
0.0
 32
0.0
 14
1.0000000000E+20
 24
1.0000000000E+20
 34
1.0000000000E+20
 15
-1.0000000000E+20
 25
-1.0000000000E+20
 35
-1.0000000000E+20
146
0.0
 13
0.0
 23
0.0
 33
0.0
 16
1.0
 26
0.0
 36
0.0
 17
0.0
 27
1.0
 37
0.0
 76
     0
330
1B
  0
LAYOUT
  5
26
102
{ACAD_REACTORS
330
1A
102
}
330
1A
100
AcDbPlotSettings
  1

  2
none_device
  4

  6

 40
0.0
 41
0.0
 42
0.0
 43
0.0
 44
0.0
 45
0.0
 46
0.0
 47
0.0
 48
0.0
 49
0.0
140
0.0
141
0.0
142
1.0
143
1.0
 70
   688
 72
     0
 73
     0
 74
     5
  7

 75
    16
147
1.0
148
0.0
149
0.0
100
AcDbLayout
  1
Layout2
 70
     1
 71
     2
 10
0.0
 20
0.0
 11
0.0
 21
0.0
 12
0.0
 22
0.0
 32
0.0
 14
0.0
 24
0.0
 34
0.0
 15
0.0
 25
0.0
 35
0.0
146
0.0
 13
0.0
 23
0.0
 33
0.0
 16
1.0
 26
0.0
 36
0.0
 17
0.0
 27
1.0
 37
0.0
 76
     0
330
23
  0
LAYOUT
  5
22
102
{ACAD_REACTORS
330
1A
102
}
330
1A
100
AcDbPlotSettings
  1

  2
none_device
  4
ANSI_A_(11.00_x_8.50_Inches)
  6

 40
6.35
 41
19.05
 42
6.35000508
 43
19.05000254
 44
279.4
 45
215.9
 46
97.1640530298
 47
90.6106746558
 48
0.0
 49
0.0
140
0.0
141
0.0
142
1.3469889179
143
1.0
 70
  1696
 72
     0
 73
     0
 74
     0
  7

 75
     0
147
0.5913241897
148
-39.4088153714
149
0.0
100
AcDbLayout
  1
Model
 70
     1
 71
     0
 10
0.0
 20
0.0
 11
12.0
 21
9.0
 12
0.0
 22
0.0
 32
0.0
 14
-2.9846990313
 24
-1.85
 34
0.0
 15
5.1
 25
1.75
 35
0.0
146
0.0
 13
0.0
 23
0.0
 33
0.0
 16
1.0
 26
0.0
 36
0.0
 17
0.0
 27
1.0
 37
0.0
 76
     0
330
1F
331
29
  0
MLINESTYLE
  5
18
102
{ACAD_REACTORS
330
17
102
}
330
17
100
AcDbMlineStyle
  2
Standard
 70
     0
  3

 62
   256
 51
90.0
 52
90.0
 71
     2
 49
0.5
 62
   256
  6
BYLAYER
 49
-0.5
 62
   256
  6
BYLAYER
  0
ACDBPLACEHOLDER
  5
F
102
{ACAD_REACTORS
330
E
102
}
330
E
  0
SCALE
  5
48
102
{ACAD_REACTORS
330
47
102
}
330
47
100
AcDbScale
 70
     0
300
1:1
140
1.0
141
1.0
290
     1
  0
SCALE
  5
49
102
{ACAD_REACTORS
330
47
102
}
330
47
100
AcDbScale
 70
     0
300
1:2
140
1.0
141
2.0
290
     0
  0
SCALE
  5
4A
102
{ACAD_REACTORS
330
47
102
}
330
47
100
AcDbScale
 70
     0
300
1:4
140
1.0
141
4.0
290
     0
  0
SCALE
  5
4B
102
{ACAD_REACTORS
330
47
102
}
330
47
100
AcDbScale
 70
     0
300
1:5
140
1.0
141
5.0
290
     0
  0
SCALE
  5
4C
102
{ACAD_REACTORS
330
47
102
}
330
47
100
AcDbScale
 70
     0
300
1:8
140
1.0
141
8.0
290
     0
  0
SCALE
  5
4D
102
{ACAD_REACTORS
330
47
102
}
330
47
100
AcDbScale
 70
     0
300
1:10
140
1.0
141
10.0
290
     0
  0
SCALE
  5
4E
102
{ACAD_REACTORS
330
47
102
}
330
47
100
AcDbScale
 70
     0
300
1:16
140
1.0
141
16.0
290
     0
  0
SCALE
  5
4F
102
{ACAD_REACTORS
330
47
102
}
330
47
100
AcDbScale
 70
     0
300
1:20
140
1.0
141
20.0
290
     0
  0
SCALE
  5
50
102
{ACAD_REACTORS
330
47
102
}
330
47
100
AcDbScale
 70
     0
300
1:30
140
1.0
141
30.0
290
     0
  0
SCALE
  5
51
102
{ACAD_REACTORS
330
47
102
}
330
47
100
AcDbScale
 70
     0
300
1:40
140
1.0
141
40.0
290
     0
  0
SCALE
  5
52
102
{ACAD_REACTORS
330
47
102
}
330
47
100
AcDbScale
 70
     0
300
1:50
140
1.0
141
50.0
290
     0
  0
SCALE
  5
53
102
{ACAD_REACTORS
330
47
102
}
330
47
100
AcDbScale
 70
     0
300
1:100
140
1.0
141
100.0
290
     0
  0
SCALE
  5
54
102
{ACAD_REACTORS
330
47
102
}
330
47
100
AcDbScale
 70
     0
300
2:1
140
2.0
141
1.0
290
     0
  0
SCALE
  5
55
102
{ACAD_REACTORS
330
47
102
}
330
47
100
AcDbScale
 70
     0
300
4:1
140
4.0
141
1.0
290
     0
  0
SCALE
  5
56
102
{ACAD_REACTORS
330
47
102
}
330
47
100
AcDbScale
 70
     0
300
8:1
140
8.0
141
1.0
290
     0
  0
SCALE
  5
57
102
{ACAD_REACTORS
330
47
102
}
330
47
100
AcDbScale
 70
     0
300
10:1
140
10.0
141
1.0
290
     0
  0
SCALE
  5
58
102
{ACAD_REACTORS
330
47
102
}
330
47
100
AcDbScale
 70
     0
300
100:1
140
100.0
141
1.0
290
     0
  0
SCALE
  5
59
102
{ACAD_REACTORS
330
47
102
}
330
47
100
AcDbScale
 70
     0
300
1/128" = 1'-0"
140
0.0078125
141
12.0
290
     0
  0
SCALE
  5
5A
102
{ACAD_REACTORS
330
47
102
}
330
47
100
AcDbScale
 70
     0
300
1/64" = 1'-0"
140
0.015625
141
12.0
290
     0
  0
SCALE
  5
5B
102
{ACAD_REACTORS
330
47
102
}
330
47
100
AcDbScale
 70
     0
300
1/32" = 1'-0"
140
0.03125
141
12.0
290
     0
  0
SCALE
  5
5C
102
{ACAD_REACTORS
330
47
102
}
330
47
100
AcDbScale
 70
     0
300
1/16" = 1'-0"
140
0.0625
141
12.0
290
     0
  0
SCALE
  5
5D
102
{ACAD_REACTORS
330
47
102
}
330
47
100
AcDbScale
 70
     0
300
3/32" = 1'-0"
140
0.09375
141
12.0
290
     0
  0
SCALE
  5
5E
102
{ACAD_REACTORS
330
47
102
}
330
47
100
AcDbScale
 70
     0
300
1/8" = 1'-0"
140
0.125
141
12.0
290
     0
  0
SCALE
  5
5F
102
{ACAD_REACTORS
330
47
102
}
330
47
100
AcDbScale
 70
     0
300
3/16" = 1'-0"
140
0.1875
141
12.0
290
     0
  0
SCALE
  5
60
102
{ACAD_REACTORS
330
47
102
}
330
47
100
AcDbScale
 70
     0
300
1/4" = 1'-0"
140
0.25
141
12.0
290
     0
  0
SCALE
  5
61
102
{ACAD_REACTORS
330
47
102
}
330
47
100
AcDbScale
 70
     0
300
3/8" = 1'-0"
140
0.375
141
12.0
290
     0
  0
SCALE
  5
62
102
{ACAD_REACTORS
330
47
102
}
330
47
100
AcDbScale
 70
     0
300
1/2" = 1'-0"
140
0.5
141
12.0
290
     0
  0
SCALE
  5
63
102
{ACAD_REACTORS
330
47
102
}
330
47
100
AcDbScale
 70
     0
300
3/4" = 1'-0"
140
0.75
141
12.0
290
     0
  0
SCALE
  5
64
102
{ACAD_REACTORS
330
47
102
}
330
47
100
AcDbScale
 70
     0
300
1" = 1'-0"
140
1.0
141
12.0
290
     0
  0
SCALE
  5
65
102
{ACAD_REACTORS
330
47
102
}
330
47
100
AcDbScale
 70
     0
300
1-1/2" = 1'-0"
140
1.5
141
12.0
290
     0
  0
SCALE
  5
66
102
{ACAD_REACTORS
330
47
102
}
330
47
100
AcDbScale
 70
     0
300
3" = 1'-0"
140
3.0
141
12.0
290
     0
  0
SCALE
  5
67
102
{ACAD_REACTORS
330
47
102
}
330
47
100
AcDbScale
 70
     0
300
6" = 1'-0"
140
6.0
141
12.0
290
     0
  0
SCALE
  5
68
102
{ACAD_REACTORS
330
47
102
}
330
47
100
AcDbScale
 70
     0
300
1'-0" = 1'-0"
140
12.0
141
12.0
290
     0
  0
ENDSEC
  0
EOF
