  0
SECTION
  2
HEADER
  9
$ACADVER
  1
AC1015
  9
$ACADMAINTVER
 70
     6
  9
$DWGCODEPAGE
  3
ANSI_1252
  9
$INSBASE
 10
0.0
 20
0.0
 30
0.0
  9
$EXTMIN
 10
-2.4836255077
 20
-1.9145955719
 30
0.0
  9
$EXTMAX
 10
4.3447135169
 20
1.7772799185
 30
0.0
  9
$LIMMIN
 10
0.0
 20
0.0
  9
$LIMMAX
 10
12.0
 20
9.0
  9
$ORTHOMODE
 70
     0
  9
$REGENMODE
 70
     1
  9
$FILLMODE
 70
     1
  9
$QTEXTMODE
 70
     0
  9
$MIRRTEXT
 70
     1
  9
$LTSCALE
 40
1.0
  9
$ATTMODE
 70
     1
  9
$TEXTSIZE
 40
0.1377952756
  9
$TRACEWID
 40
0.05
  9
$TEXTSTYLE
  7
Standard
  9
$CLAYER
  8
0
  9
$CELTYPE
  6
ByLayer
  9
$CECOLOR
 62
   256
  9
$CELTSCALE
 40
1.0
  9
$DISPSILH
 70
     0
  9
$DIMSCALE
 40
1.0
  9
$DIMASZ
 40
0.13
  9
$DIMEXO
 40
0.05
  9
$DIMDLI
 40
0.38
  9
$DIMRND
 40
0.0
  9
$DIMDLE
 40
0.0
  9
$DIMEXE
 40
0.125
  9
$DIMTP
 40
0.0
  9
$DIMTM
 40
0.0
  9
$DIMTXT
 40
0.1377952756
  9
$DIMCEN
 40
0.09
  9
$DIMTSZ
 40
0.0
  9
$DIMTOL
 70
     0
  9
$DIMLIM
 70
     0
  9
$DIMTIH
 70
     1
  9
$DIMTOH
 70
     1
  9
$DIMSE1
 70
     0
  9
$DIMSE2
 70
     0
  9
$DIMTAD
 70
     1
  9
$DIMZIN
 70
     0
  9
$DIMBLK
  1

  9
$DIMASO
 70
     1
  9
$DIMSHO
 70
     1
  9
$DIMPOST
  1

  9
$DIMAPOST
  1

  9
$DIMALT
 70
     0
  9
$DIMALTD
 70
     2
  9
$DIMALTF
 40
25.4
  9
$DIMLFAC
 40
1.0
  9
$DIMTOFL
 70
     0
  9
$DIMTVP
 40
0.0
  9
$DIMTIX
 70
     0
  9
$DIMSOXD
 70
     0
  9
$DIMSAH
 70
     0
  9
$DIMBLK1
  1

  9
$DIMBLK2
  1

  9
$DIMSTYLE
  2
Standard
  9
$DIMCLRD
 70
     0
  9
$DIMCLRE
 70
     0
  9
$DIMCLRT
 70
     0
  9
$DIMTFAC
 40
1.0
  9
$DIMGAP
 40
0.06
  9
$DIMJUST
 70
     0
  9
$DIMSD1
 70
     0
  9
$DIMSD2
 70
     0
  9
$DIMTOLJ
 70
     1
  9
$DIMTZIN
 70
     0
  9
$DIMALTZ
 70
     0
  9
$DIMALTTZ
 70
     0
  9
$DIMUPT
 70
     0
  9
$DIMDEC
 70
     2
  9
$DIMTDEC
 70
     2
  9
$DIMALTU
 70
     2
  9
$DIMALTTD
 70
     2
  9
$DIMTXSTY
  7
Standard
  9
$DIMAUNIT
 70
     0
  9
$DIMADEC
 70
     2
  9
$DIMALTRND
 40
0.0
  9
$DIMAZIN
 70
     0
  9
$DIMDSEP
 70
    46
  9
$DIMATFIT
 70
     3
  9
$DIMFRAC
 70
     0
  9
$DIMLDRBLK
  1

  9
$DIMLUNIT
 70
     2
  9
$DIMLWD
 70
    -2
  9
$DIMLWE
 70
    -2
  9
$DIMTMOVE
 70
     0
  9
$LUNITS
 70
     2
  9
$LUPREC
 70
     2
  9
$SKETCHINC
 40
0.1
  9
$FILLETRAD
 40
0.5
  9
$AUNITS
 70
     0
  9
$AUPREC
 70
     2
  9
$MENU
  1
.
  9
$ELEVATION
 40
0.0
  9
$PELEVATION
 40
0.0
  9
$THICKNESS
 40
0.0
  9
$LIMCHECK
 70
     0
  9
$CHAMFERA
 40
0.0
  9
$CHAMFERB
 40
0.0
  9
$CHAMFERC
 40
0.0
  9
$CHAMFERD
 40
0.0
  9
$SKPOLY
 70
     0
  9
$TDCREATE
 40
2458626.685745162
  9
$TDUCREATE
 40
2458626.894078495
  9
$TDUPDATE
 40
2458626.685763252
  9
$TDUUPDATE
 40
2458626.894096585
  9
$TDINDWG
 40
0.0000000116
  9
$TDUSRTIMER
 40
0.0000000116
  9
$USRTIMER
 70
     1
  9
$ANGBASE
 50
0.0
  9
$ANGDIR
 70
     0
  9
$PDMODE
 70
     0
  9
$PDSIZE
 40
-1.0
  9
$PLINEWID
 40
0.0
  9
$SPLFRAME
 70
     0
  9
$SPLINETYPE
 70
     6
  9
$SPLINESEGS
 70
     8
  9
$HANDSEED
  5
205
  9
$SURFTAB1
 70
     6
  9
$SURFTAB2
 70
     6
  9
$SURFTYPE
 70
     6
  9
$SURFU
 70
     6
  9
$SURFV
 70
     6
  9
$UCSBASE
  2

  9
$UCSNAME
  2

  9
$UCSORG
 10
0.0
 20
0.0
 30
0.0
  9
$UCSXDIR
 10
1.0
 20
0.0
 30
0.0
  9
$UCSYDIR
 10
0.0
 20
1.0
 30
0.0
  9
$UCSORTHOREF
  2

  9
$UCSORTHOVIEW
 70
     0
  9
$UCSORGTOP
 10
0.0
 20
0.0
 30
0.0
  9
$UCSORGBOTTOM
 10
0.0
 20
0.0
 30
0.0
  9
$UCSORGLEFT
 10
0.0
 20
0.0
 30
0.0
  9
$UCSORGRIGHT
 10
0.0
 20
0.0
 30
0.0
  9
$UCSORGFRONT
 10
0.0
 20
0.0
 30
0.0
  9
$UCSORGBACK
 10
0.0
 20
0.0
 30
0.0
  9
$PUCSBASE
  2

  9
$PUCSNAME
  2

  9
$PUCSORG
 10
0.0
 20
0.0
 30
0.0
  9
$PUCSXDIR
 10
1.0
 20
0.0
 30
0.0
  9
$PUCSYDIR
 10
0.0
 20
1.0
 30
0.0
  9
$PUCSORTHOREF
  2

  9
$PUCSORTHOVIEW
 70
     0
  9
$PUCSORGTOP
 10
0.0
 20
0.0
 30
0.0
  9
$PUCSORGBOTTOM
 10
0.0
 20
0.0
 30
0.0
  9
$PUCSORGLEFT
 10
0.0
 20
0.0
 30
0.0
  9
$PUCSORGRIGHT
 10
0.0
 20
0.0
 30
0.0
  9
$PUCSORGFRONT
 10
0.0
 20
0.0
 30
0.0
  9
$PUCSORGBACK
 10
0.0
 20
0.0
 30
0.0
  9
$USERI1
 70
     0
  9
$USERI2
 70
     0
  9
$USERI3
 70
     0
  9
$USERI4
 70
     0
  9
$USERI5
 70
     0
  9
$USERR1
 40
0.0
  9
$USERR2
 40
0.0
  9
$USERR3
 40
0.0
  9
$USERR4
 40
0.0
  9
$USERR5
 40
0.0
  9
$WORLDVIEW
 70
     1
  9
$SHADEDGE
 70
     3
  9
$SHADEDIF
 70
    70
  9
$TILEMODE
 70
     1
  9
$MAXACTVP
 70
    64
  9
$PINSBASE
 10
0.0
 20
0.0
 30
0.0
  9
$PLIMCHECK
 70
     0
  9
$PEXTMIN
 10
1.0000000000E+20
 20
1.0000000000E+20
 30
1.0000000000E+20
  9
$PEXTMAX
 10
-1.0000000000E+20
 20
-1.0000000000E+20
 30
-1.0000000000E+20
  9
$PLIMMIN
 10
0.0
 20
0.0
  9
$PLIMMAX
 10
12.0
 20
9.0
  9
$UNITMODE
 70
     0
  9
$VISRETAIN
 70
     1
  9
$PLINEGEN
 70
     0
  9
$PSLTSCALE
 70
     1
  9
$TREEDEPTH
 70
  3020
  9
$CMLSTYLE
  2
Standard
  9
$CMLJUST
 70
     0
  9
$CMLSCALE
 40
1.0
  9
$PROXYGRAPHICS
 70
     1
  9
$MEASUREMENT
 70
     0
  9
$CELWEIGHT
370
    -1
  9
$ENDCAPS
280
     0
  9
$JOINSTYLE
280
     0
  9
$LWDISPLAY
290
     1
  9
$INSUNITS
 70
     1
  9
$HYPERLINKBASE
  1

  9
$STYLESHEET
  1

  9
$XEDIT
290
     1
  9
$CEPSNTYPE
380
     0
  9
$PSTYLEMODE
290
     1
  9
$FINGERPRINTGUID
  2
{D6E9DF15-2079-4EC5-A084-CCFD9F49CB3A}
  9
$VERSIONGUID
  2
{FAEB1C32-E019-11D5-929B-00C0DF256EC4}
  9
$EXTNAMES
290
     1
  9
$PSVPSCALE
 40
0.0
  9
$OLESTARTUP
290
     0
  0
ENDSEC
  0
SECTION
  2
CLASSES
  0
CLASS
  1
ACDBDICTIONARYWDFLT
  2
AcDbDictionaryWithDefault
  3
ObjectDBX Classes
 90
        0
280
     0
281
     0
  0
CLASS
  1
VISUALSTYLE
  2
AcDbVisualStyle
  3
ObjectDBX Classes
 90
     4095
280
     0
281
     0
  0
CLASS
  1
MATERIAL
  2
AcDbMaterial
  3
ObjectDBX Classes
 90
     1153
280
     0
281
     0
  0
CLASS
  1
SCALE
  2
AcDbScale
  3
ObjectDBX Classes
 90
     1153
280
     0
281
     0
  0
CLASS
  1
TABLESTYLE
  2
AcDbTableStyle
  3
ObjectDBX Classes
 90
     4095
280
     0
281
     0
  0
CLASS
  1
MLEADERSTYLE
  2
AcDbMLeaderStyle
  3
ACDB_MLEADERSTYLE_CLASS
 90
     4095
280
     0
281
     0
  0
CLASS
  1
SUN
  2
AcDbSun
  3
SCENEOE
 90
     1153
280
     0
281
     0
  0
CLASS
  1
ACDBPLACEHOLDER
  2
AcDbPlaceHolder
  3
ObjectDBX Classes
 90
        0
280
     0
281
     0
  0
CLASS
  1
LAYOUT
  2
AcDbLayout
  3
ObjectDBX Classes
 90
        0
280
     0
281
     0
  0
ENDSEC
  0
SECTION
  2
TABLES
  0
TABLE
  2
VPORT
  5
8
330
0
100
AcDbSymbolTable
 70
     1
  0
VPORT
  5
29
330
8
100
AcDbSymbolTableRecord
100
AcDbViewportTableRecord
  2
*Active
 70
     0
 10
0.0
 20
0.0
 11
1.0
 21
1.0
 12
0.9305440046
 22
-0.0686578267
 13
0.0
 23
0.0
 14
0.5
 24
0.5
 15
0.5
 25
0.5
 16
0.0
 26
0.0
 36
1.0
 17
0.0
 27
0.0
 37
0.0
 40
3.7657130003
 41
1.8495583186
 42
50.0
 43
0.0
 44
0.0
 50
0.0
 51
0.0
 71
     0
 72
   100
 73
     1
 74
     3
 75
     0
 76
     0
 77
     0
 78
     0
281
     0
 65
     1
110
0.0
120
0.0
130
0.0
111
1.0
121
0.0
131
0.0
112
0.0
122
1.0
132
0.0
 79
     0
146
0.0
  0
ENDTAB
  0
TABLE
  2
LTYPE
  5
5
330
0
100
AcDbSymbolTable
 70
     6
  0
LTYPE
  5
14
330
5
100
AcDbSymbolTableRecord
100
AcDbLinetypeTableRecord
  2
ByBlock
 70
     0
  3

 72
    65
 73
     0
 40
0.0
  0
LTYPE
  5
15
330
5
100
AcDbSymbolTableRecord
100
AcDbLinetypeTableRecord
  2
ByLayer
 70
     0
  3

 72
    65
 73
     0
 40
0.0
  0
LTYPE
  5
16
330
5
100
AcDbSymbolTableRecord
100
AcDbLinetypeTableRecord
  2
Continuous
 70
     0
  3
Solid line
 72
    65
 73
     0
 40
0.0
  0
LTYPE
  5
6E
330
5
100
AcDbSymbolTableRecord
100
AcDbLinetypeTableRecord
  2
HIDDEN
 70
     0
  3
Hidden __ __ __ __ __ __ __ __ __ __ __ __ __ __
 72
    65
 73
     2
 40
0.075
 49
0.05
 74
     0
 49
-0.025
 74
     0
  0
LTYPE
  5
6F
330
5
100
AcDbSymbolTableRecord
100
AcDbLinetypeTableRecord
  2
PHANTOM
 70
     0
  3
Phantom ______  __  __  ______  __  __  ______
 72
    65
 73
     6
 40
0.5
 49
0.25
 74
     0
 49
-0.05
 74
     0
 49
0.05
 74
     0
 49
-0.05
 74
     0
 49
0.05
 74
     0
 49
-0.05
 74
     0
  0
LTYPE
  5
70
330
5
100
AcDbSymbolTableRecord
100
AcDbLinetypeTableRecord
  2
CENTER
 70
     0
  3
Center ____ _ ____ _ ____ _ ____ _ ____ _ ____
 72
    65
 73
     4
 40
0.4
 49
0.25
 74
     0
 49
-0.05
 74
     0
 49
0.05
 74
     0
 49
-0.05
 74
     0
  0
LTYPE
  5
71
330
5
100
AcDbSymbolTableRecord
100
AcDbLinetypeTableRecord
  2
CENTERX2
 70
     0
  3
Center (2x) ________  __  ________  __  _____
 72
    65
 73
     4
 40
0.8
 49
0.5
 74
     0
 49
-0.1
 74
     0
 49
0.1
 74
     0
 49
-0.1
 74
     0
  0
LTYPE
  5
72
330
5
100
AcDbSymbolTableRecord
100
AcDbLinetypeTableRecord
  2
DOT2
 70
     0
  3
Dot (.5x) ........................................
 72
    65
 73
     2
 40
0.025
 49
0.0
 74
     0
 49
-0.025
 74
     0
  0
ENDTAB
  0
TABLE
  2
LAYER
  5
2
330
0
100
AcDbSymbolTable
 70
     1
  0
LAYER
  5
10
330
2
100
AcDbSymbolTableRecord
100
AcDbLayerTableRecord
  2
0
 70
     0
 62
     7
  6
Continuous
370
    -3
390
F
  0
ENDTAB
  0
TABLE
  2
STYLE
  5
3
330
0
100
AcDbSymbolTable
 70
     2
  0
STYLE
  5
11
330
3
100
AcDbSymbolTableRecord
100
AcDbTextStyleTableRecord
  2
Standard
 70
     0
 40
0.0
 41
1.0
 50
0.0
 71
     0
 42
0.1377952756
  3
txt
  4

  0
STYLE
  5
202
330
3
100
AcDbSymbolTableRecord
100
AcDbTextStyleTableRecord
  2
SLDTEXTSTYLE0
 70
     0
 40
0.0
 41
0.7
 50
0.0
 71
     0
 42
0.1377952756
  3
TXT
  4

  0
ENDTAB
  0
TABLE
  2
VIEW
  5
6
330
0
100
AcDbSymbolTable
 70
     0
  0
ENDTAB
  0
TABLE
  2
UCS
  5
7
330
0
100
AcDbSymbolTable
 70
     0
  0
ENDTAB
  0
TABLE
  2
APPID
  5
9
330
0
100
AcDbSymbolTable
 70
     1
  0
APPID
  5
12
330
9
100
AcDbSymbolTableRecord
100
AcDbRegAppTableRecord
  2
ACAD
 70
     0
  0
ENDTAB
  0
TABLE
  2
DIMSTYLE
  5
A
330
0
100
AcDbSymbolTable
 70
     1
100
AcDbDimStyleTable
  0
DIMSTYLE
105
27
330
A
100
AcDbSymbolTableRecord
100
AcDbDimStyleTableRecord
  2
Standard
 70
     0
178
     0
340
11
  0
ENDTAB
  0
TABLE
  2
BLOCK_RECORD
  5
1
330
0
100
AcDbSymbolTable
 70
     1
  0
BLOCK_RECORD
  5
1F
330
1
100
AcDbSymbolTableRecord
100
AcDbBlockTableRecord
  2
*Model_Space
340
22
  0
BLOCK_RECORD
  5
1B
330
1
100
AcDbSymbolTableRecord
100
AcDbBlockTableRecord
  2
*Paper_Space
340
1E
  0
BLOCK_RECORD
  5
23
330
1
100
AcDbSymbolTableRecord
100
AcDbBlockTableRecord
  2
*Paper_Space0
340
26
  0
ENDTAB
  0
ENDSEC
  0
SECTION
  2
BLOCKS
  0
BLOCK
  5
20
330
1F
100
AcDbEntity
  8
0
100
AcDbBlockBegin
  2
*Model_Space
 70
     0
 10
0.0
 20
0.0
 30
0.0
  3
*Model_Space
  1

  0
ENDBLK
  5
21
330
1F
100
AcDbEntity
  8
0
100
AcDbBlockEnd
  0
BLOCK
  5
1C
330
1B
100
AcDbEntity
 67
     1
  8
0
100
AcDbBlockBegin
  2
*Paper_Space
 70
     0
 10
0.0
 20
0.0
 30
0.0
  3
*Paper_Space
  1

  0
ENDBLK
  5
1D
330
1B
100
AcDbEntity
 67
     1
  8
0
100
AcDbBlockEnd
  0
BLOCK
  5
24
330
23
100
AcDbEntity
  8
0
100
AcDbBlockBegin
  2
*Paper_Space0
 70
     0
 10
0.0
 20
0.0
 30
0.0
  3
*Paper_Space0
  1

  0
ENDBLK
  5
25
330
23
100
AcDbEntity
  8
0
100
AcDbBlockEnd
  0
ENDSEC
  0
SECTION
  2
ENTITIES
  0
LWPOLYLINE
  5
75
330
1F
100
AcDbEntity
  8
0
  6
Continuous
 62
     7
370
    25
100
AcDbPolyline
 90
       17
 70
   128
 43
0.0
 10
-1.1756758719
 20
-1.3295002604
 10
-1.1727515937
 20
-1.3429995119
 10
-1.1657417057
 20
-1.3545309094
 10
-1.1557133999
 20
-1.3623389022
 10
-1.144193395
 20
-1.3652347943
 10
-1.1329355072
 20
-1.3627777122
 10
-1.1236536479
 20
-1.3553417245
 10
-1.1177608961
 20
-1.3440588929
 10
-1.1161543697
 20
-1.3306469261
 10
-1.119078648
 20
-1.3171476747
 10
-1.1260885359
 20
-1.3056162771
 10
-1.1361168417
 20
-1.2978082843
 10
-1.1476368467
 20
-1.2949123922
 10
-1.1588947345
 20
-1.2973694743
 10
-1.1681765938
 20
-1.304805462
 10
-1.1740693456
 20
-1.3160882937
 10
-1.1756758719
 20
-1.3295002604
  0
LWPOLYLINE
  5
76
330
1F
100
AcDbEntity
  8
0
  6
Continuous
 62
     7
370
    25
100
AcDbPolyline
 90
       17
 70
   128
 43
0.0
 10
-0.8185468587
 20
-1.3363802549
 10
-0.8214711369
 20
-1.3228810034
 10
-0.8284810249
 20
-1.3113496059
 10
-0.8385093307
 20
-1.3035416131
 10
-0.8500293356
 20
-1.300645721
 10
-0.8612872235
 20
-1.3031028031
 10
-0.8705690827
 20
-1.3105387908
 10
-0.8764618346
 20
-1.3218216224
 10
-0.8780683609
 20
-1.3352335892
 10
-0.8751440827
 20
-1.3487328406
 10
-0.8681341947
 20
-1.3602642382
 10
-0.8581058889
 20
-1.368072231
 10
-0.846585884
 20
-1.3709681231
 10
-0.8353279961
 20
-1.368511041
 10
-0.8260461369
 20
-1.3610750533
 10
-0.820153385
 20
-1.3497922216
 10
-0.8185468587
 20
-1.3363802549
  0
LWPOLYLINE
  5
77
330
1F
100
AcDbEntity
  8
0
  6
Continuous
 62
     7
370
    25
100
AcDbPolyline
 90
       23
 70
   128
 43
0.0
 10
-0.9298554306
 20
-1.3342359252
 10
-0.9336759634
 20
-1.3117968764
 10
-0.9426356552
 20
-1.2910707386
 10
-0.956008645
 20
-1.2737366203
 10
-0.9727115328
 20
-1.2611988286
 10
-0.9913911499
 20
-1.2544731007
 10
-1.0105341848
 20
-1.2541043153
 10
-1.0285897828
 20
-1.2601223491
 10
-1.0440951865
 20
-1.2720396567
 10
-1.0557942405
 20
-1.2888907689
 10
-1.062739157
 20
-1.3093105086
 10
-1.0643673
 20
-1.3316445901
 10
-1.0605467672
 20
-1.3540836389
 10
-1.0515870755
 20
-1.3748097767
 10
-1.0382140856
 20
-1.392143895
 10
-1.0215111978
 20
-1.4046816867
 10
-1.0028315807
 20
-1.4114074146
 10
-0.9836885458
 20
-1.4117762
 10
-0.9656329479
 20
-1.4057581662
 10
-0.9501275441
 20
-1.3938408586
 10
-0.9384284901
 20
-1.3769897464
 10
-0.9314835737
 20
-1.3565700067
 10
-0.9298554306
 20
-1.3342359252
  0
LWPOLYLINE
  5
78
330
1F
100
AcDbEntity
  8
0
  6
Continuous
 62
     7
370
    25
100
AcDbPolyline
 90
       17
 70
   128
 43
0.0
 10
-1.6924259237
 20
-0.4264596386
 10
-1.694491092
 20
-0.4169262689
 10
-1.6994415778
 20
-0.4087826266
 10
-1.7065237147
 20
-0.4032685073
 10
-1.7146593114
 20
-0.4012233858
 10
-1.7226097972
 20
-0.4029586132
 10
-1.7291647825
 20
-0.408210017
 10
-1.7333263304
 20
-0.4161781184
 10
-1.7344608829
 20
-0.4256498464
 10
-1.7323957147
 20
-0.435183216
 10
-1.7274452288
 20
-0.4433268584
 10
-1.720363092
 20
-0.4488409776
 10
-1.7122274953
 20
-0.4508860991
 10
-1.7042770095
 20
-0.4491508717
 10
-1.6977220241
 20
-0.4438994679
 10
-1.6935604762
 20
-0.4359313665
 10
-1.6924259237
 20
-0.4264596386
  0
LWPOLYLINE
  5
85
330
1F
100
AcDbEntity
  8
0
  6
Continuous
 62
     7
370
    25
100
AcDbPolyline
 90
       20
 70
   128
 43
0.0
 10
4.2736691409
 20
-0.9631297106
 10
4.2701725563
 20
-0.9446966705
 10
4.2618620212
 20
-0.9281610972
 10
4.2496381111
 20
-0.9153148768
 10
4.2348254763
 20
-0.9075500965
 10
4.2190292955
 20
-0.9057081907
 10
4.2039613302
 20
-0.9099887586
 10
4.1912544281
 20
-0.9199279341
 10
4.1822855792
 20
-0.9344486534
 10
4.1780266976
 20
-0.9519773712
 10
4.178939299
 20
-0.970614579
 10
4.184924489
 20
-0.9883406462
 10
4.1953336794
 20
-1.0032346782
 10
4.2090388728
 20
-1.0136826757
 10
4.224554899
 20
-1.0185524359
 10
4.2402003557
 20
-1.0173162448
 10
4.2542798149
 20
-1.0101080629
 10
4.2652675487
 20
-0.9977090086
 10
4.2719728658
 20
-0.9814627117
 10
4.2736691409
 20
-0.9631297106
  0
LWPOLYLINE
  5
86
330
1F
100
AcDbEntity
  8
0
  6
Continuous
 62
     7
370
    25
100
AcDbPolyline
 90
       20
 70
   128
 43
0.0
 10
-0.9277915296
 20
-1.7708952981
 10
-0.9312881141
 20
-1.752462258
 10
-0.9395986492
 20
-1.7359266847
 10
-0.9518225593
 20
-1.7230804643
 10
-0.9666351941
 20
-1.715315684
 10
-0.9824313749
 20
-1.7134737782
 10
-0.9974993402
 20
-1.717754346
 10
-1.0102062423
 20
-1.7276935216
 10
-1.0191750912
 20
-1.7422142409
 10
-1.0234339729
 20
-1.7597429587
 10
-1.0225213714
 20
-1.7783801665
 10
-1.0165361814
 20
-1.7961062337
 10
-1.006126991
 20
-1.8110002657
 10
-0.9924217976
 20
-1.8214482631
 10
-0.9769057714
 20
-1.8263180234
 10
-0.9612603148
 20
-1.8250818323
 10
-0.9471808556
 20
-1.8178736504
 10
-0.9361931217
 20
-1.805474596
 10
-0.9294878047
 20
-1.7892282992
 10
-0.9277915296
 20
-1.7708952981
  0
LWPOLYLINE
  5
87
330
1F
100
AcDbEntity
  8
0
  6
Continuous
 62
     7
370
    25
100
AcDbPolyline
 90
       20
 70
   128
 43
0.0
 10
1.0898865113
 20
-1.8097653237
 10
1.0863899268
 20
-1.7913322836
 10
1.0780793917
 20
-1.7747967103
 10
1.0658554816
 20
-1.7619504899
 10
1.0510428467
 20
-1.7541857095
 10
1.035246666
 20
-1.7523438038
 10
1.0201787007
 20
-1.7566243716
 10
1.0074717986
 20
-1.7665635471
 10
0.9985029497
 20
-1.7810842664
 10
0.994244068
 20
-1.7986129843
 10
0.9951566695
 20
-1.8172501921
 10
1.0011418595
 20
-1.8349762592
 10
1.0115510498
 20
-1.8498702913
 10
1.0252562433
 20
-1.8603182887
 10
1.0407722695
 20
-1.8651880489
 10
1.0564177261
 20
-1.8639518579
 10
1.0704971853
 20
-1.856743676
 10
1.0814849192
 20
-1.8443446216
 10
1.0881902362
 20
-1.8280983247
 10
1.0898865113
 20
-1.8097653237
  0
LWPOLYLINE
  5
88
330
1F
100
AcDbEntity
  8
0
  6
Continuous
 62
     7
370
    25
100
AcDbPolyline
 90
       20
 70
   128
 43
0.0
 10
3.2336694298
 20
-1.8510647259
 10
3.2301728452
 20
-1.8326316857
 10
3.2218623102
 20
-1.8160961125
 10
3.2096384
 20
-1.803249892
 10
3.1948257652
 20
-1.7954851117
 10
3.1790295845
 20
-1.793643206
 10
3.1639616191
 20
-1.7979237738
 10
3.151254717
 20
-1.8078629493
 10
3.1422858681
 20
-1.8223836686
 10
3.1380269865
 20
-1.8399123865
 10
3.1389395879
 20
-1.8585495943
 10
3.1449247779
 20
-1.8762756614
 10
3.1553339683
 20
-1.8911696934
 10
3.1690391617
 20
-1.9016176909
 10
3.1845551879
 20
-1.9064874511
 10
3.2002006446
 20
-1.9052512601
 10
3.2142801038
 20
-1.8980430782
 10
3.2252678376
 20
-1.8856440238
 10
3.2319731547
 20
-1.8693977269
 10
3.2336694298
 20
-1.8510647259
  0
SPLINE
  5
BE
330
1F
100
AcDbEntity
  8
0
  6
Continuous
 62
     7
370
    25
100
AcDbSpline
210
0.0
220
0.0
230
1.0
 70
     8
 71
     3
 72
    19
 73
    15
 74
     0
 42
0.000000001
 43
0.00000001
 40
0.0
 40
0.0
 40
0.0
 40
0.0
 40
0.0978181896147148
 40
0.1997260534018268
 40
0.3052763574779411
 40
0.415811490538291
 40
0.4744722311435587
 40
0.5372738797760956
 40
0.6036574205596561
 40
0.6742988630901264
 40
0.7498344853162274
 40
0.8285984767571
 40
0.912377778157779
 40
1.0
 40
1.0
 40
1.0
 40
1.0
 10
-1.356161597871191
 20
-0.2353208418867019
 30
0.0
 10
-1.356191512680366
 20
-0.2339120898566174
 30
0.0
 10
-1.356252593004981
 20
-0.2310356873766815
 30
0.0
 10
-1.355908536942059
 20
-0.2266876823211018
 30
0.0
 10
-1.355231122548871
 20
-0.2222450293152722
 30
0.0
 10
-1.354413168567895
 20
-0.2184808318512832
 30
0.0
 10
-1.353504943559717
 20
-0.2154017703125342
 30
0.0
 10
-1.352745150747164
 20
-0.2129198508501803
 30
0.0
 10
-1.351773065134297
 20
-0.210369449838133
 30
0.0
 10
-1.350736058207557
 20
-0.2076596315191893
 30
0.0
 10
-1.349525293153303
 20
-0.20486284423108
 30
0.0
 10
-1.34820347495976
 20
-0.2019307472487829
 30
0.0
 10
-1.346727745381961
 20
-0.1989112027905154
 30
0.0
 10
-1.345689871692131
 20
-0.1968627939622564
 30
0.0
 10
-1.345159299985568
 20
-0.1958156262978308
 30
0.0
  0
SPLINE
  5
BF
330
1F
100
AcDbEntity
  8
0
  6
Continuous
 62
     7
370
    25
100
AcDbSpline
210
0.0
220
0.0
230
1.0
 70
     8
 71
     3
 72
    19
 73
    15
 74
     0
 42
0.000000001
 43
0.00000001
 40
0.0
 40
0.0
 40
0.0
 40
0.0
 40
0.0843347219926266
 40
0.1670523184160743
 40
0.2495660772409633
 40
0.3327404818018427
 40
0.4159148863627269
 40
0.4978280095399945
 40
0.5803725886080503
 40
0.6646001210565018
 40
0.7494666931126165
 40
0.8325102339401402
 40
0.9156392816681738
 40
1.0
 40
1.0
 40
1.0
 40
1.0
 10
-1.319033489585819
 20
-0.2776706575369104
 30
0.0
 10
-1.320595240928444
 20
-0.2775808674703112
 30
0.0
 10
-1.323688796896976
 20
-0.2774030090693854
 30
0.0
 10
-1.328282616667382
 20
-0.2762610156137034
 30
0.0
 10
-1.332730761699857
 20
-0.2744677912371046
 30
0.0
 10
-1.33700220568222
 20
-0.2720330750489166
 30
0.0
 10
-1.340997867892014
 20
-0.2689846999601105
 30
0.0
 10
-1.344617598136875
 20
-0.2653378473921773
 30
0.0
 10
-1.347840474447335
 20
-0.2611693839280818
 30
0.0
 10
-1.350582286734601
 20
-0.2564815688007687
 30
0.0
 10
-1.352820873725235
 20
-0.2514577150500095
 30
0.0
 10
-1.35457113780738
 20
-0.2462304596658085
 30
0.0
 10
-1.355708864116363
 20
-0.2408211189312081
 30
0.0
 10
-1.356009948590617
 20
-0.237163233905996
 30
0.0
 10
-1.356161597871191
 20
-0.2353208418867019
 30
0.0
  0
SPLINE
  5
C0
330
1F
100
AcDbEntity
  8
0
  6
Continuous
 62
     7
370
    25
100
AcDbSpline
210
0.0
220
0.0
230
1.0
 70
     8
 71
     3
 72
    19
 73
    15
 74
     0
 42
0.000000001
 43
0.00000001
 40
0.0
 40
0.0
 40
0.0
 40
0.0
 40
0.0859479431441274
 40
0.1691252118806908
 40
0.2503991071860497
 40
0.3322897361388348
 40
0.4133642879158812
 40
0.4941722833711889
 40
0.5760217353866356
 40
0.6607569692540073
 40
0.7457831259137413
 40
0.8300435929752217
 40
0.91402754582068
 40
0.9999999999999999
 40
0.9999999999999999
 40
0.9999999999999999
 40
0.9999999999999999
 10
-1.284884833954275
 20
-0.2364474492238574
 30
0.0
 10
-1.284838149324097
 20
-0.238361868575834
 30
0.0
 10
-1.284746285020176
 20
-0.2421289927987905
 30
0.0
 10
-1.285401060281867
 20
-0.2476005611865348
 30
0.0
 10
-1.286580121702244
 20
-0.2528024566826876
 30
0.0
 10
-1.288392215981166
 20
-0.2576491689745463
 30
0.0
 10
-1.290718085589254
 20
-0.2621363049002124
 30
0.0
 10
-1.293628467809232
 20
-0.266095819673261
 30
0.0
 10
-1.297009143374441
 20
-0.2696120211581171
 30
0.0
 10
-1.300883377860218
 20
-0.2725321759953405
 30
0.0
 10
-1.305090886559955
 20
-0.274896871069122
 30
0.0
 10
-1.309550916798187
 20
-0.2765676343379411
 30
0.0
 10
-1.314218637401796
 20
-0.2775592389472821
 30
0.0
 10
-1.31741606880403
 20
-0.2776332294424529
 30
0.0
 10
-1.319033489585819
 20
-0.2776706575369104
 30
0.0
  0
SPLINE
  5
C1
330
1F
100
AcDbEntity
  8
0
  6
Continuous
 62
     7
370
    25
100
AcDbSpline
210
0.0
220
0.0
230
1.0
 70
     8
 71
     3
 72
    23
 73
    19
 74
     0
 42
0.000000001
 43
0.00000001
 40
0.0
 40
0.0
 40
0.0
 40
0.0
 40
0.0652308037420312
 40
0.1284048960032227
 40
0.1900670715964771
 40
0.2509433657682786
 40
0.3115458328521423
 40
0.3728628021568293
 40
0.4350236738562401
 40
0.4990717247070436
 40
0.5630910750496627
 40
0.6255101063303736
 40
0.6866800359296498
 40
0.7472825030135115
 40
0.8085634952159583
 40
0.8707421035159855
 40
0.9343409515059119
 40
1.0
 40
1.0
 40
1.0
 40
1.0
 10
-1.321238512807362
 20
-0.1952355900231714
 30
0.0
 10
-1.320059289563701
 20
-0.1952956604413721
 30
0.0
 10
-1.317738023700326
 20
-0.195413907272002
 30
0.0
 10
-1.314307549845469
 20
-0.1960458438636047
 30
0.0
 10
-1.310994088925905
 20
-0.1970013993754284
 30
0.0
 10
-1.307807160949657
 20
-0.1983626622153069
 30
0.0
 10
-1.30473788613029
 20
-0.2000822563863442
 30
0.0
 10
-1.301770637586898
 20
-0.2021294795645355
 30
0.0
 10
-1.298954322559774
 20
-0.2046061488721032
 30
0.0
 10
-1.296261493189238
 20
-0.2073640418049164
 30
0.0
 10
-1.293790190216002
 20
-0.2104088000446198
 30
0.0
 10
-1.291576394117965
 20
-0.2136316039300903
 30
0.0
 10
-1.289683095384144
 20
-0.2170279267237544
 30
0.0
 10
-1.288107186945993
 20
-0.2205961265224711
 30
0.0
 10
-1.286836232034846
 20
-0.2243309894184325
 30
0.0
 10
-1.285852199320584
 20
-0.2282281155305217
 30
0.0
 10
-1.285184442396613
 20
-0.232289613627417
 30
0.0
 10
-1.284985759018778
 20
-0.2350468550934302
 30
0.0
 10
-1.284884833954275
 20
-0.2364474492238574
 30
0.0
  0
SPLINE
  5
C2
330
1F
100
AcDbEntity
  8
0
  6
Continuous
 62
     7
370
    25
100
AcDbSpline
210
0.0
220
0.0
230
1.0
 70
     8
 71
     3
 72
     9
 73
     5
 74
     0
 42
0.000000001
 43
0.00000001
 40
0.0
 40
0.0
 40
0.0
 40
0.0
 40
0.512659336341778
 40
0.9999999999999999
 40
0.9999999999999999
 40
0.9999999999999999
 40
0.9999999999999999
 10
-1.333171576343553
 20
-0.1963204781046869
 30
0.0
 10
-1.331152490851429
 20
-0.1959759711611442
 30
0.0
 10
-1.32721403630863
 20
-0.1953039714156582
 30
0.0
 10
-1.323196447300762
 20
-0.1952579958068701
 30
0.0
 10
-1.321238512807362
 20
-0.1952355900231714
 30
0.0
  0
SPLINE
  5
C5
330
1F
100
AcDbEntity
  8
0
  6
Continuous
 62
     7
370
    25
100
AcDbSpline
210
0.0
220
0.0
230
1.0
 70
     8
 71
     3
 72
    15
 73
    11
 74
     0
 42
0.000000001
 43
0.00000001
 40
0.0
 40
0.0
 40
0.0
 40
0.0
 40
0.1219040408698849
 40
0.2394126076020058
 40
0.3554101042801786
 40
0.4720907288033021
 40
0.5928589821563587
 40
0.7187034677136864
 40
0.854892382951527
 40
1.0
 40
1.0
 40
1.0
 40
1.0
 10
-1.381705711517041
 20
-0.1681860660599235
 30
0.0
 10
-1.381680474849635
 20
-0.1696702097405935
 30
0.0
 10
-1.381630911469226
 20
-0.1725849835750763
 30
0.0
 10
-1.382207150115005
 20
-0.1768215678207725
 30
0.0
 10
-1.383333246199613
 20
-0.1807778176163632
 30
0.0
 10
-1.384952953410847
 20
-0.1844999550451554
 30
0.0
 10
-1.387134165654435
 20
-0.1879186020031522
 30
0.0
 10
-1.389843346140896
 20
-0.191078411372462
 30
0.0
 10
-1.393056347178021
 20
-0.1940062340751602
 30
0.0
 10
-1.395497766028773
 20
-0.1956463888453806
 30
0.0
 10
-1.396757178893804
 20
-0.1964924673532206
 30
0.0
  0
SPLINE
  5
C6
330
1F
100
AcDbEntity
  8
0
  6
Continuous
 62
     7
370
    25
100
AcDbSpline
210
0.0
220
0.0
230
1.0
 70
     8
 71
     3
 72
    19
 73
    15
 74
     0
 42
0.000000001
 43
0.00000001
 40
0.0
 40
0.0
 40
0.0
 40
0.0
 40
0.0894097111101365
 40
0.1763057644831087
 40
0.2626259021834197
 40
0.3494457264756552
 40
0.4354982637429572
 40
0.518928130103716
 40
0.6013546565787428
 40
0.6842564217184183
 40
0.7658067397968339
 40
0.8448768657103886
 40
0.9222797948488743
 40
1.0
 40
1.0
 40
1.0
 40
1.0
 10
-1.416327182542982
 20
-0.1320475495365208
 30
0.0
 10
-1.414851408301013
 20
-0.132132485099894
 30
0.0
 10
-1.411941349620538
 20
-0.1322999683547484
 30
0.0
 10
-1.407626287242511
 20
-0.1333123933543423
 30
0.0
 10
-1.403465047420458
 20
-0.134944695915757
 30
0.0
 10
-1.39947511644889
 20
-0.1371271965802293
 30
0.0
 10
-1.395729288556868
 20
-0.139792938079287
 30
0.0
 10
-1.392377954484176
 20
-0.1429985706440286
 30
0.0
 10
-1.389380978672597
 20
-0.1465779215511832
 30
0.0
 10
-1.386851506188378
 20
-0.1505693388904952
 30
0.0
 10
-1.384722127424637
 20
-0.1547782572998134
 30
0.0
 10
-1.383167876104458
 20
-0.1591690246780895
 30
0.0
 10
-1.382090333038463
 20
-0.1636493142005727
 30
0.0
 10
-1.381834093387968
 20
-0.1666717548235557
 30
0.0
 10
-1.38170571151704
 20
-0.1681860660599234
 30
0.0
  0
SPLINE
  5
C7
330
1F
100
AcDbEntity
  8
0
  6
Continuous
 62
     7
370
    25
100
AcDbSpline
210
0.0
220
0.0
230
1.0
 70
     8
 71
     3
 72
    19
 73
    15
 74
     0
 42
0.000000001
 43
0.00000001
 40
0.0
 40
0.0
 40
0.0
 40
0.0
 40
0.074058426273383
 40
0.1488703523168793
 40
0.2266676683691787
 40
0.3077347594511144
 40
0.3911572038059803
 40
0.4739293555425551
 40
0.5579277515150566
 40
0.6449892900513607
 40
0.7333640555176181
 40
0.821092042184163
 40
0.9092872149973377
 40
0.9999999999999999
 40
0.9999999999999999
 40
0.9999999999999999
 40
0.9999999999999999
 10
-1.448557800462529
 20
-0.1665147023779461
 30
0.0
 10
-1.448575088510061
 20
-0.1650572428533402
 30
0.0
 10
-1.448609840500569
 20
-0.1621274950334938
 30
0.0
 10
-1.447943680484447
 20
-0.1577801438972533
 30
0.0
 10
-1.446719751435252
 20
-0.1535212653197783
 30
0.0
 10
-1.444974629688438
 20
-0.1493709110511023
 30
0.0
 10
-1.442738931837198
 20
-0.1454700975263147
 30
0.0
 10
-1.439998101897666
 20
-0.1419856804757379
 30
0.0
 10
-1.436820161322699
 20
-0.1389483925594803
 30
0.0
 10
-1.433218848072319
 20
-0.1364167989216173
 30
0.0
 10
-1.429309875219354
 20
-0.1343752781691099
 30
0.0
 10
-1.425147643109444
 20
-0.1329951767975559
 30
0.0
 10
-1.420813315555367
 20
-0.1321240157697115
 30
0.0
 10
-1.417836523460864
 20
-0.1320732762847631
 30
0.0
 10
-1.416327182542982
 20
-0.1320475495365208
 30
0.0
  0
SPLINE
  5
C8
330
1F
100
AcDbEntity
  8
0
  6
Continuous
 62
     7
370
    25
100
AcDbSpline
210
0.0
220
0.0
230
1.0
 70
     8
 71
     3
 72
    15
 73
    11
 74
     0
 42
0.000000001
 43
0.00000001
 40
0.0
 40
0.0
 40
0.0
 40
0.0
 40
0.1458600603916649
 40
0.282425903075821
 40
0.4108504003575506
 40
0.5350294213479281
 40
0.6547010781259408
 40
0.770133432596504
 40
0.8845558441988611
 40
1.0
 40
1.0
 40
1.0
 40
1.0
 10
-1.430220237742011
 20
-0.1958478105114843
 30
0.0
 10
-1.431606131022228
 20
-0.1949563591357061
 30
0.0
 10
-1.434289608323559
 20
-0.1932302597554077
 30
0.0
 10
-1.437884925226564
 20
-0.1900845474101025
 30
0.0
 10
-1.441006921679794
 20
-0.1866924118765936
 30
0.0
 10
-1.443577720541946
 20
-0.1829849937927716
 30
0.0
 10
-1.445649756428787
 20
-0.1790755518937546
 30
0.0
 10
-1.447140052162383
 20
-0.1749898949655701
 30
0.0
 10
-1.44821807507431
 20
-0.1707999836113417
 30
0.0
 10
-1.448444223593895
 20
-0.1679473560464122
 30
0.0
 10
-1.448557800462529
 20
-0.1665147023779461
 30
0.0
  0
SPLINE
  5
C9
330
1F
100
AcDbEntity
  8
0
  6
Continuous
 62
     7
370
    25
100
AcDbSpline
210
0.0
220
0.0
230
1.0
 70
     8
 71
     3
 72
    23
 73
    19
 74
     0
 42
0.000000001
 43
0.00000001
 40
0.0
 40
0.0
 40
0.0
 40
0.0
 40
0.0588535860286683
 40
0.116315458963352
 40
0.1726748434114564
 40
0.2287803868808992
 40
0.2845803591252751
 40
0.3402565063845449
 40
0.3966298050124583
 40
0.4535072628751912
 40
0.5123181897799952
 40
0.5726484440568302
 40
0.6360219358218023
 40
0.7023629463891908
 40
0.7714830560569322
 40
0.844184477489902
 40
0.9200697939721528
 40
1.0
 40
1.0
 40
1.0
 40
1.0
 10
-1.451241586225625
 20
-0.2329139372323551
 30
0.0
 10
-1.451269485623147
 20
-0.2319539308148242
 30
0.0
 10
-1.451324624680028
 20
-0.2300566192897714
 30
0.0
 10
-1.451200297066875
 20
-0.2272575023374137
 30
0.0
 10
-1.450913314166828
 20
-0.2245362627939381
 30
0.0
 10
-1.450472530860072
 20
-0.2218826583482168
 30
0.0
 10
-1.449824682779011
 20
-0.2193170957864309
 30
0.0
 10
-1.449012749901183
 20
-0.2168265317506876
 30
0.0
 10
-1.448042209257313
 20
-0.214408031290717
 30
0.0
 10
-1.446898508921869
 20
-0.2120485465622033
 30
0.0
 10
-1.445544543580102
 20
-0.2097821620260606
 30
0.0
 10
-1.443994110144194
 20
-0.2075697063611289
 30
0.0
 10
-1.442212319039994
 20
-0.2054466457043239
 30
0.0
 10
-1.440221460734129
 20
-0.2033861922953122
 30
0.0
 10
-1.438047287177555
 20
-0.2013506189438652
 30
0.0
 10
-1.435625178197788
 20
-0.1994534428086032
 30
0.0
 10
-1.433028613456018
 20
-0.1975556333946103
 30
0.0
 10
-1.431172424875226
 20
-0.1964268523280802
 30
0.0
 10
-1.430220237742011
 20
-0.1958478105114843
 30
0.0
  0
SPLINE
  5
CA
330
1F
100
AcDbEntity
  8
0
  6
Continuous
 62
     7
370
    25
100
AcDbSpline
210
0.0
220
0.0
230
1.0
 70
     8
 71
     3
 72
    23
 73
    19
 74
     0
 42
0.000000001
 43
0.00000001
 40
0.0
 40
0.0
 40
0.0
 40
0.0
 40
0.0785564333527019
 40
0.1528628401420926
 40
0.2235596934382898
 40
0.2903749439782113
 40
0.3554030728222046
 40
0.4182911570440954
 40
0.4803885637756458
 40
0.5430726152062808
 40
0.6049239444620957
 40
0.6643983091132991
 40
0.7219425547367035
 40
0.7783748910546741
 40
0.8338299406509401
 40
0.8888612363188847
 40
0.9440889395778864
 40
0.9999999999999999
 40
0.9999999999999999
 40
0.9999999999999999
 40
0.9999999999999999
 10
-1.409977822197557
 20
-0.2759186393935231
 30
0.0
 10
-1.411536096596112
 20
-0.2758435950961506
 30
0.0
 10
-1.414568340298092
 20
-0.2756975665158902
 30
0.0
 10
-1.419004746606777
 20
-0.2750184902086171
 30
0.0
 10
-1.423164008222253
 20
-0.2738980760328183
 30
0.0
 10
-1.42706691678992
 20
-0.2723990837538736
 30
0.0
 10
-1.430692563778423
 20
-0.2704770323155155
 30
0.0
 10
-1.434032088015905
 20
-0.2681073797621432
 30
0.0
 10
-1.437127493206529
 20
-0.2653821082216998
 30
0.0
 10
-1.439892557957441
 20
-0.2622263217344667
 30
0.0
 10
-1.442375242985901
 20
-0.2588554856675503
 30
0.0
 10
-1.444581074782241
 20
-0.2553847452193794
 30
0.0
 10
-1.446448056073372
 20
-0.2518149818059296
 30
0.0
 10
-1.448057905595165
 20
-0.2481973131133798
 30
0.0
 10
-1.449336560842853
 20
-0.2444828946219922
 30
0.0
 10
-1.450281875329068
 20
-0.2406907517267637
 30
0.0
 10
-1.450953530576976
 20
-0.236826326529074
 30
0.0
 10
-1.451145174889288
 20
-0.2342234018518959
 30
0.0
 10
-1.451241586225625
 20
-0.2329139372323551
 30
0.0
  0
SPLINE
  5
CB
330
1F
100
AcDbEntity
  8
0
  6
Continuous
 62
     7
370
    25
100
AcDbSpline
210
0.0
220
0.0
230
1.0
 70
     8
 71
     3
 72
    15
 73
    11
 74
     0
 42
0.000000001
 43
0.00000001
 40
0.0
 40
0.0
 40
0.0
 40
0.0
 40
0.1192834503733727
 40
0.2370928820686317
 40
0.3547960442151264
 40
0.4745763009408493
 40
0.5974600658149747
 40
0.724926154615616
 40
0.8588831991927665
 40
1.0
 40
1.0
 40
1.0
 40
1.0
 10
-1.379965566398014
 20
-0.2614864655773277
 30
0.0
 10
-1.38082832752122
 20
-0.2626650703628854
 30
0.0
 10
-1.382543188389156
 20
-0.2650077155877936
 30
0.0
 10
-1.385529174717861
 20
-0.268034610838614
 30
0.0
 10
-1.388845085041616
 20
-0.270562842987088
 30
0.0
 10
-1.392476976772871
 20
-0.272605335271273
 30
0.0
 10
-1.39641430668682
 20
-0.274173677602418
 30
0.0
 10
-1.400655945440999
 20
-0.2752734664745032
 30
0.0
 10
-1.405212336814955
 20
-0.2758624347319927
 30
0.0
 10
-1.4083620000794
 20
-0.2758995822087973
 30
0.0
 10
-1.409977822197557
 20
-0.2759186393935231
 30
0.0
  0
SPLINE
  5
CC
330
1F
100
AcDbEntity
  8
0
  6
Continuous
 62
     7
370
    25
100
AcDbSpline
210
0.0
220
0.0
230
1.0
 70
     8
 71
     3
 72
    15
 73
    11
 74
     0
 42
0.000000001
 43
0.00000001
 40
0.0
 40
0.0
 40
0.0
 40
0.0
 40
0.1281581855276746
 40
0.2536731361531697
 40
0.3773253059734887
 40
0.4993845547646085
 40
0.6229183680423453
 40
0.7458393931045757
 40
0.8713952850140323
 40
0.9999999999999999
 40
0.9999999999999999
 40
0.9999999999999999
 40
0.9999999999999999
 10
-1.372581861401726
 20
-0.2333062584314202
 30
0.0
 10
-1.372542869228347
 20
-0.2346234994904993
 30
0.0
 10
-1.372465689086745
 20
-0.2372308137962575
 30
0.0
 10
-1.372717391007877
 20
-0.2410720191432883
 30
0.0
 10
-1.373193399638213
 20
-0.2447981727988162
 30
0.0
 10
-1.373978273163841
 20
-0.2484068268546526
 30
0.0
 10
-1.375055361606049
 20
-0.2518783062354135
 30
0.0
 10
-1.376428806892672
 20
-0.2552155205067385
 30
0.0
 10
-1.378008888769189
 20
-0.258475327802061
 30
0.0
 10
-1.379308145376858
 20
-0.2604747581596645
 30
0.0
 10
-1.379965566398014
 20
-0.2614864655773277
 30
0.0
  0
SPLINE
  5
CD
330
1F
100
AcDbEntity
  8
0
  6
Continuous
 62
     7
370
    25
100
AcDbSpline
210
0.0
220
0.0
230
1.0
 70
     8
 71
     3
 72
    23
 73
    19
 74
     0
 42
0.000000001
 43
0.00000001
 40
0.0
 40
0.0
 40
0.0
 40
0.0
 40
0.0795248295850151
 40
0.1550999763495357
 40
0.2272198200732676
 40
0.2959105041914705
 40
0.3620558809471796
 40
0.4255201169126359
 40
0.4858127192253065
 40
0.5444947060018098
 40
0.6014596357222257
 40
0.6578405937966478
 40
0.7139744721931369
 40
0.7694679515974521
 40
0.8261299671813285
 40
0.8828853593090691
 40
0.940700881666202
 40
1.0
 40
1.0
 40
1.0
 40
1.0
 10
-1.396757178893804
 20
-0.1964924673532206
 30
0.0
 10
-1.395780354584348
 20
-0.1970948758528793
 30
0.0
 10
-1.393875220953948
 20
-0.1982697736116976
 30
0.0
 10
-1.391151517640163
 20
-0.2001549389582931
 30
0.0
 10
-1.388649766618795
 20
-0.2021346748667986
 30
0.0
 10
-1.386307654587815
 20
-0.2041189494371969
 30
0.0
 10
-1.384161020499163
 20
-0.2061813357620692
 30
0.0
 10
-1.382232365501675
 20
-0.2083294370712191
 30
0.0
 10
-1.380479187326825
 20
-0.2105113810592112
 30
0.0
 10
-1.378932935287905
 20
-0.2127629379413562
 30
0.0
 10
-1.377556468089358
 20
-0.2150789206680814
 30
0.0
 10
-1.376347993641968
 20
-0.2174653729487112
 30
0.0
 10
-1.375294865047542
 20
-0.219917359494135
 30
0.0
 10
-1.374430843490454
 20
-0.2224607738230463
 30
0.0
 10
-1.373694427068451
 20
-0.2250596840057036
 30
0.0
 10
-1.373143723886995
 20
-0.2277463456141308
 30
0.0
 10
-1.372783321807846
 20
-0.2305030366628701
 30
0.0
 10
-1.372649579614456
 20
-0.2323639930418718
 30
0.0
 10
-1.372581861401726
 20
-0.2333062584314202
 30
0.0
  0
SPLINE
  5
124
330
1F
100
AcDbEntity
  8
0
  6
Continuous
 62
     7
370
    25
100
AcDbSpline
210
0.0
220
0.0
230
1.0
 70
     8
 71
     3
 72
    10
 73
     6
 74
     0
 42
0.000000001
 43
0.00000001
 40
0.0
 40
0.0
 40
0.0
 40
0.0
 40
0.2073000226288925
 40
0.6036773277176886
 40
1.0
 40
1.0
 40
1.0
 40
1.0
 10
-1.287811926930921
 20
-0.2553942109461746
 30
0.0
 10
-1.289646675016962
 20
-0.2539407285127721
 30
0.0
 10
-1.294989635464191
 20
-0.2497080498079952
 30
0.0
 10
-1.300215795640236
 20
-0.2380947085016039
 30
0.0
 10
-1.301558773676966
 20
-0.228590572116102
 30
0.0
 10
-1.302230216416372
 20
-0.2238388314354355
 30
0.0
  0
SPLINE
  5
12B
330
1F
100
AcDbEntity
  8
0
  6
Continuous
 62
     7
370
    25
100
AcDbSpline
210
0.0
220
0.0
230
1.0
 70
     8
 71
     3
 72
    10
 73
     6
 74
     0
 42
0.000000001
 43
0.00000001
 40
0.0
 40
0.0
 40
0.0
 40
0.0
 40
0.2848421713850722
 40
0.6427149036147585
 40
1.0
 40
1.0
 40
1.0
 40
1.0
 10
-1.377770941941989
 20
-0.2568994980632487
 30
0.0
 10
-1.380891156903767
 20
-0.2547664341877383
 30
0.0
 10
-1.387931577388784
 20
-0.2499534111143414
 30
0.0
 10
-1.395001500923375
 20
-0.2367707326120967
 30
0.0
 10
-1.396541058499778
 20
-0.2265420604693363
 30
0.0
 10
-1.397310204770806
 20
-0.2214319267810887
 30
0.0
  0
SPLINE
  5
12D
330
1F
100
AcDbEntity
  8
0
  6
Continuous
 62
     7
370
    25
100
AcDbSpline
210
0.0
220
0.0
230
1.0
 70
     8
 71
     3
 72
    10
 73
     6
 74
     0
 42
0.000000001
 43
0.00000001
 40
0.0
 40
0.0
 40
0.0
 40
0.0
 40
0.4054635423672055
 40
0.702807498885029
 40
1.0
 40
1.0
 40
1.0
 40
1.0
 10
-1.382618006315485
 20
-0.1780491645275405
 30
0.0
 10
-1.385355204368643
 20
-0.175831802587461
 30
0.0
 10
-1.390099708169062
 20
-0.1719883532106515
 30
0.0
 10
-1.393604910912974
 20
-0.1631613759027433
 30
0.0
 10
-1.39428597414203
 20
-0.1577417930475089
 30
0.0
 10
-1.39462641900771
 20
-0.1550326919266796
 30
0.0
  0
SPLINE
  5
12E
330
1F
100
AcDbEntity
  8
0
  6
Continuous
 62
     7
370
    25
100
AcDbSpline
210
0.0
220
0.0
230
1.0
 70
     8
 71
     3
 72
     9
 73
     5
 74
     0
 42
0.000000001
 43
0.00000001
 40
0.0
 40
0.0
 40
0.0
 40
0.0
 40
0.5484125304163695
 40
1.0
 40
1.0
 40
1.0
 40
1.0
 10
-1.397310204770806
 20
-0.2214319267810887
 30
0.0
 10
-1.397227146661355
 20
-0.2167970326092765
 30
0.0
 10
-1.397075694780071
 20
-0.2083455587374209
 30
0.0
 10
-1.393146798958852
 20
-0.2016446679172527
 30
0.0
 10
-1.39137255883669
 20
-0.1986186295878168
 30
0.0
  0
LWPOLYLINE
  5
142
330
1F
100
AcDbEntity
  8
0
  6
Continuous
 62
     7
370
    25
100
AcDbPolyline
 90
        3
 70
   128
 43
0.0
 10
-2.1299077797
 20
1.7757624082
 10
-2.1288069141
 20
1.775987509
 10
-2.1139480716
 20
1.7772799185
  0
LINE
  5
148
330
1F
100
AcDbEntity
  8
0
  6
Continuous
 62
     7
370
    25
100
AcDbLine
 10
4.1665678928
 20
-1.8275191023
 30
0.0
 11
4.2204992742
 21
-1.8160370919
 31
0.0
  0
LINE
  5
149
330
1F
100
AcDbEntity
  8
0
  6
Continuous
 62
     7
370
    25
100
AcDbLine
 10
-2.1299077797
 20
1.7757624082
 30
0.0
 11
-2.1838391612
 21
1.7642803977
 31
0.0
  0
LINE
  5
14A
330
1F
100
AcDbEntity
  8
0
  6
Continuous
 62
     7
370
    25
100
AcDbLine
 10
1.2404687362
 20
-1.5745100976
 30
0.0
 11
1.2307414715
 21
-1.3758592442
 31
0.0
  0
LINE
  5
14B
330
1F
100
AcDbEntity
  8
0
  6
Continuous
 62
     7
370
    25
100
AcDbLine
 10
1.2307414715
 20
-1.3758592442
 30
0.0
 11
1.1466715531
 21
-1.3742396598
 31
0.0
  0
LINE
  5
14C
330
1F
100
AcDbEntity
  8
0
  6
Continuous
 62
     7
370
    25
100
AcDbLine
 10
1.1466715531
 20
-1.3742396598
 30
0.0
 11
1.1563988178
 21
-1.5728905132
 31
0.0
  0
LINE
  5
14D
330
1F
100
AcDbEntity
  8
0
  6
Continuous
 62
     7
370
    25
100
AcDbLine
 10
1.1563988178
 20
-1.5728905132
 30
0.0
 11
1.2404687362
 21
-1.5745100976
 31
0.0
  0
LINE
  5
14E
330
1F
100
AcDbEntity
  8
0
  6
Continuous
 62
     7
370
    25
100
AcDbLine
 10
1.8192309001
 20
-1.387196335
 30
0.0
 11
1.8289581648
 21
-1.5858471884
 31
0.0
  0
LINE
  5
14F
330
1F
100
AcDbEntity
  8
0
  6
Continuous
 62
     7
370
    25
100
AcDbLine
 10
1.8289581648
 20
-1.5858471884
 30
0.0
 11
1.9130280831
 21
-1.5874667728
 31
0.0
  0
LINE
  5
150
330
1F
100
AcDbEntity
  8
0
  6
Continuous
 62
     7
370
    25
100
AcDbLine
 10
1.9130280831
 20
-1.5874667728
 30
0.0
 11
1.9033008185
 21
-1.3888159194
 31
0.0
  0
LINE
  5
151
330
1F
100
AcDbEntity
  8
0
  6
Continuous
 62
     7
370
    25
100
AcDbLine
 10
1.9033008185
 20
-1.3888159194
 30
0.0
 11
1.8192309001
 21
-1.387196335
 31
0.0
  0
LINE
  5
152
330
1F
100
AcDbEntity
  8
0
  6
Continuous
 62
     7
370
    25
100
AcDbLine
 10
1.4829512266
 20
-1.3807179974
 30
0.0
 11
1.4926784913
 21
-1.5793688508
 31
0.0
  0
LINE
  5
153
330
1F
100
AcDbEntity
  8
0
  6
Continuous
 62
     7
370
    25
100
AcDbLine
 10
1.4926784913
 20
-1.5793688508
 30
0.0
 11
1.5767484097
 21
-1.5809884352
 31
0.0
  0
LINE
  5
154
330
1F
100
AcDbEntity
  8
0
  6
Continuous
 62
     7
370
    25
100
AcDbLine
 10
1.5767484097
 20
-1.5809884352
 30
0.0
 11
1.567021145
 21
-1.3823375818
 31
0.0
  0
LINE
  5
155
330
1F
100
AcDbEntity
  8
0
  6
Continuous
 62
     7
370
    25
100
AcDbLine
 10
1.567021145
 20
-1.3823375818
 30
0.0
 11
1.4829512266
 21
-1.3807179974
 31
0.0
  0
LINE
  5
156
330
1F
100
AcDbEntity
  8
0
  6
Continuous
 62
     7
370
    25
100
AcDbLine
 10
-2.0740615764
 20
0.3747463106
 30
0.0
 11
-1.0669296032
 21
0.3553441836
 31
0.0
  0
LINE
  5
157
330
1F
100
AcDbEntity
  8
0
  6
Continuous
 62
     7
370
    25
100
AcDbLine
 10
-0.9878804409
 20
0.4390195669
 30
0.0
 11
-0.9164168809
 21
1.4299601416
 31
0.0
  0
LINE
  5
158
330
1F
100
AcDbEntity
  8
0
  6
Continuous
 62
     7
370
    25
100
AcDbLine
 10
-1.0051933078
 20
1.5449356116
 30
0.0
 11
-2.0123252811
 21
1.5643377385
 31
0.0
  0
LINE
  5
159
330
1F
100
AcDbEntity
  8
0
  6
Continuous
 62
     7
370
    25
100
AcDbLine
 10
-2.0913744434
 20
1.4806623552
 30
0.0
 11
-2.1628380034
 21
0.4897217805
 31
0.0
  0
LINE
  5
15A
330
1F
100
AcDbEntity
  8
0
  6
Continuous
 62
     7
370
    25
100
AcDbLine
 10
0.5744286905
 20
0.4229555869
 30
0.0
 11
0.5257923671
 21
1.4162098536
 31
0.0
  0
LINE
  5
15B
330
1F
100
AcDbEntity
  8
0
  6
Continuous
 62
     7
370
    25
100
AcDbLine
 10
0.4368588164
 20
1.5171548647
 30
0.0
 11
-0.5719802041
 21
1.5365898775
 31
0.0
  0
LINE
  5
15C
330
1F
100
AcDbEntity
  8
0
  6
Continuous
 62
     7
370
    25
100
AcDbLine
 10
-0.6511864901
 20
1.4388840352
 30
0.0
 11
-0.6025501667
 21
0.4456297685
 31
0.0
  0
LINE
  5
15D
330
1F
100
AcDbEntity
  8
0
  6
Continuous
 62
     7
370
    25
100
AcDbLine
 10
-0.513616616
 20
0.3446847575
 30
0.0
 11
0.4952224045
 21
0.3252497447
 31
0.0
  0
LINE
  5
15E
330
1F
100
AcDbEntity
  8
0
  6
Continuous
 62
     7
370
    25
100
AcDbLine
 10
0.9155719963
 20
0.3171518227
 30
0.0
 11
2.1601841717
 21
0.2931747034
 31
0.0
  0
LINE
  5
15F
330
1F
100
AcDbEntity
  8
0
  6
Continuous
 62
     7
370
    25
100
AcDbLine
 10
2.2326569611
 20
0.4249495152
 30
0.0
 11
1.8780311588
 21
1.424098587
 31
0.0
  0
LINE
  5
160
330
1F
100
AcDbEntity
  8
0
  6
Continuous
 62
     7
370
    25
100
AcDbLine
 10
1.7958311048
 20
1.4909746285
 30
0.0
 11
0.8572084082
 21
1.5090569427
 31
0.0
  0
LINE
  5
161
330
1F
100
AcDbEntity
  8
0
  6
Continuous
 62
     7
370
    25
100
AcDbLine
 10
0.7780021222
 20
1.4113511004
 30
0.0
 11
0.8266384456
 21
0.4180968337
 31
0.0
  0
LINE
  5
162
330
1F
100
AcDbEntity
  8
0
  6
Continuous
 62
     7
370
    25
100
AcDbLine
 10
3.4408775108
 20
-1.9145955719
 30
0.0
 11
3.4360138785
 21
-1.8152701453
 31
0.0
  0
LINE
  5
163
330
1F
100
AcDbEntity
  8
0
  6
Continuous
 62
     7
370
    25
100
AcDbLine
 10
2.9364580006
 20
-1.9048780655
 30
0.0
 11
3.4408775108
 21
-1.9145955719
 31
0.0
  0
LINE
  5
164
330
1F
100
AcDbEntity
  8
0
  6
Continuous
 62
     7
370
    25
100
AcDbLine
 10
2.9315943683
 20
-1.8055526389
 30
0.0
 11
2.9364580006
 21
-1.9048780655
 31
0.0
  0
LINE
  5
165
330
1F
100
AcDbEntity
  8
0
  6
Continuous
 62
     7
370
    25
100
AcDbLine
 10
1.29223096
 20
-1.7739707431
 30
0.0
 11
2.9315943683
 21
-1.8055526389
 31
0.0
  0
LINE
  5
166
330
1F
100
AcDbEntity
  8
0
  6
Continuous
 62
     7
370
    25
100
AcDbLine
 10
1.2970945924
 20
-1.8732961698
 30
0.0
 11
1.29223096
 21
-1.7739707431
 31
0.0
  0
LINE
  5
167
330
1F
100
AcDbEntity
  8
0
  6
Continuous
 62
     7
370
    25
100
AcDbLine
 10
0.7926750822
 20
-1.8635786634
 30
0.0
 11
1.2970945924
 21
-1.8732961698
 31
0.0
  0
LINE
  5
168
330
1F
100
AcDbEntity
  8
0
  6
Continuous
 62
     7
370
    25
100
AcDbLine
 10
0.7878114498
 20
-1.7642532367
 30
0.0
 11
0.7926750822
 21
-1.8635786634
 31
0.0
  0
LINE
  5
169
330
1F
100
AcDbEntity
  8
0
  6
Continuous
 62
     7
370
    25
100
AcDbLine
 10
-0.7254470808
 20
-1.7351007175
 30
0.0
 11
0.7878114498
 21
-1.7642532367
 31
0.0
  0
LINE
  5
16A
330
1F
100
AcDbEntity
  8
0
  6
Continuous
 62
     7
370
    25
100
AcDbLine
 10
-0.7205834485
 20
-1.8344261442
 30
0.0
 11
-0.7254470808
 21
-1.7351007175
 31
0.0
  0
LINE
  5
16B
330
1F
100
AcDbEntity
  8
0
  6
Continuous
 62
     7
370
    25
100
AcDbLine
 10
-1.2250029587
 20
-1.8247086378
 30
0.0
 11
-0.7205834485
 21
-1.8344261442
 31
0.0
  0
LINE
  5
16C
330
1F
100
AcDbEntity
  8
0
  6
Continuous
 62
     7
370
    25
100
AcDbLine
 10
-1.2298665911
 20
-1.7253832111
 30
0.0
 11
-1.2250029587
 21
-1.8247086378
 31
0.0
  0
LINE
  5
16D
330
1F
100
AcDbEntity
  8
0
  6
Continuous
 62
     7
370
    25
100
AcDbLine
 10
-2.3939819363
 20
-1.7029568416
 30
0.0
 11
-1.2298665911
 21
-1.7253832111
 31
0.0
  0
LINE
  5
16E
330
1F
100
AcDbEntity
  8
0
  6
Continuous
 62
     7
370
    25
100
AcDbLine
 10
-2.2469286153
 20
1.6821225247
 30
0.0
 11
-2.4827583633
 21
-1.5879813717
 31
0.0
  0
LINE
  5
16F
330
1F
100
AcDbEntity
  8
0
  6
Continuous
 62
     7
370
    25
100
AcDbLine
 10
1.9038366213
 20
1.6873573914
 30
0.0
 11
-2.167879453
 21
1.7657979081
 31
0.0
  0
LINE
  5
170
330
1F
100
AcDbEntity
  8
0
  6
Continuous
 62
     7
370
    25
100
AcDbLine
 10
2.5599645023
 20
0.0034544669
 30
0.0
 11
1.9860366753
 21
1.6204813499
 31
0.0
  0
LINE
  5
171
330
1F
100
AcDbEntity
  8
0
  6
Continuous
 62
     7
370
    25
100
AcDbLine
 10
4.0654946187
 20
-0.090841646
 30
0.0
 11
2.6421645564
 21
-0.0634215746
 31
0.0
  0
LINE
  5
172
330
1F
100
AcDbEntity
  8
0
  6
Continuous
 62
     7
370
    25
100
AcDbLine
 10
4.177530423
 20
-0.6635824337
 30
0.0
 11
4.1544281694
 21
-0.1917866571
 31
0.0
  0
LINE
  5
173
330
1F
100
AcDbEntity
  8
0
  6
Continuous
 62
     7
370
    25
100
AcDbLine
 10
4.2616003414
 20
-0.6652020181
 30
0.0
 11
4.177530423
 21
-0.6635824337
 31
0.0
  0
LINE
  5
174
330
1F
100
AcDbEntity
  8
0
  6
Continuous
 62
     7
370
    25
100
AcDbLine
 10
4.2907821354
 20
-1.2611545781
 30
0.0
 11
4.2616003414
 21
-0.6652020181
 31
0.0
  0
LINE
  5
175
330
1F
100
AcDbEntity
  8
0
  6
Continuous
 62
     7
370
    25
100
AcDbLine
 10
4.2067122171
 20
-1.2595349937
 30
0.0
 11
4.2907821354
 21
-1.2611545781
 31
0.0
  0
LINE
  5
176
330
1F
100
AcDbEntity
  8
0
  6
Continuous
 62
     7
370
    25
100
AcDbLine
 10
4.2298144707
 20
-1.7313307704
 30
0.0
 11
4.2067122171
 21
-1.2595349937
 31
0.0
  0
LINE
  5
177
330
1F
100
AcDbEntity
  8
0
  6
Continuous
 62
     7
370
    25
100
AcDbLine
 10
3.4360138785
 20
-1.8152701453
 30
0.0
 11
4.1506081846
 21
-1.8290366127
 31
0.0
  0
LINE
  5
178
330
1F
100
AcDbEntity
  8
0
  6
Continuous
 62
     7
370
    25
100
AcDbLine
 10
-1.3451593
 20
-0.1958156263
 30
0.0
 11
-1.3136406115
 21
-0.1340257787
 31
0.0
  0
LINE
  5
179
330
1F
100
AcDbEntity
  8
0
  6
Continuous
 62
     7
370
    25
100
AcDbLine
 10
-1.3052707172
 20
-0.141610025
 30
0.0
 11
-1.3331715763
 21
-0.1963204781
 31
0.0
  0
LINE
  5
17A
330
1F
100
AcDbEntity
  8
0
  6
Continuous
 62
     7
370
    25
100
AcDbLine
 10
-1.3136406115
 20
-0.1340257787
 30
0.0
 11
-1.3052707172
 21
-0.141610025
 31
0.0
  0
LINE
  5
17B
330
1F
100
AcDbEntity
  8
0
  6
Continuous
 62
     7
370
    25
100
AcDbLine
 10
-1.5696445353
 20
-0.2693366355
 30
0.0
 11
-1.5763463909
 21
-0.1324708901
 31
0.0
  0
LINE
  5
17C
330
1F
100
AcDbEntity
  8
0
  6
Continuous
 62
     7
370
    25
100
AcDbLine
 10
-1.5042964259
 20
-0.2705955492
 30
0.0
 11
-1.5696445353
 21
-0.2693366355
 31
0.0
  0
LINE
  5
17D
330
1F
100
AcDbEntity
  8
0
  6
Continuous
 62
     7
370
    25
100
AcDbLine
 10
-1.5049837957
 20
-0.2565580369
 30
0.0
 11
-1.5042964259
 21
-0.2705955492
 31
0.0
  0
LINE
  5
17E
330
1F
100
AcDbEntity
  8
0
  6
Continuous
 62
     7
370
    25
100
AcDbLine
 10
-1.559935615
 20
-0.2554994048
 30
0.0
 11
-1.5049837957
 21
-0.2565580369
 31
0.0
  0
LINE
  5
17F
330
1F
100
AcDbEntity
  8
0
  6
Continuous
 62
     7
370
    25
100
AcDbLine
 10
-1.5625132517
 20
-0.2028587335
 30
0.0
 11
-1.559935615
 21
-0.2554994048
 31
0.0
  0
LINE
  5
180
330
1F
100
AcDbEntity
  8
0
  6
Continuous
 62
     7
370
    25
100
AcDbLine
 10
-1.5075614325
 20
-0.2039173656
 30
0.0
 11
-1.5625132517
 21
-0.2028587335
 31
0.0
  0
LINE
  5
181
330
1F
100
AcDbEntity
  8
0
  6
Continuous
 62
     7
370
    25
100
AcDbLine
 10
-1.5082488023
 20
-0.1898798532
 30
0.0
 11
-1.5075614325
 21
-0.2039173656
 31
0.0
  0
LINE
  5
182
330
1F
100
AcDbEntity
  8
0
  6
Continuous
 62
     7
370
    25
100
AcDbLine
 10
-1.5632006215
 20
-0.1888212212
 30
0.0
 11
-1.5082488023
 21
-0.1898798532
 31
0.0
  0
LINE
  5
183
330
1F
100
AcDbEntity
  8
0
  6
Continuous
 62
     7
370
    25
100
AcDbLine
 10
-1.5652627309
 20
-0.1467086841
 30
0.0
 11
-1.5632006215
 21
-0.1888212212
 31
0.0
  0
LINE
  5
184
330
1F
100
AcDbEntity
  8
0
  6
Continuous
 62
     7
370
    25
100
AcDbLine
 10
-1.5103109117
 20
-0.1477673162
 30
0.0
 11
-1.5652627309
 21
-0.1467086841
 31
0.0
  0
LINE
  5
185
330
1F
100
AcDbEntity
  8
0
  6
Continuous
 62
     7
370
    25
100
AcDbLine
 10
-1.5109982815
 20
-0.1337298038
 30
0.0
 11
-1.5103109117
 21
-0.1477673162
 31
0.0
  0
LINE
  5
186
330
1F
100
AcDbEntity
  8
0
  6
Continuous
 62
     7
370
    25
100
AcDbLine
 10
-1.5763463909
 20
-0.1324708901
 30
0.0
 11
-1.5109982815
 21
-0.1337298038
 31
0.0
  0
LINE
  5
187
330
1F
100
AcDbEntity
  8
0
  6
Continuous
 62
     7
370
    25
100
AcDbLine
 10
-1.6520907904
 20
-0.1310116945
 30
0.0
 11
-1.6506056061
 21
-0.1310403062
 31
0.0
  0
LINE
  5
188
330
1F
100
AcDbEntity
  8
0
  6
Continuous
 62
     7
370
    25
100
AcDbLine
 10
-1.700340754
 20
-0.2668188079
 30
0.0
 11
-1.6520907904
 21
-0.1310116945
 31
0.0
  0
LINE
  5
189
330
1F
100
AcDbEntity
  8
0
  6
Continuous
 62
     7
370
    25
100
AcDbLine
 10
-1.6889930177
 20
-0.267037419
 30
0.0
 11
-1.700340754
 21
-0.2668188079
 31
0.0
  0
LINE
  5
18A
330
1F
100
AcDbEntity
  8
0
  6
Continuous
 62
     7
370
    25
100
AcDbLine
 10
-1.6735276907
 20
-0.2235095095
 30
0.0
 11
-1.6889930177
 21
-0.267037419
 31
0.0
  0
LINE
  5
18B
330
1F
100
AcDbEntity
  8
0
  6
Continuous
 62
     7
370
    25
100
AcDbLine
 10
-1.621012502
 20
-0.2245212005
 30
0.0
 11
-1.6735276907
 21
-0.2235095095
 31
0.0
  0
LINE
  5
18C
330
1F
100
AcDbEntity
  8
0
  6
Continuous
 62
     7
370
    25
100
AcDbLine
 10
-1.6017384399
 20
-0.268718355
 30
0.0
 11
-1.621012502
 21
-0.2245212005
 31
0.0
  0
LINE
  5
18D
330
1F
100
AcDbEntity
  8
0
  6
Continuous
 62
     7
370
    25
100
AcDbLine
 10
-1.5904371155
 20
-0.268936072
 30
0.0
 11
-1.6017384399
 21
-0.268718355
 31
0.0
  0
LINE
  5
18E
330
1F
100
AcDbEntity
  8
0
  6
Continuous
 62
     7
370
    25
100
AcDbLine
 10
-1.6506056061
 20
-0.1310403062
 30
0.0
 11
-1.5904371155
 21
-0.268936072
 31
0.0
  0
LINE
  5
18F
330
1F
100
AcDbEntity
  8
0
  6
Continuous
 62
     7
370
    25
100
AcDbLine
 10
4.0654946187
 20
-0.090841646
 30
0.0
 11
4.1194260002
 21
-0.0793596356
 31
0.0
  0
LINE
  5
190
330
1F
100
AcDbEntity
  8
0
  6
Continuous
 62
     7
370
    25
100
AcDbLine
 10
4.2083595509
 20
-0.1803046466
 30
0.0
 11
4.1544281694
 21
-0.1917866571
 31
0.0
  0
LINE
  5
191
330
1F
100
AcDbEntity
  8
0
  6
Continuous
 62
     7
370
    25
100
AcDbLine
 10
4.2907821354
 20
-1.2611545781
 30
0.0
 11
4.3447135169
 21
-1.2496725677
 31
0.0
  0
LINE
  5
192
330
1F
100
AcDbEntity
  8
0
  6
Continuous
 62
     7
370
    25
100
AcDbLine
 10
4.2616003414
 20
-0.6652020181
 30
0.0
 11
4.3155317229
 21
-0.6537200077
 31
0.0
  0
LINE
  5
193
330
1F
100
AcDbEntity
  8
0
  6
Continuous
 62
     7
370
    25
100
AcDbLine
 10
4.3447135169
 20
-1.2496725677
 30
0.0
 11
4.3155317229
 21
-0.6537200077
 31
0.0
  0
LINE
  5
194
330
1F
100
AcDbEntity
  8
0
  6
Continuous
 62
     7
370
    25
100
AcDbLine
 10
4.177530423
 20
-0.6635824337
 30
0.0
 11
4.2314618045
 21
-0.6521004233
 31
0.0
  0
LINE
  5
195
330
1F
100
AcDbEntity
  8
0
  6
Continuous
 62
     7
370
    25
100
AcDbLine
 10
4.3155317229
 20
-0.6537200077
 30
0.0
 11
4.2314618045
 21
-0.6521004233
 31
0.0
  0
LINE
  5
196
330
1F
100
AcDbEntity
  8
0
  6
Continuous
 62
     7
370
    25
100
AcDbLine
 10
4.2314618045
 20
-0.6521004233
 30
0.0
 11
4.2083595509
 21
-0.1803046466
 31
0.0
  0
LINE
  5
197
330
1F
100
AcDbEntity
  8
0
  6
Continuous
 62
     7
370
    25
100
AcDbLine
 10
2.6960959378
 20
-0.0519395642
 30
0.0
 11
2.6421645564
 21
-0.0634215746
 31
0.0
  0
LINE
  5
198
330
1F
100
AcDbEntity
  8
0
  6
Continuous
 62
     7
370
    25
100
AcDbLine
 10
4.1194260002
 20
-0.0793596356
 30
0.0
 11
2.6960959378
 21
-0.0519395642
 31
0.0
  0
LINE
  5
199
330
1F
100
AcDbEntity
  8
0
  6
Continuous
 62
     7
370
    25
100
AcDbLine
 10
4.2298144707
 20
-1.7313307704
 30
0.0
 11
4.2837458521
 21
-1.71984876
 31
0.0
  0
LINE
  5
19A
330
1F
100
AcDbEntity
  8
0
  6
Continuous
 62
     7
370
    25
100
AcDbLine
 10
4.2837458521
 20
-1.71984876
 30
0.0
 11
4.2612572879
 21
-1.2605857899
 31
0.0
  0
LINE
  5
19B
330
1F
100
AcDbEntity
  8
0
  6
Continuous
 62
     7
370
    25
100
AcDbLine
 10
3.4408775108
 20
-1.9145955719
 30
0.0
 11
3.4948088923
 21
-1.9031135615
 31
0.0
  0
LINE
  5
19C
330
1F
100
AcDbEntity
  8
0
  6
Continuous
 62
     7
370
    25
100
AcDbLine
 10
3.4948088923
 20
-1.9031135615
 30
0.0
 11
3.4905589494
 21
-1.8163209414
 31
0.0
  0
LINE
  5
19D
330
1F
100
AcDbEntity
  8
0
  6
Continuous
 62
     7
370
    25
100
AcDbLine
 10
2.0399680568
 20
1.6319633604
 30
0.0
 11
1.9860366753
 21
1.6204813499
 31
0.0
  0
LINE
  5
19E
330
1F
100
AcDbEntity
  8
0
  6
Continuous
 62
     7
370
    25
100
AcDbLine
 10
2.5599645023
 20
0.0034544669
 30
0.0
 11
2.6138958838
 21
0.0149364773
 31
0.0
  0
LINE
  5
19F
330
1F
100
AcDbEntity
  8
0
  6
Continuous
 62
     7
370
    25
100
AcDbLine
 10
2.6138958838
 20
0.0149364773
 30
0.0
 11
2.0399680568
 21
1.6319633604
 31
0.0
  0
LINE
  5
1A0
330
1F
100
AcDbEntity
  8
0
  6
Continuous
 62
     7
370
    25
100
AcDbLine
 10
1.9038366213
 20
1.6873573914
 30
0.0
 11
1.9577680027
 21
1.6988394019
 31
0.0
  0
LINE
  5
1A1
330
1F
100
AcDbEntity
  8
0
  6
Continuous
 62
     7
370
    25
100
AcDbLine
 10
-2.1139480716
 20
1.7772799185
 30
0.0
 11
-2.167879453
 21
1.7657979081
 31
0.0
  0
LINE
  5
1A2
330
1F
100
AcDbEntity
  8
0
  6
Continuous
 62
     7
370
    25
100
AcDbLine
 10
1.9577680027
 20
1.6988394019
 30
0.0
 11
-2.1139480716
 21
1.7772799185
 31
0.0
  0
LINE
  5
1A3
330
1F
100
AcDbEntity
  8
0
  6
Continuous
 62
     7
370
    25
100
AcDbLine
 10
0.9695033778
 20
0.3286338331
 30
0.0
 11
0.9155719963
 21
0.3171518227
 31
0.0
  0
LINE
  5
1A4
330
1F
100
AcDbEntity
  8
0
  6
Continuous
 62
     7
370
    25
100
AcDbLine
 10
0.9695033778
 20
0.3286338331
 30
0.0
 11
2.2004493256
 21
0.30491999
 31
0.0
  0
LINE
  5
1A5
330
1F
100
AcDbEntity
  8
0
  6
Continuous
 62
     7
370
    25
100
AcDbLine
 10
1.8828895462
 20
-1.5743651779
 30
0.0
 11
1.8289581648
 21
-1.5858471884
 31
0.0
  0
LINE
  5
1A6
330
1F
100
AcDbEntity
  8
0
  6
Continuous
 62
     7
370
    25
100
AcDbLine
 10
1.8828895462
 20
-1.5743651779
 30
0.0
 11
1.9124143937
 21
-1.5749339662
 31
0.0
  0
LINE
  5
1A7
330
1F
100
AcDbEntity
  8
0
  6
Continuous
 62
     7
370
    25
100
AcDbLine
 10
1.873775971
 20
-1.3882471312
 30
0.0
 11
1.8828895462
 21
-1.5743651779
 31
0.0
  0
LINE
  5
1A8
330
1F
100
AcDbEntity
  8
0
  6
Continuous
 62
     7
370
    25
100
AcDbLine
 10
1.5466098727
 20
-1.5678868403
 30
0.0
 11
1.4926784913
 21
-1.5793688508
 31
0.0
  0
LINE
  5
1A9
330
1F
100
AcDbEntity
  8
0
  6
Continuous
 62
     7
370
    25
100
AcDbLine
 10
1.5466098727
 20
-1.5678868403
 30
0.0
 11
1.5761347202
 21
-1.5684556286
 31
0.0
  0
LINE
  5
1AA
330
1F
100
AcDbEntity
  8
0
  6
Continuous
 62
     7
370
    25
100
AcDbLine
 10
1.5374962975
 20
-1.3817687936
 30
0.0
 11
1.5466098727
 21
-1.5678868403
 31
0.0
  0
LINE
  5
1AB
330
1F
100
AcDbEntity
  8
0
  6
Continuous
 62
     7
370
    25
100
AcDbLine
 10
0.8319335037
 20
1.4228331109
 30
0.0
 11
0.7780021222
 21
1.4113511004
 31
0.0
  0
LINE
  5
1AC
330
1F
100
AcDbEntity
  8
0
  6
Continuous
 62
     7
370
    25
100
AcDbLine
 10
0.8266384456
 20
0.4180968337
 30
0.0
 11
0.8805698271
 21
0.4295788442
 31
0.0
  0
LINE
  5
1AD
330
1F
100
AcDbEntity
  8
0
  6
Continuous
 62
     7
370
    25
100
AcDbLine
 10
0.8319335037
 20
1.4228331109
 30
0.0
 11
0.8805698271
 21
0.4295788442
 31
0.0
  0
LINE
  5
1AE
330
1F
100
AcDbEntity
  8
0
  6
Continuous
 62
     7
370
    25
100
AcDbLine
 10
1.2970945924
 20
-1.8732961698
 30
0.0
 11
1.3510259738
 21
-1.8618141593
 31
0.0
  0
LINE
  5
1AF
330
1F
100
AcDbEntity
  8
0
  6
Continuous
 62
     7
370
    25
100
AcDbLine
 10
1.3510259738
 20
-1.8618141593
 30
0.0
 11
1.3467760309
 21
-1.7750215392
 31
0.0
  0
LINE
  5
1B0
330
1F
100
AcDbEntity
  8
0
  6
Continuous
 62
     7
370
    25
100
AcDbLine
 10
1.2103301993
 20
-1.5614085027
 30
0.0
 11
1.1563988178
 21
-1.5728905132
 31
0.0
  0
LINE
  5
1B1
330
1F
100
AcDbEntity
  8
0
  6
Continuous
 62
     7
370
    25
100
AcDbLine
 10
1.2103301993
 20
-1.5614085027
 30
0.0
 11
1.2398550468
 21
-1.561977291
 31
0.0
  0
LINE
  5
1B2
330
1F
100
AcDbEntity
  8
0
  6
Continuous
 62
     7
370
    25
100
AcDbLine
 10
1.201216624
 20
-1.375290456
 30
0.0
 11
1.2103301993
 21
-1.5614085027
 31
0.0
  0
LINE
  5
1B3
330
1F
100
AcDbEntity
  8
0
  6
Continuous
 62
     7
370
    25
100
AcDbLine
 10
-0.4596852345
 20
0.3561667679
 30
0.0
 11
-0.513616616
 21
0.3446847575
 31
0.0
  0
LINE
  5
1B4
330
1F
100
AcDbEntity
  8
0
  6
Continuous
 62
     7
370
    25
100
AcDbLine
 10
-0.4596852345
 20
0.3561667679
 30
0.0
 11
0.5354875583
 21
0.3369950313
 31
0.0
  0
LINE
  5
1B5
330
1F
100
AcDbEntity
  8
0
  6
Continuous
 62
     7
370
    25
100
AcDbLine
 10
-0.5972551086
 20
1.4503660456
 30
0.0
 11
-0.6511864901
 21
1.4388840352
 31
0.0
  0
LINE
  5
1B6
330
1F
100
AcDbEntity
  8
0
  6
Continuous
 62
     7
370
    25
100
AcDbLine
 10
-0.6025501667
 20
0.4456297685
 30
0.0
 11
-0.5486187852
 21
0.457111779
 31
0.0
  0
LINE
  5
1B7
330
1F
100
AcDbEntity
  8
0
  6
Continuous
 62
     7
370
    25
100
AcDbLine
 10
-0.5972551086
 20
1.4503660456
 30
0.0
 11
-0.5486187852
 21
0.457111779
 31
0.0
  0
LINE
  5
1B8
330
1F
100
AcDbEntity
  8
0
  6
Continuous
 62
     7
370
    25
100
AcDbLine
 10
-2.020130195
 20
0.386228321
 30
0.0
 11
-2.0740615764
 21
0.3747463106
 31
0.0
  0
LINE
  5
1B9
330
1F
100
AcDbEntity
  8
0
  6
Continuous
 62
     7
370
    25
100
AcDbLine
 10
-2.020130195
 20
0.386228321
 30
0.0
 11
-1.0266644493
 21
0.3670894702
 31
0.0
  0
LINE
  5
1BA
330
1F
100
AcDbEntity
  8
0
  6
Continuous
 62
     7
370
    25
100
AcDbLine
 10
-0.7205834485
 20
-1.8344261442
 30
0.0
 11
-0.6666520671
 21
-1.8229441337
 31
0.0
  0
LINE
  5
1BB
330
1F
100
AcDbEntity
  8
0
  6
Continuous
 62
     7
370
    25
100
AcDbLine
 10
-0.6666520671
 20
-1.8229441337
 30
0.0
 11
-0.67090201
 21
-1.7361515137
 31
0.0
  0
LINE
  5
1BC
330
1F
100
AcDbEntity
  8
0
  6
Continuous
 62
     7
370
    25
100
AcDbLine
 10
-1.3190334896
 20
-0.2776706575
 30
0.0
 11
-1.3058450052
 21
-0.2748628245
 31
0.0
  0
LINE
  5
1BD
330
1F
100
AcDbEntity
  8
0
  6
Continuous
 62
     7
370
    25
100
AcDbLine
 10
-1.3561615979
 20
-0.2353208419
 30
0.0
 11
-1.3022302164
 21
-0.2238388314
 31
0.0
  0
LINE
  5
1BE
330
1F
100
AcDbEntity
  8
0
  6
Continuous
 62
     7
370
    25
100
AcDbLine
 10
-1.3022302164
 20
-0.2238388314
 30
0.0
 11
-1.2992811804
 21
-0.2055221737
 31
0.0
  0
LINE
  5
1BF
330
1F
100
AcDbEntity
  8
0
  6
Continuous
 62
     7
370
    25
100
AcDbLine
 10
-1.4099778222
 20
-0.2759186394
 30
0.0
 11
-1.3936792021
 21
-0.2724486573
 31
0.0
  0
LINE
  5
1C0
330
1F
100
AcDbEntity
  8
0
  6
Continuous
 62
     7
370
    25
100
AcDbLine
 10
-1.4485578005
 20
-0.1665147024
 30
0.0
 11
-1.394626419
 21
-0.1550326919
 31
0.0
  0
LINE
  5
1C1
330
1F
100
AcDbEntity
  8
0
  6
Continuous
 62
     7
370
    25
100
AcDbLine
 10
-1.394626419
 20
-0.1550326919
 30
0.0
 11
-1.3924385768
 21
-0.1435774307
 31
0.0
  0
LINE
  5
1C2
330
1F
100
AcDbEntity
  8
0
  6
Continuous
 62
     7
370
    25
100
AcDbLine
 10
-1.4512415862
 20
-0.2329139372
 30
0.0
 11
-1.3973102048
 21
-0.2214319268
 31
0.0
  0
LINE
  5
1C3
330
1F
100
AcDbEntity
  8
0
  6
Continuous
 62
     7
370
    25
100
AcDbLine
 10
-1.4302202377
 20
-0.1958478105
 30
0.0
 11
-1.3863558969
 21
-0.1865090766
 31
0.0
  0
LINE
  5
1C4
330
1F
100
AcDbEntity
  8
0
  6
Continuous
 62
     7
370
    25
100
AcDbLine
 10
-1.5652627309
 20
-0.1467086841
 30
0.0
 11
-1.5113313495
 21
-0.1352266737
 31
0.0
  0
LINE
  5
1C5
330
1F
100
AcDbEntity
  8
0
  6
Continuous
 62
     7
370
    25
100
AcDbLine
 10
-1.5109246011
 20
-0.1352345096
 30
0.0
 11
-1.5113313495
 21
-0.1352266737
 31
0.0
  0
LINE
  5
1C6
330
1F
100
AcDbEntity
  8
0
  6
Continuous
 62
     7
370
    25
100
AcDbLine
 10
-1.5625132517
 20
-0.2028587335
 30
0.0
 11
-1.5085818703
 21
-0.1913767231
 31
0.0
  0
LINE
  5
1C7
330
1F
100
AcDbEntity
  8
0
  6
Continuous
 62
     7
370
    25
100
AcDbLine
 10
-1.5081751219
 20
-0.191384559
 30
0.0
 11
-1.5085818703
 21
-0.1913767231
 31
0.0
  0
LINE
  5
1C8
330
1F
100
AcDbEntity
  8
0
  6
Continuous
 62
     7
370
    25
100
AcDbLine
 10
-1.5696445353
 20
-0.2693366355
 30
0.0
 11
-1.5157131538
 21
-0.257854625
 31
0.0
  0
LINE
  5
1C9
330
1F
100
AcDbEntity
  8
0
  6
Continuous
 62
     7
370
    25
100
AcDbLine
 10
-1.5049101153
 20
-0.2580627426
 30
0.0
 11
-1.5157131538
 21
-0.257854625
 31
0.0
  0
LINE
  5
1CA
330
1F
100
AcDbEntity
  8
0
  6
Continuous
 62
     7
370
    25
100
AcDbLine
 10
-1.5157131538
 20
-0.257854625
 30
0.0
 11
-1.5157868342
 21
-0.2563499193
 31
0.0
  0
LINE
  5
1CB
330
1F
100
AcDbEntity
  8
0
  6
Continuous
 62
     7
370
    25
100
AcDbLine
 10
-1.5188611912
 20
-0.1935651942
 30
0.0
 11
-1.5190518408
 21
-0.1896717356
 31
0.0
  0
LINE
  5
1CC
330
1F
100
AcDbEntity
  8
0
  6
Continuous
 62
     7
370
    25
100
AcDbLine
 10
-1.5216106704
 20
-0.1374151448
 30
0.0
 11
-1.52180132
 21
-0.1335216862
 31
0.0
  0
LINE
  5
1CD
330
1F
100
AcDbEntity
  8
0
  6
Continuous
 62
     7
370
    25
100
AcDbLine
 10
-1.6017384399
 20
-0.268718355
 30
0.0
 11
-1.591484644
 21
-0.2665353182
 31
0.0
  0
LINE
  5
1CE
330
1F
100
AcDbEntity
  8
0
  6
Continuous
 62
     7
370
    25
100
AcDbLine
 10
-1.621012502
 20
-0.2245212005
 30
0.0
 11
-1.6107684238
 21
-0.2223402326
 31
0.0
  0
LINE
  5
1CF
330
1F
100
AcDbEntity
  8
0
  6
Continuous
 62
     7
370
    25
100
AcDbLine
 10
-1.6735276907
 20
-0.2235095095
 30
0.0
 11
-1.6195963093
 21
-0.2120274991
 31
0.0
  0
LINE
  5
1D0
330
1F
100
AcDbEntity
  8
0
  6
Continuous
 62
     7
370
    25
100
AcDbLine
 10
-1.6152315213
 20
-0.2121115855
 30
0.0
 11
-1.6195963093
 21
-0.2120274991
 31
0.0
  0
LINE
  5
1D1
330
1F
100
AcDbEntity
  8
0
  6
Continuous
 62
     7
370
    25
100
AcDbLine
 10
-2.0374430619
 20
1.4921443656
 30
0.0
 11
-2.0913744434
 21
1.4806623552
 31
0.0
  0
LINE
  5
1D2
330
1F
100
AcDbEntity
  8
0
  6
Continuous
 62
     7
370
    25
100
AcDbLine
 10
-1.700340754
 20
-0.2668188079
 30
0.0
 11
-1.6879803718
 21
-0.2641872781
 31
0.0
  0
LINE
  5
1D3
330
1F
100
AcDbEntity
  8
0
  6
Continuous
 62
     7
370
    25
100
AcDbLine
 10
-1.6319572972
 20
-0.2146591578
 30
0.0
 11
-1.6239517588
 21
-0.1921263106
 31
0.0
  0
LINE
  5
1D4
330
1F
100
AcDbEntity
  8
0
  6
Continuous
 62
     7
370
    25
100
AcDbLine
 10
-2.1628380034
 20
0.4897217805
 30
0.0
 11
-2.1089066219
 21
0.501203791
 31
0.0
  0
LINE
  5
1D5
330
1F
100
AcDbEntity
  8
0
  6
Continuous
 62
     7
370
    25
100
AcDbLine
 10
-2.0374430619
 20
1.4921443656
 30
0.0
 11
-2.1089066219
 21
0.501203791
 31
0.0
  0
LINE
  5
1D6
330
1F
100
AcDbEntity
  8
0
  6
Continuous
 62
     8
370
    25
100
AcDbLine
 10
2.1601841717
 20
0.2931747034
 30
0.0
 11
2.1913376642
 21
0.2998072931
 31
0.0
  0
LINE
  5
1D7
330
1F
100
AcDbEntity
  8
0
  6
Continuous
 62
     8
370
    25
100
AcDbLine
 10
0.4952224045
 20
0.3252497447
 30
0.0
 11
0.526375897
 21
0.3318823344
 31
0.0
  0
LINE
  5
1D8
330
1F
100
AcDbEntity
  8
0
  6
Continuous
 62
     8
370
    25
100
AcDbLine
 10
-1.0669296032
 20
0.3553441836
 30
0.0
 11
-1.0357761107
 21
0.3619767733
 31
0.0
  0
LINE
  5
1D9
330
1F
100
AcDbEntity
  8
0
  6
Continuous
 62
     8
370
    25
100
AcDbLine
 10
-1.3451593
 20
-0.1958156263
 30
0.0
 11
-1.3314226836
 21
-0.1928910957
 31
0.0
  0
ARC
  5
1DA
330
1F
100
AcDbEntity
  8
0
  6
Continuous
 62
     7
370
    25
100
AcDbCircle
 10
-2.0612259158
 20
0.4764185232
 30
0.0
 40
0.1024792320555626
100
AcDbArc
 50
172.5411454437
 51
262.8047296953
  0
ARC
  5
1DB
330
1F
100
AcDbEntity
  8
0
  6
Continuous
 62
     7
370
    25
100
AcDbCircle
 10
-1.0708417616
 20
0.4382170966
 30
0.0
 40
0.0829652016836433
100
AcDbArc
 50
272.7027393728
 51
0.5541947917
  0
ARC
  5
1DC
330
1F
100
AcDbEntity
  8
0
  6
Continuous
 62
     7
370
    25
100
AcDbCircle
 10
-1.0180289685
 20
1.4432633989
 30
0.0
 40
0.1024792320555635
100
AcDbArc
 50
352.5411454437
 51
82.8047296953
  0
ARC
  5
1DD
330
1F
100
AcDbEntity
  8
0
  6
Continuous
 62
     7
370
    25
100
AcDbCircle
 10
-2.0084131227
 20
1.4814648256
 30
0.0
 40
0.0829652016836443
100
AcDbArc
 50
92.7027393728
 51
180.5541947917
  0
ARC
  5
1DE
330
1F
100
AcDbEntity
  8
0
  6
Continuous
 62
     7
370
    25
100
AcDbCircle
 10
0.489647129
 20
0.4107270339
 30
0.0
 40
0.0856589205894712
100
AcDbArc
 50
273.731843956
 51
8.2075098058
  0
ARC
  5
1DF
330
1F
100
AcDbEntity
  8
0
  6
Continuous
 62
     7
370
    25
100
AcDbCircle
 10
0.4253944198
 20
1.4174064448
 30
0.0
 40
0.1004050778142171
100
AcDbArc
 50
359.3171535629
 51
83.4435858525
  0
ARC
  5
1E0
330
1F
100
AcDbEntity
  8
0
  6
Continuous
 62
     7
370
    25
100
AcDbCircle
 10
-0.5664049286
 20
1.4511125882
 30
0.0
 40
0.0856589205894714
100
AcDbArc
 50
93.731843956
 51
188.2075098058
  0
ARC
  5
1E1
330
1F
100
AcDbEntity
  8
0
  6
Continuous
 62
     7
370
    25
100
AcDbCircle
 10
-0.5021522194
 20
0.4444331773
 30
0.0
 40
0.1004050778142164
100
AcDbArc
 50
179.3171535629
 51
263.4435858526
  0
ARC
  5
1E2
330
1F
100
AcDbEntity
  8
0
  6
Continuous
 62
     7
370
    25
100
AcDbCircle
 10
0.9270363929
 20
0.4169002425
 30
0.0
 40
0.1004050778142169
100
AcDbArc
 50
179.3171535629
 51
263.4435858526
  0
ARC
  5
1E3
330
1F
100
AcDbEntity
  8
0
  6
Continuous
 62
     7
370
    25
100
AcDbCircle
 10
2.1500015448
 20
0.3845913886
 30
0.0
 40
0.0919820429384024
100
AcDbArc
 50
276.3558036656
 51
26.0248502398
  0
ARC
  5
1E4
330
1F
100
AcDbEntity
  8
0
  6
Continuous
 62
     7
370
    25
100
AcDbCircle
 10
1.7880290059
 20
1.3974290222
 30
0.0
 40
0.0938704064872129
100
AcDbArc
 50
16.5056841482
 51
85.2323245153
  0
ARC
  5
1E5
330
1F
100
AcDbEntity
  8
0
  6
Continuous
 62
     7
370
    25
100
AcDbCircle
 10
0.8627836837
 20
1.4235796534
 30
0.0
 40
0.085658920589471
100
AcDbArc
 50
93.731843956
 51
188.2075098058
  0
ARC
  5
1E6
330
1F
100
AcDbEntity
  8
0
  6
Continuous
 62
     7
370
    25
100
AcDbCircle
 10
-2.3811462757
 20
-1.601284629
 30
0.0
 40
0.1024792320555622
100
AcDbArc
 50
172.5411454437
 51
262.8047296953
  0
ARC
  5
1E7
330
1F
100
AcDbEntity
  8
0
  6
Continuous
 62
     7
370
    25
100
AcDbCircle
 10
-2.1639672946
 20
1.6829249951
 30
0.0
 40
0.0829652016836426
100
AcDbArc
 50
92.7027393728
 51
180.5541947917
  0
ARC
  5
1E8
330
1F
100
AcDbEntity
  8
0
  6
Continuous
 62
     7
370
    25
100
AcDbCircle
 10
1.8960345224
 20
1.5938117851
 30
0.0
 40
0.0938704064872123
100
AcDbArc
 50
16.5056841482
 51
85.2323245153
  0
ARC
  5
1E9
330
1F
100
AcDbEntity
  8
0
  6
Continuous
 62
     7
370
    25
100
AcDbCircle
 10
2.6499666552
 20
0.0301240317
 30
0.0
 40
0.0938704064872127
100
AcDbArc
 50
196.5056841482
 51
265.2323245153
  0
ARC
  5
1EA
330
1F
100
AcDbEntity
  8
0
  6
Continuous
 62
     7
370
    25
100
AcDbCircle
 10
4.0540302221
 20
-0.1905900659
 30
0.0
 40
0.1004050778142164
100
AcDbArc
 50
359.3171535629
 51
83.4435858525
  0
ARC
  5
1EB
330
1F
100
AcDbEntity
  8
0
  6
Continuous
 62
     7
370
    25
100
AcDbCircle
 10
4.1450329092
 20
-1.7435593234
 30
0.0
 40
0.0856589205894717
100
AcDbArc
 50
273.731843956
 51
8.2075098058
  0
ARC
  5
1EC
330
1F
100
AcDbEntity
  8
0
  6
Continuous
 62
     7
370
    25
100
AcDbCircle
 10
4.1079616036
 20
-0.1791080554
 30
0.0
 40
0.1004050778142181
100
AcDbArc
 50
359.3171535629
 51
83.4435858525
  0
ARC
  5
1ED
330
1F
100
AcDbEntity
  8
0
  6
Continuous
 62
     7
370
    25
100
AcDbCircle
 10
4.2937540433
 20
-0.9483993897
 30
0.0
 40
0.062009078868527
100
AcDbArc
 50
181.2955300727
 51
239.6110533495
  0
ARC
  5
1EE
330
1F
100
AcDbEntity
  8
0
  6
Continuous
 62
     7
370
    25
100
AcDbCircle
 10
4.2895728845
 20
-0.9456092648
 30
0.0
 40
0.0579638604617429
100
AcDbArc
 50
143.3903892544
 51
184.147412548
  0
ARC
  5
1EF
330
1F
100
AcDbEntity
  8
0
  6
Continuous
 62
     7
370
    25
100
AcDbCircle
 10
4.1965298103
 20
-1.7313891017
 30
0.0
 40
0.087976232216676
100
AcDbArc
 50
285.8103380232
 51
7.5375354248
  0
ARC
  5
1F0
330
1F
100
AcDbEntity
  8
0
  6
Continuous
 62
     7
370
    25
100
AcDbCircle
 10
3.2537543322
 20
-1.8363344049
 30
0.0
 40
0.0620090788685344
100
AcDbArc
 50
181.2955300727
 51
239.6110533495
  0
ARC
  5
1F1
330
1F
100
AcDbEntity
  8
0
  6
Continuous
 62
     7
370
    25
100
AcDbCircle
 10
3.2495731735
 20
-1.8335442801
 30
0.0
 40
0.0579638604617339
100
AcDbArc
 50
143.3903892545
 51
184.147412548
  0
ARC
  5
1F2
330
1F
100
AcDbEntity
  8
0
  6
Continuous
 62
     7
370
    25
100
AcDbCircle
 10
2.7038980367
 20
0.0416060422
 30
0.0
 40
0.0938704064872155
100
AcDbArc
 50
196.5056841482
 51
265.2323245153
  0
ARC
  5
1F3
330
1F
100
AcDbEntity
  8
0
  6
Continuous
 62
     7
370
    25
100
AcDbCircle
 10
1.9499659039
 20
1.6052937955
 30
0.0
 40
0.0938704064872149
100
AcDbArc
 50
16.5056841482
 51
85.2323245153
  0
ARC
  5
1F4
330
1F
100
AcDbEntity
  8
0
  6
Continuous
 62
     7
370
    25
100
AcDbCircle
 10
0.9266800895
 20
1.4317124756
 30
0.0
 40
0.0951617498802812
100
AcDbArc
 50
125.9038904865
 51
185.3539501269
  0
ARC
  5
1F5
330
1F
100
AcDbEntity
  8
0
  6
Continuous
 62
     7
370
    25
100
AcDbCircle
 10
0.9809677743
 20
0.428382253
 30
0.0
 40
0.1004050778142171
100
AcDbArc
 50
179.3171535629
 51
263.4435858526
  0
ARC
  5
1F6
330
1F
100
AcDbEntity
  8
0
  6
Continuous
 62
     7
370
    25
100
AcDbCircle
 10
1.1099714137
 20
-1.7950350027
 30
0.0
 40
0.0620090788685389
100
AcDbArc
 50
181.2955300727
 51
239.6110533495
  0
ARC
  5
1F7
330
1F
100
AcDbEntity
  8
0
  6
Continuous
 62
     7
370
    25
100
AcDbCircle
 10
1.105790255
 20
-1.7922448779
 30
0.0
 40
0.057963860461751
100
AcDbArc
 50
143.3903892545
 51
184.147412548
  0
ARC
  5
1F8
330
1F
100
AcDbEntity
  8
0
  6
Continuous
 62
     7
370
    25
100
AcDbCircle
 10
-0.5025085228
 20
1.4592454104
 30
0.0
 40
0.0951617498802826
100
AcDbArc
 50
125.9038904865
 51
185.3539501269
  0
ARC
  5
1F9
330
1F
100
AcDbEntity
  8
0
  6
Continuous
 62
     7
370
    25
100
AcDbCircle
 10
-0.448220838
 20
0.4559151878
 30
0.0
 40
0.100405077814217
100
AcDbArc
 50
179.3171535629
 51
263.4435858526
  0
ARC
  5
1FA
330
1F
100
AcDbEntity
  8
0
  6
Continuous
 62
     7
370
    25
100
AcDbCircle
 10
-0.7822978168
 20
-1.3217534134
 30
0.0
 40
0.041887031866655
100
AcDbArc
 50
174.3864649754
 51
209.6512256223
  0
ARC
  5
1FB
330
1F
100
AcDbEntity
  8
0
  6
Continuous
 62
     7
370
    25
100
AcDbCircle
 10
-0.9269463947
 20
-1.3198120776
 30
0.0
 40
0.0834902596338987
100
AcDbArc
 50
180.2405352483
 51
250.384311353
  0
ARC
  5
1FC
330
1F
100
AcDbEntity
  8
0
  6
Continuous
 62
     7
370
    25
100
AcDbCircle
 10
-0.9329113898
 20
-1.3134623607
 30
0.0
 40
0.0778135302618834
100
AcDbArc
 50
132.3354616194
 51
184.9396324996
  0
ARC
  5
1FD
330
1F
100
AcDbEntity
  8
0
  6
Continuous
 62
     7
370
    25
100
AcDbCircle
 10
-0.9077066272
 20
-1.7561649772
 30
0.0
 40
0.0620090788685385
100
AcDbArc
 50
181.2955300727
 51
239.6110533495
  0
ARC
  5
1FE
330
1F
100
AcDbEntity
  8
0
  6
Continuous
 62
     7
370
    25
100
AcDbCircle
 10
-0.9118877859
 20
-1.7533748523
 30
0.0
 40
0.0579638604617493
100
AcDbArc
 50
143.3903892545
 51
184.147412548
  0
ARC
  5
1FF
330
1F
100
AcDbEntity
  8
0
  6
Continuous
 62
     7
370
    25
100
AcDbCircle
 10
-1.0799053278
 20
-1.3160200847
 30
0.0
 40
0.0418870318666535
100
AcDbArc
 50
174.3864649754
 51
209.6512256223
  0
ARC
  5
200
330
1F
100
AcDbEntity
  8
0
  6
Continuous
 62
     7
370
    25
100
AcDbCircle
 10
-1.9456870024
 20
1.4890914193
 30
0.0
 40
0.0918068349832053
100
AcDbArc
 50
125.2394376458
 51
178.0943336555
  0
ARC
  5
201
330
1F
100
AcDbEntity
  8
0
  6
Continuous
 62
     7
370
    25
100
AcDbCircle
 10
-2.0072945343
 20
0.4879005336
 30
0.0
 40
0.1024792320555626
100
AcDbArc
 50
172.5411454437
 51
262.8047296953
  0
MTEXT
  5
203
330
1F
100
AcDbEntity
  8
0
  6
Continuous
 62
     7
100
AcDbMText
 10
-2.4836255077
 20
-1.9547359811
 30
0.0
 40
0.1903
 41
0.0
 71
     1
 72
     1
  1
SOLIDWORKS Educational Product.
  7
SLDTEXTSTYLE0
 73
     1
 44
1.0
  0
MTEXT
  5
204
330
1F
100
AcDbEntity
  8
0
  6
Continuous
 62
     7
100
AcDbMText
 10
-2.4836255077
 20
-2.2401859811
 30
0.0
 40
0.1903
 41
0.0
 71
     1
 72
     1
  1
For Instructional Use Only.
  7
SLDTEXTSTYLE0
 73
     1
 44
1.0
  0
ENDSEC
  0
SECTION
  2
OBJECTS
  0
DICTIONARY
  5
C
330
0
100
AcDbDictionary
281
     1
  3
ACAD_GROUP
350
D
  3
ACAD_LAYOUT
350
1A
  3
ACAD_MLINESTYLE
350
17
  3
ACAD_PLOTSETTINGS
350
19
  3
ACAD_PLOTSTYLENAME
350
E
  3
ACAD_SCALELIST
350
47
  0
DICTIONARY
  5
D
102
{ACAD_REACTORS
330
C
102
}
330
C
100
AcDbDictionary
281
     1
  0
DICTIONARY
  5
1A
102
{ACAD_REACTORS
330
C
102
}
330
C
100
AcDbDictionary
281
     1
  3
Layout1
350
1E
  3
Layout2
350
26
  3
Model
350
22
  0
DICTIONARY
  5
17
102
{ACAD_REACTORS
330
C
102
}
330
C
100
AcDbDictionary
281
     1
  3
Standard
350
18
  0
DICTIONARY
  5
19
102
{ACAD_REACTORS
330
C
102
}
330
C
100
AcDbDictionary
281
     1
  0
ACDBDICTIONARYWDFLT
  5
E
102
{ACAD_REACTORS
330
C
102
}
330
C
100
AcDbDictionary
281
     1
  3
Normal
350
F
100
AcDbDictionaryWithDefault
340
F
  0
DICTIONARY
  5
47
102
{ACAD_REACTORS
330
C
102
}
330
C
100
AcDbDictionary
281
     1
  3
A0
350
48
  3
A1
350
49
  3
A2
350
4A
  3
A3
350
4B
  3
A4
350
4C
  3
A5
350
4D
  3
A6
350
4E
  3
A7
350
4F
  3
A8
350
50
  3
A9
350
51
  3
B0
350
52
  3
B1
350
53
  3
B2
350
54
  3
B3
350
55
  3
B4
350
56
  3
B5
350
57
  3
B6
350
58
  3
B7
350
59
  3
B8
350
5A
  3
B9
350
5B
  3
C0
350
5C
  3
C1
350
5D
  3
C2
350
5E
  3
C3
350
5F
  3
C4
350
60
  3
C5
350
61
  3
C6
350
62
  3
C7
350
63
  3
C8
350
64
  3
C9
350
65
  3
D0
350
66
  3
D1
350
67
  3
D2
350
68
  0
LAYOUT
  5
1E
102
{ACAD_REACTORS
330
1A
102
}
330
1A
100
AcDbPlotSettings
  1

  2
none_device
  4

  6

 40
0.0
 41
0.0
 42
0.0
 43
0.0
 44
0.0
 45
0.0
 46
0.0
 47
0.0
 48
0.0
 49
0.0
140
0.0
141
0.0
142
1.0
143
1.0
 70
   688
 72
     0
 73
     0
 74
     5
  7

 75
    16
147
1.0
148
0.0
149
0.0
100
AcDbLayout
  1
Layout1
 70
     1
 71
     1
 10
0.0
 20
0.0
 11
12.0
 21
9.0
 12
0.0
 22
0.0
 32
0.0
 14
1.0000000000E+20
 24
1.0000000000E+20
 34
1.0000000000E+20
 15
-1.0000000000E+20
 25
-1.0000000000E+20
 35
-1.0000000000E+20
146
0.0
 13
0.0
 23
0.0
 33
0.0
 16
1.0
 26
0.0
 36
0.0
 17
0.0
 27
1.0
 37
0.0
 76
     0
330
1B
  0
LAYOUT
  5
26
102
{ACAD_REACTORS
330
1A
102
}
330
1A
100
AcDbPlotSettings
  1

  2
none_device
  4

  6

 40
0.0
 41
0.0
 42
0.0
 43
0.0
 44
0.0
 45
0.0
 46
0.0
 47
0.0
 48
0.0
 49
0.0
140
0.0
141
0.0
142
1.0
143
1.0
 70
   688
 72
     0
 73
     0
 74
     5
  7

 75
    16
147
1.0
148
0.0
149
0.0
100
AcDbLayout
  1
Layout2
 70
     1
 71
     2
 10
0.0
 20
0.0
 11
0.0
 21
0.0
 12
0.0
 22
0.0
 32
0.0
 14
0.0
 24
0.0
 34
0.0
 15
0.0
 25
0.0
 35
0.0
146
0.0
 13
0.0
 23
0.0
 33
0.0
 16
1.0
 26
0.0
 36
0.0
 17
0.0
 27
1.0
 37
0.0
 76
     0
330
23
  0
LAYOUT
  5
22
102
{ACAD_REACTORS
330
1A
102
}
330
1A
100
AcDbPlotSettings
  1

  2
none_device
  4
ANSI_A_(11.00_x_8.50_Inches)
  6

 40
6.35
 41
19.05
 42
6.35000508
 43
19.05000254
 44
279.4
 45
215.9
 46
95.6550244947
 47
91.6812266018
 48
0.0
 49
0.0
140
0.0
141
0.0
142
1.5948241528
143
1.0
 70
  1696
 72
     0
 73
     0
 74
     0
  7

 75
     0
147
0.5913241897
148
-39.4088153714
149
0.0
100
AcDbLayout
  1
Model
 70
     1
 71
     0
 10
0.0
 20
0.0
 11
12.0
 21
9.0
 12
0.0
 22
0.0
 32
0.0
 14
-2.4836255077
 24
-1.9145955719
 34
0.0
 15
4.3447135169
 25
1.7772799185
 35
0.0
146
0.0
 13
0.0
 23
0.0
 33
0.0
 16
1.0
 26
0.0
 36
0.0
 17
0.0
 27
1.0
 37
0.0
 76
     0
330
1F
331
29
  0
MLINESTYLE
  5
18
102
{ACAD_REACTORS
330
17
102
}
330
17
100
AcDbMlineStyle
  2
Standard
 70
     0
  3

 62
   256
 51
90.0
 52
90.0
 71
     2
 49
0.5
 62
   256
  6
BYLAYER
 49
-0.5
 62
   256
  6
BYLAYER
  0
ACDBPLACEHOLDER
  5
F
102
{ACAD_REACTORS
330
E
102
}
330
E
  0
SCALE
  5
48
102
{ACAD_REACTORS
330
47
102
}
330
47
100
AcDbScale
 70
     0
300
1:1
140
1.0
141
1.0
290
     1
  0
SCALE
  5
49
102
{ACAD_REACTORS
330
47
102
}
330
47
100
AcDbScale
 70
     0
300
1:2
140
1.0
141
2.0
290
     0
  0
SCALE
  5
4A
102
{ACAD_REACTORS
330
47
102
}
330
47
100
AcDbScale
 70
     0
300
1:4
140
1.0
141
4.0
290
     0
  0
SCALE
  5
4B
102
{ACAD_REACTORS
330
47
102
}
330
47
100
AcDbScale
 70
     0
300
1:5
140
1.0
141
5.0
290
     0
  0
SCALE
  5
4C
102
{ACAD_REACTORS
330
47
102
}
330
47
100
AcDbScale
 70
     0
300
1:8
140
1.0
141
8.0
290
     0
  0
SCALE
  5
4D
102
{ACAD_REACTORS
330
47
102
}
330
47
100
AcDbScale
 70
     0
300
1:10
140
1.0
141
10.0
290
     0
  0
SCALE
  5
4E
102
{ACAD_REACTORS
330
47
102
}
330
47
100
AcDbScale
 70
     0
300
1:16
140
1.0
141
16.0
290
     0
  0
SCALE
  5
4F
102
{ACAD_REACTORS
330
47
102
}
330
47
100
AcDbScale
 70
     0
300
1:20
140
1.0
141
20.0
290
     0
  0
SCALE
  5
50
102
{ACAD_REACTORS
330
47
102
}
330
47
100
AcDbScale
 70
     0
300
1:30
140
1.0
141
30.0
290
     0
  0
SCALE
  5
51
102
{ACAD_REACTORS
330
47
102
}
330
47
100
AcDbScale
 70
     0
300
1:40
140
1.0
141
40.0
290
     0
  0
SCALE
  5
52
102
{ACAD_REACTORS
330
47
102
}
330
47
100
AcDbScale
 70
     0
300
1:50
140
1.0
141
50.0
290
     0
  0
SCALE
  5
53
102
{ACAD_REACTORS
330
47
102
}
330
47
100
AcDbScale
 70
     0
300
1:100
140
1.0
141
100.0
290
     0
  0
SCALE
  5
54
102
{ACAD_REACTORS
330
47
102
}
330
47
100
AcDbScale
 70
     0
300
2:1
140
2.0
141
1.0
290
     0
  0
SCALE
  5
55
102
{ACAD_REACTORS
330
47
102
}
330
47
100
AcDbScale
 70
     0
300
4:1
140
4.0
141
1.0
290
     0
  0
SCALE
  5
56
102
{ACAD_REACTORS
330
47
102
}
330
47
100
AcDbScale
 70
     0
300
8:1
140
8.0
141
1.0
290
     0
  0
SCALE
  5
57
102
{ACAD_REACTORS
330
47
102
}
330
47
100
AcDbScale
 70
     0
300
10:1
140
10.0
141
1.0
290
     0
  0
SCALE
  5
58
102
{ACAD_REACTORS
330
47
102
}
330
47
100
AcDbScale
 70
     0
300
100:1
140
100.0
141
1.0
290
     0
  0
SCALE
  5
59
102
{ACAD_REACTORS
330
47
102
}
330
47
100
AcDbScale
 70
     0
300
1/128" = 1'-0"
140
0.0078125
141
12.0
290
     0
  0
SCALE
  5
5A
102
{ACAD_REACTORS
330
47
102
}
330
47
100
AcDbScale
 70
     0
300
1/64" = 1'-0"
140
0.015625
141
12.0
290
     0
  0
SCALE
  5
5B
102
{ACAD_REACTORS
330
47
102
}
330
47
100
AcDbScale
 70
     0
300
1/32" = 1'-0"
140
0.03125
141
12.0
290
     0
  0
SCALE
  5
5C
102
{ACAD_REACTORS
330
47
102
}
330
47
100
AcDbScale
 70
     0
300
1/16" = 1'-0"
140
0.0625
141
12.0
290
     0
  0
SCALE
  5
5D
102
{ACAD_REACTORS
330
47
102
}
330
47
100
AcDbScale
 70
     0
300
3/32" = 1'-0"
140
0.09375
141
12.0
290
     0
  0
SCALE
  5
5E
102
{ACAD_REACTORS
330
47
102
}
330
47
100
AcDbScale
 70
     0
300
1/8" = 1'-0"
140
0.125
141
12.0
290
     0
  0
SCALE
  5
5F
102
{ACAD_REACTORS
330
47
102
}
330
47
100
AcDbScale
 70
     0
300
3/16" = 1'-0"
140
0.1875
141
12.0
290
     0
  0
SCALE
  5
60
102
{ACAD_REACTORS
330
47
102
}
330
47
100
AcDbScale
 70
     0
300
1/4" = 1'-0"
140
0.25
141
12.0
290
     0
  0
SCALE
  5
61
102
{ACAD_REACTORS
330
47
102
}
330
47
100
AcDbScale
 70
     0
300
3/8" = 1'-0"
140
0.375
141
12.0
290
     0
  0
SCALE
  5
62
102
{ACAD_REACTORS
330
47
102
}
330
47
100
AcDbScale
 70
     0
300
1/2" = 1'-0"
140
0.5
141
12.0
290
     0
  0
SCALE
  5
63
102
{ACAD_REACTORS
330
47
102
}
330
47
100
AcDbScale
 70
     0
300
3/4" = 1'-0"
140
0.75
141
12.0
290
     0
  0
SCALE
  5
64
102
{ACAD_REACTORS
330
47
102
}
330
47
100
AcDbScale
 70
     0
300
1" = 1'-0"
140
1.0
141
12.0
290
     0
  0
SCALE
  5
65
102
{ACAD_REACTORS
330
47
102
}
330
47
100
AcDbScale
 70
     0
300
1-1/2" = 1'-0"
140
1.5
141
12.0
290
     0
  0
SCALE
  5
66
102
{ACAD_REACTORS
330
47
102
}
330
47
100
AcDbScale
 70
     0
300
3" = 1'-0"
140
3.0
141
12.0
290
     0
  0
SCALE
  5
67
102
{ACAD_REACTORS
330
47
102
}
330
47
100
AcDbScale
 70
     0
300
6" = 1'-0"
140
6.0
141
12.0
290
     0
  0
SCALE
  5
68
102
{ACAD_REACTORS
330
47
102
}
330
47
100
AcDbScale
 70
     0
300
1'-0" = 1'-0"
140
12.0
141
12.0
290
     0
  0
ENDSEC
  0
EOF
